<svg width="27" height="24" viewBox="0 0 27 24" fill="none" xmlns="http://www.w3.org/2000/svg">
<path d="M5.93143 24C5.92504 24 5.91886 24 5.91246 24L3.36072 23.9839C1.50767 23.9724 0 22.4603 0 20.6126V18.0978C0 17.31 0.307759 16.5691 0.866364 16.0118L16.06 0.864332C16.6183 0.307042 17.3615 0 18.1525 0H23.618C25.4828 0 27 1.51261 27 3.37177V8.82087C27 9.60865 26.6922 10.3495 26.1336 10.9068L18.3289 18.6879C17.999 19.0172 17.4636 19.0172 17.1333 18.6879C16.803 18.3586 16.803 17.8252 17.1333 17.4959L24.9376 9.71528C25.1769 9.47615 25.309 9.15841 25.309 8.82087V3.37177C25.309 2.442 24.5504 1.68589 23.618 1.68589H18.1524C17.8135 1.68589 17.4952 1.81717 17.2559 2.05588L2.06231 17.2034C1.82309 17.4425 1.69098 17.7603 1.69098 18.0978V20.6126C1.69098 21.5362 2.44484 22.2923 3.37123 22.298L5.9234 22.3141C6.25758 22.3314 6.58991 22.1812 6.82813 21.9441L18.3099 10.4969L16.7203 8.91185L6.72757 18.8744C6.39772 19.2037 5.86226 19.2037 5.53199 18.8744C5.20172 18.5452 5.20172 18.0117 5.53199 17.6825L15.5245 7.71983C16.1839 7.06249 17.2566 7.0617 17.9159 7.71983L19.5057 9.30487C19.8251 9.62345 20.0009 10.0466 20.0009 10.4968C20.0009 10.9471 19.8251 11.3702 19.5055 11.6888L8.0237 23.1361C7.47234 23.686 6.71066 24 5.93143 24Z" fill="white"/>
</svg>
