<svg width="111" height="110" viewBox="0 0 111 110" fill="none" xmlns="http://www.w3.org/2000/svg">
<path d="M107.436 32.871H67.6414C65.7003 32.871 64.121 34.4503 64.121 36.3915V40.3905H57.6757V18.2617H63.8232C65.7643 18.2617 67.3436 16.6824 67.3436 14.7413V3.52042C67.3436 1.57931 65.7643 0 63.8232 0H17.7977C15.8566 0 14.2773 1.57931 14.2773 3.52042V14.7415C14.2773 16.6824 15.8566 18.2617 17.7977 18.2617H27.4365C28.3266 18.2617 29.0478 17.5402 29.0478 16.6504C29.0478 15.7605 28.3266 15.039 27.4365 15.039H17.7977C17.6336 15.039 17.5 14.9054 17.5 14.7413V3.52042C17.5 3.35628 17.6336 3.22265 17.7977 3.22265H63.8234C63.9876 3.22265 64.1212 3.35628 64.1212 3.52042V14.7415C64.1212 14.9056 63.9876 15.0392 63.8234 15.0392H33.8818C32.9917 15.0392 32.2704 15.7607 32.2704 16.6506C32.2704 17.5405 32.9917 18.2619 33.8818 18.2619H54.453V66.3868H48.0077V62.3877C48.0077 60.4466 46.4284 58.8673 44.4873 58.8673H4.6923C2.75119 58.8671 1.17188 60.4464 1.17188 62.3875V73.6086C1.17188 75.5494 2.75119 77.1288 4.6923 77.1288H44.4875C46.4286 77.1288 48.0079 75.5495 48.0079 73.6083V69.6092H54.4532V91.7381H48.3057C46.3646 91.7381 44.7853 93.3174 44.7853 95.2585V106.48C44.7853 108.421 46.3646 110 48.3057 110H94.3314C96.2725 110 97.8518 108.421 97.8518 106.48V95.2585C97.8518 93.3174 96.2725 91.7381 94.3314 91.7381H83.2957C82.4056 91.7381 81.6844 92.4596 81.6844 93.3494C81.6844 94.2393 82.4056 94.9608 83.2957 94.9608H94.331C94.4951 94.9608 94.6287 95.0944 94.6287 95.2585V106.48C94.6287 106.644 94.4951 106.777 94.331 106.777H48.3055C48.1414 106.777 48.0077 106.644 48.0077 106.48V95.2585C48.0077 95.0944 48.1414 94.9608 48.3055 94.9608H76.8504C77.7405 94.9608 78.4618 94.2393 78.4618 93.3494C78.4618 92.4596 77.7405 91.7381 76.8504 91.7381H57.6757V43.6132H64.121V47.6123C64.121 49.5534 65.7003 51.1327 67.6414 51.1327H107.437C109.378 51.1327 110.957 49.5534 110.957 47.6123V36.3912C110.957 34.4503 109.378 32.871 107.436 32.871ZM44.7853 73.6083H44.7851C44.7851 73.7725 44.6514 73.9061 44.4873 73.9061H4.6923C4.52816 73.9061 4.39453 73.7725 4.39453 73.6083V62.3873C4.39453 62.2231 4.52816 62.0895 4.6923 62.0895H44.4875C44.6517 62.0895 44.7853 62.2231 44.7853 62.3873V73.6083ZM107.734 47.6123C107.734 47.7764 107.601 47.9101 107.436 47.9101H67.6414C67.4772 47.9101 67.3436 47.7764 67.3436 47.6123V36.3912C67.3436 36.2271 67.4772 36.0935 67.6414 36.0935H107.437C107.601 36.0935 107.734 36.2271 107.734 36.3912V47.6123Z" fill="#A9ADB7"/>
<path d="M28.1695 4.88199L23.7459 9.35009L23.0601 8.93437C22.2985 8.47332 21.3081 8.7163 20.8468 9.47728C20.3857 10.2383 20.6285 11.2291 21.3895 11.6904L23.1619 12.7646C23.4208 12.9214 23.7098 12.9979 23.9966 12.9979C24.416 12.9979 24.8311 12.8346 25.1424 12.5201L30.4597 7.14902C31.0858 6.51674 31.0806 5.49645 30.4481 4.87039C29.8161 4.24455 28.7958 4.2495 28.1695 4.88199Z" fill="#C97B00"/>
<path d="M51.9824 10.7422C52.8725 10.7422 53.5937 10.0207 53.5937 9.13086C53.5937 8.24098 52.8725 7.51953 51.9824 7.51953H32.6465C31.7564 7.51953 31.0352 8.24098 31.0352 9.13086C31.0352 10.0207 31.7564 10.7422 32.6465 10.7422H51.9824Z" fill="#C97B00"/>
<path d="M58.4277 10.7422C59.3178 10.7422 60.0391 10.0207 60.0391 9.13086C60.0391 8.24098 59.3178 7.51953 58.4277 7.51953H56.0645C55.1744 7.51953 54.4531 8.24098 54.4531 9.13086C54.4531 10.0207 55.1744 10.7422 56.0645 10.7422H58.4277Z" fill="#C97B00"/>
<path d="M75.3582 37.9622C74.7287 37.3329 73.7086 37.3329 73.0794 37.9622L70.179 40.8626C69.5497 41.4919 69.5497 42.5121 70.179 43.1412L72.7571 45.7193C73.0719 46.0339 73.4844 46.1913 73.8966 46.1913C74.3089 46.1913 74.7214 46.0341 75.0362 45.7193C75.6654 45.09 75.6654 44.0698 75.0362 43.4407L73.5974 42.0019L75.3584 40.2408C75.9873 39.6118 75.9873 38.5913 75.3582 37.9622Z" fill="#C97B00"/>
<path d="M84.8133 37.9622C84.1838 37.3329 83.1637 37.3329 82.5345 37.9622C81.9052 38.5915 81.9052 39.6118 82.5345 40.2408L84.2955 42.0019L82.8567 43.4407C82.2274 44.07 82.2274 45.0903 82.8567 45.7193C83.1715 46.0339 83.584 46.1913 83.9963 46.1913C84.4085 46.1913 84.821 46.0341 85.1358 45.7193L87.7139 43.1412C88.3432 42.5119 88.3432 41.4916 87.7139 40.8626L84.8133 37.9622Z" fill="#C97B00"/>
<path d="M80.5109 37.7125C79.6851 37.3817 78.7468 37.7836 78.4164 38.6102L76.268 43.9812C75.9375 44.8075 76.3395 45.7453 77.1658 46.0757C77.3619 46.1544 77.5643 46.1915 77.7637 46.1915C78.4031 46.1915 79.0083 45.8083 79.2603 45.1783L81.4087 39.8073C81.7392 38.9805 81.3372 38.043 80.5109 37.7125Z" fill="#C97B00"/>
<path d="M104.189 40.3906H91.084C90.1939 40.3906 89.4727 41.1121 89.4727 42.002C89.4727 42.8918 90.1939 43.6133 91.084 43.6133H104.189C105.08 43.6133 105.801 42.8918 105.801 42.002C105.801 41.1121 105.08 40.3906 104.189 40.3906Z" fill="#C97B00"/>
<path d="M14.6344 64.1789L10.2108 68.647L9.52504 68.2313C8.76342 67.7701 7.77299 68.013 7.31172 68.7742C6.85045 69.5354 7.09344 70.5261 7.85442 70.9873L9.62687 72.0615C9.88576 72.2184 10.1747 72.2949 10.4615 72.2949C10.8809 72.2949 11.296 72.1316 11.6073 71.8171L16.9247 66.446C17.5507 65.8137 17.5456 64.7934 16.9131 64.1673C16.281 63.5415 15.2607 63.5462 14.6344 64.1789Z" fill="#C97B00"/>
<path d="M40.5957 66.3867H19.3262C18.4361 66.3867 17.7148 67.1082 17.7148 67.998C17.7148 68.8879 18.4361 69.6094 19.3262 69.6094H40.5957C41.4858 69.6094 42.207 68.8879 42.207 67.998C42.207 67.1082 41.4858 66.3867 40.5957 66.3867Z" fill="#C97B00"/>
<path d="M50.3711 100.869C50.3711 103.298 52.3468 105.273 54.7754 105.273C57.204 105.273 59.1797 103.298 59.1797 100.869C59.1797 98.4405 57.204 96.4648 54.7754 96.4648C52.3468 96.4648 50.3711 98.4405 50.3711 100.869ZM55.957 100.869C55.957 101.521 55.427 102.051 54.7754 102.051C54.1238 102.051 53.5937 101.521 53.5937 100.869C53.5937 100.218 54.1238 99.6875 54.7754 99.6875C55.427 99.6875 55.957 100.218 55.957 100.869Z" fill="#C97B00"/>
<path d="M60.6836 100.869C60.6836 103.298 62.6593 105.273 65.0879 105.273C67.5165 105.273 69.4922 103.298 69.4922 100.869C69.4922 98.4405 67.5165 96.4648 65.0879 96.4648C62.6593 96.4648 60.6836 98.4405 60.6836 100.869ZM66.2695 100.869C66.2695 101.521 65.7395 102.051 65.0879 102.051C64.4363 102.051 63.9062 101.521 63.9062 100.869C63.9062 100.218 64.4363 99.6875 65.0879 99.6875C65.7395 99.6875 66.2695 100.218 66.2695 100.869Z" fill="#C97B00"/>
<path d="M75.6152 99.2578H72.6074C71.7173 99.2578 70.9961 99.9793 70.9961 100.869C70.9961 101.759 71.7173 102.48 72.6074 102.48H75.6152C76.5053 102.48 77.2265 101.759 77.2265 100.869C77.2265 99.9793 76.5053 99.2578 75.6152 99.2578Z" fill="#C97B00"/>
<path d="M80.127 102.48H90.6543C91.5444 102.48 92.2656 101.759 92.2656 100.869C92.2656 99.9793 91.5444 99.2578 90.6543 99.2578H80.127C79.2369 99.2578 78.5156 99.9793 78.5156 100.869C78.5156 101.759 79.2369 102.48 80.127 102.48Z" fill="#C97B00"/>
<path d="M4.43126 38.0273H12.7367C14.6524 38.0273 16.2109 36.4688 16.2109 34.5533V26.2475C16.2109 24.3317 14.6524 22.7734 12.7367 22.7734H4.43126C2.5155 22.7734 0.957031 24.3319 0.957031 26.2475V34.5531C0.957031 36.4688 2.5155 38.0273 4.43126 38.0273ZM4.17968 26.2475C4.17968 26.1087 4.29247 25.9961 4.43126 25.9961H12.7367C12.8755 25.9961 12.9883 26.1089 12.9883 26.2475V34.5531C12.9883 34.6919 12.8755 34.8044 12.7367 34.8044H4.43126C4.29247 34.8044 4.17968 34.6917 4.17968 34.5531V26.2475Z" fill="#C97B00"/>
<path d="M22.0117 23.5254C22.0117 24.4153 22.7329 25.1367 23.623 25.1367H48.1152C49.0053 25.1367 49.7265 24.4153 49.7265 23.5254C49.7265 22.6355 49.0053 21.9141 48.1152 21.9141H23.623C22.7329 21.9141 22.0117 22.6355 22.0117 23.5254Z" fill="#A9ADB7"/>
<path d="M23.623 32.0117H48.1152C49.0053 32.0117 49.7265 31.2903 49.7265 30.4004C49.7265 29.5105 49.0053 28.7891 48.1152 28.7891H23.623C22.7329 28.7891 22.0117 29.5105 22.0117 30.4004C22.0117 31.2903 22.7329 32.0117 23.623 32.0117Z" fill="#A9ADB7"/>
<path d="M23.623 38.8867H29.4238C30.3139 38.8867 31.0351 38.1653 31.0351 37.2754C31.0351 36.3855 30.3139 35.6641 29.4238 35.6641H23.623C22.7329 35.6641 22.0117 36.3855 22.0117 37.2754C22.0117 38.1653 22.7329 38.8867 23.623 38.8867Z" fill="#A9ADB7"/>
<path d="M48.1152 35.6641H35.0098C34.1197 35.6641 33.3984 36.3855 33.3984 37.2754C33.3984 38.1653 34.1197 38.8867 35.0098 38.8867H48.1152C49.0053 38.8867 49.7265 38.1653 49.7265 37.2754C49.7265 36.3855 49.0053 35.6641 48.1152 35.6641Z" fill="#A9ADB7"/>
<path d="M65.6617 60.3711C63.746 60.3711 62.1875 61.9296 62.1875 63.8451V72.1507C62.1875 74.0665 63.746 75.6248 65.6617 75.6248H73.9671C75.8829 75.6248 77.4414 74.0663 77.4414 72.1507V63.8451C77.4414 61.9294 75.8829 60.3711 73.9671 60.3711H65.6617ZM74.2187 63.8451V72.1507C74.2187 72.2895 74.1059 72.4021 73.9671 72.4021H65.6617C65.5229 72.4021 65.4102 72.2893 65.4102 72.1507V63.8451C65.4102 63.7063 65.5229 63.5937 65.6617 63.5937H73.9671C74.1059 63.5937 74.2187 63.7065 74.2187 63.8451Z" fill="#C97B00"/>
<path d="M109.346 59.5117H84.8535C83.9634 59.5117 83.2422 60.2332 83.2422 61.123C83.2422 62.0129 83.9634 62.7344 84.8535 62.7344H109.346C110.236 62.7344 110.957 62.0129 110.957 61.123C110.957 60.2332 110.236 59.5117 109.346 59.5117Z" fill="#A9ADB7"/>
<path d="M109.346 66.3867H84.8535C83.9634 66.3867 83.2422 67.1082 83.2422 67.998C83.2422 68.8879 83.9634 69.6094 84.8535 69.6094H109.346C110.236 69.6094 110.957 68.8879 110.957 67.998C110.957 67.1082 110.236 66.3867 109.346 66.3867Z" fill="#A9ADB7"/>
<path d="M84.8535 73.2617C83.9634 73.2617 83.2422 73.9832 83.2422 74.873C83.2422 75.7629 83.9634 76.4844 84.8535 76.4844H90.6543C91.5444 76.4844 92.2656 75.7629 92.2656 74.873C92.2656 73.9832 91.5444 73.2617 90.6543 73.2617H84.8535Z" fill="#A9ADB7"/>
<path d="M109.346 73.2617H96.2402C95.3501 73.2617 94.6289 73.9832 94.6289 74.873C94.6289 75.7629 95.3501 76.4844 96.2402 76.4844H109.346C110.236 76.4844 110.957 75.7629 110.957 74.873C110.957 73.9832 110.236 73.2617 109.346 73.2617Z" fill="#A9ADB7"/>
</svg>
