<svg width="111" height="110" viewBox="0 0 111 110" fill="none" xmlns="http://www.w3.org/2000/svg">
<path d="M4.6237 0H0.957031V3.66667H4.6237V0Z" fill="#A9ADB7"/>
<path d="M11.9557 0H8.28906V3.66667H11.9557V0Z" fill="#A9ADB7"/>
<path d="M15.6237 14.666H11.957V18.3327H15.6237V14.666Z" fill="#A9ADB7"/>
<path d="M22.9557 14.666H19.2891V18.3327H22.9557V14.666Z" fill="#A9ADB7"/>
<path d="M21.125 7.33398H15.625V11.0007H21.125V7.33398Z" fill="#C97B00"/>
<path d="M24.7917 0H15.625V3.66667H24.7917V0Z" fill="#A9ADB7"/>
<path d="M11.957 7.33398H0.957031V11.0007H11.957V7.33398Z" fill="#A9ADB7"/>
<path d="M8.29036 14.666H0.957031V18.3327H8.29036V14.666Z" fill="#A9ADB7"/>
<path d="M17.4557 47.666H13.7891V51.3327H17.4557V47.666Z" fill="#A9ADB7"/>
<path d="M13.7917 33H10.125V36.6667H13.7917V33Z" fill="#A9ADB7"/>
<path d="M6.45573 33H2.78906V36.6667H6.45573V33Z" fill="#C97B00"/>
<path d="M10.125 40.334H4.625V44.0006H10.125V40.334Z" fill="#A9ADB7"/>
<path d="M10.1237 47.666H0.957031V51.3327H10.1237V47.666Z" fill="#A9ADB7"/>
<path d="M19.2891 40.334H13.7891V44.0006H19.2891V40.334Z" fill="#C97B00"/>
<path d="M22.957 33H17.457V36.6667H22.957V33Z" fill="#A9ADB7"/>
<path d="M90.7917 0H87.125V3.66667H90.7917V0Z" fill="#A9ADB7"/>
<path d="M98.1237 0H94.457V3.66667H98.1237V0Z" fill="#A9ADB7"/>
<path d="M103.624 14.666H99.957V18.3327H103.624V14.666Z" fill="#A9ADB7"/>
<path d="M110.956 14.666H107.289V18.3327H110.956V14.666Z" fill="#A9ADB7"/>
<path d="M107.289 7.33398H101.789V11.0007H107.289V7.33398Z" fill="#A9ADB7"/>
<path d="M110.956 0H101.789V3.66667H110.956V0Z" fill="#C97B00"/>
<path d="M98.125 7.33398H87.125V11.0007H98.125V7.33398Z" fill="#A9ADB7"/>
<path d="M96.2891 14.666H90.7891V18.3327H96.2891V14.666Z" fill="#C97B00"/>
<path d="M110.956 47.666H107.289V51.3327H110.956V47.666Z" fill="#A9ADB7"/>
<path d="M101.792 33H98.125V36.6667H101.792V33Z" fill="#A9ADB7"/>
<path d="M94.4557 33H90.7891V36.6667H94.4557V33Z" fill="#A9ADB7"/>
<path d="M98.125 40.334H92.625V44.0006H98.125V40.334Z" fill="#A9ADB7"/>
<path d="M103.624 47.666H94.457V51.3327H103.624V47.666Z" fill="#A9ADB7"/>
<path d="M107.289 40.334H101.789V44.0006H107.289V40.334Z" fill="#A9ADB7"/>
<path d="M110.957 33H105.457V36.6667H110.957V33Z" fill="#A9ADB7"/>
<path d="M4.6237 67.834H0.957031V71.5006H4.6237V67.834Z" fill="#A9ADB7"/>
<path d="M11.9557 67.834H8.28906V71.5006H11.9557V67.834Z" fill="#A9ADB7"/>
<path d="M15.6237 82.5H11.957V86.1667H15.6237V82.5Z" fill="#A9ADB7"/>
<path d="M28.4557 75.166H24.7891V78.8327H28.4557V75.166Z" fill="#A9ADB7"/>
<path d="M21.125 75.166H15.625V78.8327H21.125V75.166Z" fill="#A9ADB7"/>
<path d="M24.7917 67.834H15.625V71.5006H24.7917V67.834Z" fill="#C97B00"/>
<path d="M11.957 75.166H0.957031V78.8327H11.957V75.166Z" fill="#A9ADB7"/>
<path d="M8.29036 82.5H0.957031V86.1667H8.29036V82.5Z" fill="#C97B00"/>
<path d="M109.124 71.5H90.7904C90.2825 71.5 89.8242 71.7072 89.4924 72.039L78.4979 83.0335C78.1789 83.3507 77.9864 83.7888 77.9699 84.271L70.6237 81.268V72.259L81.0865 61.7962C81.4312 61.4533 81.6237 60.9877 81.6237 60.5V54.9065C85.7377 54.4445 88.957 50.985 88.957 46.75C88.957 43.241 86.7442 40.2563 83.6495 39.0665L84.7532 37.9628C85.0979 37.62 85.2904 37.1543 85.2904 36.6667V23.8333C85.2904 14.7345 77.8892 7.33333 68.7904 7.33333H68.6437C66.0404 2.8435 61.1839 0 55.957 0H43.1237C42.1099 0 41.2904 0.8195 41.2904 1.83333C41.2904 3.74367 41.657 5.61 42.3684 7.35167C33.6197 7.74767 26.6237 14.9893 26.6237 23.8333V36.6667C26.6237 37.1543 26.8162 37.62 27.1609 37.9628L28.2645 39.0665C25.1699 40.2563 22.957 43.241 22.957 46.75C22.957 50.985 26.1764 54.4445 30.2904 54.9065V60.5C30.2904 60.9877 30.4829 61.4533 30.8275 61.7962L41.2904 72.259V81.268L2.09553 97.3023C1.4062 97.5865 0.957031 98.2557 0.957031 99V108.167C0.957031 109.181 1.77653 110 2.79036 110H79.7904H109.124C110.138 110 110.957 109.181 110.957 108.167V73.3333C110.957 72.3195 110.138 71.5 109.124 71.5ZM85.2904 46.75C85.2904 48.9628 83.7137 50.8163 81.6237 51.2417V42.2583C83.7137 42.6837 85.2904 44.5372 85.2904 46.75ZM30.2904 51.2417C28.2004 50.8163 26.6237 48.9628 26.6237 46.75C26.6237 44.5372 28.2004 42.6837 30.2904 42.2583V51.2417ZM30.2904 35.9077V23.8333C30.2904 16.7585 36.0489 11 43.1237 11H45.4337C46.1175 11 46.7427 10.6205 47.0599 10.0155C47.3752 9.40867 47.3275 8.679 46.9389 8.118C45.9965 6.7705 45.3787 5.258 45.111 3.66667H55.957C60.17 3.66667 64.0677 6.13433 65.8827 9.955C66.187 10.593 66.8324 11 67.5382 11H68.7904C75.8652 11 81.6237 16.7585 81.6237 23.8333V35.9077L79.7904 37.741L77.957 35.9077V23.8333C77.957 23.3182 77.7407 22.8268 77.3612 22.4803C76.9799 22.1338 76.4702 21.9578 75.9569 22.0073L55.957 23.826L35.9572 22.0073C35.4475 21.9597 34.936 22.132 34.5529 22.4803C34.1734 22.8268 33.957 23.3182 33.957 23.8333V35.9077L32.1237 37.741L30.2904 35.9077ZM33.957 59.741V53.1667V41.0923L37.0865 37.9628C37.4312 37.62 37.6237 37.1543 37.6237 36.6667V25.8408L55.7902 27.4927C55.902 27.5037 56.012 27.5037 56.1239 27.4927L74.2904 25.8408V36.6667C74.2904 37.1543 74.4829 37.62 74.8275 37.9628L77.957 41.0923V53.1667V59.741L62.5314 75.1667H49.3827L33.957 59.741ZM66.957 75.9257V81.5558L55.957 89.4135L44.957 81.5558V75.9257L47.3275 78.2962C47.6704 78.6408 48.136 78.8333 48.6237 78.8333H63.2904C63.778 78.8333 64.2437 78.6408 64.5865 78.2962L66.957 75.9257ZM77.957 106.333H4.6237V100.23L42.8817 84.5808L54.8919 93.159C55.2109 93.3863 55.583 93.5 55.957 93.5C56.331 93.5 56.7032 93.3863 57.0222 93.1572L69.0324 84.579L77.957 88.231V106.333ZM88.957 77.759V82.5H84.216L88.957 77.759ZM107.29 106.333H81.6237V86.999V86.1667H90.7904C91.8042 86.1667 92.6237 85.3472 92.6237 84.3333V75.1667H107.29V106.333Z" fill="#A9ADB7"/>
<path d="M88.9557 89.834H85.2891V93.5006H88.9557V89.834Z" fill="#C97B00"/>
<path d="M96.2917 89.834H92.625V93.5006H96.2917V89.834Z" fill="#A9ADB7"/>
<path d="M103.624 89.834H99.957V93.5006H103.624V89.834Z" fill="#A9ADB7"/>
<path d="M92.6224 97.166H85.2891V100.833H92.6224V97.166Z" fill="#C97B00"/>
<path d="M103.622 97.166H96.2891V100.833H103.622V97.166Z" fill="#C97B00"/>
<path d="M103.622 82.5H96.2891V86.1667H103.622V82.5Z" fill="#C97B00"/>
<path d="M57.7917 97.166H54.125V100.833H57.7917V97.166Z" fill="#C97B00"/>
<path d="M48.087 41.6294L45.4947 39.0371L39.9947 44.5371C39.2778 45.2539 39.2778 46.4126 39.9947 47.1294L45.4947 52.6294L48.087 50.0371L43.8832 45.8333L48.087 41.6294Z" fill="#C97B00"/>
<path d="M71.9205 44.5371L66.4205 39.0371L63.8281 41.6294L68.032 45.8333L63.8281 50.0371L66.4205 52.6294L71.9205 47.1294C72.6373 46.4126 72.6373 45.2539 71.9205 44.5371Z" fill="#C97B00"/>
<path d="M57.9811 37.6833L50.6484 52.3486L53.9279 53.9884L61.2606 39.323L57.9811 37.6833Z" fill="#C97B00"/>
<path d="M57.7917 58.666H54.125V62.3327H57.7917V58.666Z" fill="#A9ADB7"/>
<path d="M65.1237 58.666H61.457V62.3327H65.1237V58.666Z" fill="#A9ADB7"/>
<path d="M50.4557 58.666H46.7891V62.3327H50.4557V58.666Z" fill="#A9ADB7"/>
</svg>
