<svg width="111" height="92" viewBox="0 0 111 92" fill="none" xmlns="http://www.w3.org/2000/svg">
<path d="M29.8024 88H25.6667V91.6667H42.1667V88H33.6311L38.0309 73.3333H42.1667V69.6667H7.33333C5.30843 69.6667 3.66667 68.0249 3.66667 66V62.3333H42.1667V58.6667H3.66667V7.33333C3.66667 5.30843 5.30843 3.66667 7.33333 3.66667H84.3333C86.3582 3.66667 88 5.30843 88 7.33333V22H91.6667V7.33333C91.6667 3.28353 88.3831 0 84.3333 0H7.33333C3.28353 0 0 3.28353 0 7.33333V66C0 70.0498 3.28353 73.3333 7.33333 73.3333H34.2022L29.8024 88Z" fill="#A9ADB7"/>
<path d="M80.6654 18.3346V22.0013H84.332V16.5013C84.332 15.4889 83.5111 14.668 82.4987 14.668H9.16536C8.15291 14.668 7.33203 15.4889 7.33203 16.5013V38.5013C7.33203 39.5138 8.15291 40.3346 9.16536 40.3346H42.1654V36.668H10.9987V18.3346H80.6654Z" fill="#A9ADB7"/>
<path d="M31.1654 55V45.8333C31.1654 44.8209 30.3445 44 29.332 44H9.16536C8.15291 44 7.33203 44.8209 7.33203 45.8333V55H10.9987V47.6667H27.4987V55H31.1654Z" fill="#A9ADB7"/>
<path d="M34.832 45.8333V55H38.4987V47.6667H42.1654V44H36.6654C35.6529 44 34.832 44.8209 34.832 45.8333Z" fill="#A9ADB7"/>
<path d="M7.33203 7.33398H10.9987V11.0007H7.33203V7.33398Z" fill="#A9ADB7"/>
<path d="M14.668 7.33398H18.3346V11.0007H14.668V7.33398Z" fill="#A9ADB7"/>
<path d="M22 7.33398H25.6667V11.0007H22V7.33398Z" fill="#A9ADB7"/>
<path d="M97.1654 40.3346V31.168C97.1654 28.1306 94.7027 25.668 91.6654 25.668H51.332C48.2947 25.668 45.832 28.1306 45.832 31.168V86.168C45.832 89.2053 48.2947 91.668 51.332 91.668H76.9987V88.0013H51.332C50.3196 88.0013 49.4987 87.1804 49.4987 86.168V84.3346H76.9987V80.668H49.4987V31.168C49.4987 30.1555 50.3196 29.3346 51.332 29.3346H91.6654C92.6778 29.3346 93.4987 30.1555 93.4987 31.168V40.3346H97.1654Z" fill="#C97B00"/>
<path d="M55 33H60.5V36.6667H55V33Z" fill="#A9ADB7"/>
<path d="M64.168 33H69.668V36.6667H64.168V33Z" fill="#A9ADB7"/>
<path d="M73.332 33H78.832V36.6667H73.332V33Z" fill="#A9ADB7"/>
<path d="M82.5 33H88V36.6667H82.5V33Z" fill="#A9ADB7"/>
<path d="M56.8346 44.0007H80.668V40.334H55.0013C53.9889 40.334 53.168 41.1549 53.168 42.1673V55.0007C53.168 56.0131 53.9889 56.834 55.0013 56.834H77.0013V53.1673H56.8346V44.0007Z" fill="#C97B00"/>
<path d="M77.0013 64.1667V60.5H55.0013C53.9889 60.5 53.168 61.3209 53.168 62.3333V75.1667C53.168 76.1791 53.9889 77 55.0013 77H77.0013V73.3333H56.8346V64.1667H77.0013Z" fill="#C97B00"/>
<path d="M104.501 44H86.168C83.1306 44 80.668 46.4626 80.668 49.5V86.1667C80.668 89.204 83.1306 91.6667 86.168 91.6667H104.501C107.539 91.6667 110.001 89.204 110.001 86.1667V49.5C110.001 46.4626 107.539 44 104.501 44ZM106.335 86.1667C106.335 87.1791 105.514 88 104.501 88H86.168C85.1555 88 84.3346 87.1791 84.3346 86.1667V84.3333H106.335V86.1667ZM106.335 80.6667H84.3346V49.5C84.3346 48.4875 85.1555 47.6667 86.168 47.6667H104.501C105.514 47.6667 106.335 48.4875 106.335 49.5V80.6667Z" fill="#C97B00"/>
<path d="M100.833 51.334H89.8333C88.8209 51.334 88 52.1549 88 53.1673V60.5007C88 61.5131 88.8209 62.334 89.8333 62.334H100.833C101.846 62.334 102.667 61.5131 102.667 60.5007V53.1673C102.667 52.1549 101.846 51.334 100.833 51.334ZM99 58.6673H91.6667V55.0007H99V58.6673Z" fill="#C97B00"/>
<path d="M100.833 66H89.8333C88.8209 66 88 66.8209 88 67.8333V75.1667C88 76.1791 88.8209 77 89.8333 77H100.833C101.846 77 102.667 76.1791 102.667 75.1667V67.8333C102.667 66.8209 101.846 66 100.833 66ZM99 73.3333H91.6667V69.6667H99V73.3333Z" fill="#C97B00"/>
</svg>
