<svg width="70" height="110" viewBox="0 0 70 110" fill="none" xmlns="http://www.w3.org/2000/svg">
<path d="M34.7031 5.80078H27.541C26.6509 5.80078 25.9297 6.52201 25.9297 7.41211C25.9297 8.30221 26.6509 9.02345 27.541 9.02345H34.7031C35.5932 9.02345 36.3144 8.30221 36.3144 7.41211C36.3144 6.52201 35.5932 5.80078 34.7031 5.80078Z" fill="#A9ADB7"/>
<path d="M42.3 7.09895C42.2785 6.99582 42.2485 6.89248 42.2076 6.79602C42.1668 6.69934 42.1174 6.60459 42.0594 6.51887C42.0014 6.43078 41.9348 6.34699 41.8596 6.27373C41.4858 5.89776 40.9293 5.72588 40.4051 5.8333C40.302 5.85264 40.201 5.88486 40.1043 5.92354C40.0076 5.96436 39.9131 6.01377 39.825 6.07178C39.7369 6.13194 39.6553 6.19854 39.5799 6.27352C39.5068 6.34678 39.4383 6.43035 39.3801 6.51865C39.3221 6.60438 39.2727 6.69912 39.232 6.7958C39.1932 6.89227 39.1611 6.99561 39.1394 7.09873C39.1201 7.20164 39.1094 7.30713 39.1094 7.41241C39.1094 7.83758 39.2812 8.25223 39.5797 8.55108C39.6551 8.62628 39.7365 8.69288 39.8248 8.75282C39.9133 8.81104 40.0076 8.86024 40.1043 8.90128C40.201 8.93995 40.302 8.97218 40.4051 8.99151C40.5102 9.013 40.6154 9.02374 40.7209 9.02374C40.8264 9.02374 40.9313 9.01278 41.0346 8.99151C41.1375 8.97218 41.2387 8.93995 41.3375 8.90128C41.4342 8.86046 41.5266 8.81104 41.6147 8.75303C41.7028 8.69309 41.7844 8.62628 41.8596 8.5513C42.1604 8.25245 42.3322 7.83801 42.3322 7.41262C42.3322 7.30735 42.3215 7.20207 42.3 7.09895Z" fill="#A9ADB7"/>
<path d="M43.0263 51.935C42.3551 51.3509 41.3372 51.4211 40.7528 52.0925L33.7654 60.1217L31.1287 56.8459C30.5703 56.1526 29.556 56.043 28.8627 56.601C28.1694 57.1592 28.06 58.1734 28.6178 58.867L32.4618 63.6423C33.0908 64.4235 34.274 64.4462 34.9327 63.6898L43.1838 54.2083C43.7684 53.5369 43.6977 52.5192 43.0263 51.935Z" fill="#C97B00"/>
<path d="M26.3838 89.0117H26.3301C25.44 89.0117 24.7188 89.733 24.7188 90.6231C24.7188 91.5132 25.44 92.2344 26.3301 92.2344H26.3838C27.2739 92.2344 27.9951 91.5132 27.9951 90.6231C27.9951 89.733 27.2739 89.0117 26.3838 89.0117Z" fill="#C97B00"/>
<path d="M32.918 90.624C32.918 91.5141 33.6392 92.2354 34.5293 92.2354H34.6457C35.5358 92.2354 36.2571 91.5141 36.2571 90.624C36.2571 88.4758 32.918 88.4728 32.918 90.624Z" fill="#C97B00"/>
<path d="M42.8486 89.0117H42.7949C41.9048 89.0117 41.1836 89.733 41.1836 90.6231C41.1836 91.5132 41.9048 92.2344 42.7949 92.2344H42.8486C43.7387 92.2344 44.46 91.5132 44.46 90.6231C44.46 89.733 43.7389 89.0117 42.8486 89.0117Z" fill="#C97B00"/>
<path d="M49.7719 23.7285H19.6387C18.7486 23.7285 18.0273 24.4497 18.0273 25.3398C18.0273 26.2299 18.7486 26.9512 19.6387 26.9512H49.7721C50.6622 26.9512 51.3834 26.2299 51.3834 25.3398C51.3834 24.4497 50.6622 23.7285 49.7719 23.7285Z" fill="#C97B00"/>
<path d="M49.7719 31.4629H19.6387C18.7486 31.4629 18.0273 32.1841 18.0273 33.0742C18.0273 33.9643 18.7486 34.6856 19.6387 34.6856H49.7721C50.6622 34.6856 51.3834 33.9643 51.3834 33.0742C51.3834 32.1841 50.6622 31.4629 49.7719 31.4629Z" fill="#C97B00"/>
<path d="M45.6585 39.7334H23.753C19.7807 39.7334 16.5488 42.9653 16.5488 46.9378V68.8431C16.5488 72.8155 19.7807 76.0474 23.753 76.0474H39.0914C39.9814 76.0474 40.7027 75.3262 40.7027 74.4361C40.7027 73.546 39.9814 72.8248 39.0914 72.8248H23.753C21.5575 72.8248 19.7717 71.0388 19.7717 68.8433V46.9378C19.7717 44.7423 21.5579 42.9563 23.753 42.9563H45.6585C47.854 42.9563 49.64 44.7425 49.64 46.9378V68.8431C49.64 70.7522 48.2197 72.4378 46.3357 72.7648C45.4589 72.9169 44.8715 73.7512 45.0236 74.6282C45.1757 75.5052 46.01 76.0921 46.887 75.9402C50.3498 75.3393 52.8631 72.3547 52.8631 68.8431V46.9378C52.8629 42.9653 49.631 39.7334 45.6585 39.7334Z" fill="#C97B00"/>
<path d="M67.5724 88.4741C68.4625 88.4741 69.1837 87.7529 69.1837 86.8628V10.624C69.1837 4.76589 64.4178 0 58.5594 0H10.624C4.76568 0 0 4.76589 0 10.624V99.376C0 105.234 4.76589 110 10.624 110H58.5597C64.418 110 69.1839 105.234 69.1839 99.376V94.3828C69.1839 93.4927 68.4627 92.7714 67.5726 92.7714C66.6825 92.7714 65.9613 93.4927 65.9613 94.3828V99.376C65.9613 103.457 62.641 106.777 58.5599 106.777H10.624C6.54308 106.777 3.22288 103.457 3.22288 99.376V10.624C3.22288 6.54308 6.54308 3.22288 10.624 3.22288H58.5597C62.6408 3.22288 65.961 6.54308 65.961 10.624V86.8626C65.961 87.7529 66.6825 88.4741 67.5724 88.4741Z" fill="#A9ADB7"/>
<path d="M58.5592 5.80078H50.1459C48.2628 5.80078 46.731 7.33262 46.731 9.21573V10.7961C46.731 11.3201 46.2882 11.7629 45.7642 11.7629H23.4189C22.8949 11.7629 22.4521 11.3201 22.4521 10.7961V9.1936C22.4521 7.32274 20.9303 5.80078 19.0595 5.80078H10.6236C7.96405 5.80078 5.80078 7.96448 5.80078 10.6236V21.5787C5.80078 22.4688 6.52201 23.1901 7.41211 23.1901C8.30221 23.1901 9.02345 22.4688 9.02345 21.5787V10.6236C9.02345 9.74145 9.74124 9.02366 10.6234 9.02366H19.0592C19.3684 9.02366 19.1718 9.46452 19.229 10.7961C19.229 13.1063 21.1086 14.9858 23.4186 14.9858H45.7637C48.074 14.9858 49.9534 13.1061 49.9534 10.7961V9.21573C49.9534 9.10981 50.0393 9.02366 50.1455 9.02366H58.5588C59.4411 9.02366 60.1589 9.74145 60.1589 10.6238V99.3753C60.1589 100.258 59.4411 100.975 58.5588 100.975H10.6238C9.74145 100.975 9.02366 100.258 9.02366 99.3755V29.0989C9.02344 28.2088 8.30221 27.4876 7.41211 27.4876C6.52201 27.4876 5.80078 28.2088 5.80078 29.0989V99.3757C5.80078 102.035 7.96448 104.199 10.6238 104.199H58.5594C61.219 104.199 63.3825 102.035 63.3825 99.3755V10.6238C63.3822 7.96426 61.2185 5.80078 58.5592 5.80078Z" fill="#A9ADB7"/>
</svg>
