<svg width="106" height="118" viewBox="0 0 106 118" fill="none" xmlns="http://www.w3.org/2000/svg">
<path d="M30.3224 21V84.8596M30.3224 84.8596H86.7866M30.3224 84.8596L20.9395 99" stroke="#A9ADB7" stroke-width="3.5"/>
<path d="M30.3232 15L25.9931 22.5H34.6534L30.3232 15ZM91.7759 84.8596L84.2759 80.5295V89.1898L91.7759 84.8596ZM17.9473 103L25.751 99.2448L18.5971 94.3642L17.9473 103ZM29.5732 21.75V84.8596H31.0732V21.75H29.5732ZM30.3232 85.6096H85.0259V84.1096H30.3232V85.6096ZM29.7037 84.437L21.1318 97.0014L22.3709 97.8467L30.9428 85.2823L29.7037 84.437Z" fill="#A9ADB7"/>
<path d="M96.1927 83.8116L93.4963 79.8296C93.0466 79.1655 93.5225 78.2688 94.3246 78.2689L95.2449 78.2691C95.577 78.2692 95.8874 78.4341 96.0733 78.7092L97.6592 81.0562C98.0562 81.6436 98.9214 81.6429 99.3173 81.0548L100.896 78.7101C101.082 78.4341 101.393 78.2686 101.725 78.2686H102.661C103.463 78.2686 103.939 79.1651 103.489 79.8291L100.793 83.8118C100.564 84.15 100.564 84.5935 100.793 84.9319L103.658 89.1757C104.107 89.8399 103.631 90.7353 102.829 90.7353H101.914C101.583 90.7353 101.273 90.5714 101.087 90.2975L99.3198 87.6974C98.922 87.1123 98.0591 87.1139 97.6636 87.7006L95.9149 90.2944C95.729 90.5701 95.4183 90.7353 95.0857 90.7353H94.1557C93.3542 90.7353 92.8784 89.8397 93.327 89.1756L96.1933 84.9321C96.422 84.5935 96.4218 84.1499 96.1927 83.8116Z" fill="#A9ADB7"/>
<path d="M28.8541 6.96737L25.3598 1.54143C24.9313 0.875958 25.4091 0 26.2006 0H27.2515C27.5963 0 27.9168 0.177648 28.0996 0.470068L29.734 3.08563C30.1257 3.71243 31.0385 3.71238 31.4301 3.08554L33.0641 0.47016C33.2468 0.177688 33.5673 0 33.9122 0H34.9715C35.7631 0 36.2409 0.876016 35.8123 1.54148L32.3176 6.96735C32.2136 7.1288 32.1583 7.31679 32.1583 7.50883V11.4668C32.1583 12.0191 31.7106 12.4668 31.1583 12.4668H30.0133C29.4611 12.4668 29.0133 12.0191 29.0133 11.4668V7.5088C29.0133 7.31677 28.9581 7.12881 28.8541 6.96737Z" fill="#A9ADB7"/>
<path d="M6.65668 106.43V106C6.65668 105.448 7.1044 105 7.65668 105H15.6542C16.2065 105 16.6542 105.448 16.6542 106V106.599C16.6542 106.823 16.5786 107.041 16.4395 107.218L11.5505 113.419C11.0334 114.074 11.5006 115.038 12.3358 115.038H15.8376C16.3899 115.038 16.8376 115.485 16.8376 116.038V116.467C16.8376 117.019 16.3899 117.467 15.8376 117.467H7.47266C6.92037 117.467 6.47266 117.019 6.47266 116.467V115.868C6.47266 115.644 6.54835 115.425 6.68752 115.249L11.5775 109.05C12.0949 108.394 11.6277 107.43 10.7924 107.43H7.65668C7.1044 107.43 6.65668 106.983 6.65668 106.43Z" fill="#A9ADB7"/>
<path fill-rule="evenodd" clip-rule="evenodd" d="M32.1759 27.0957C32.3762 26.7641 32.7318 26.5583 33.1185 26.5503L43.2115 26.3403C43.835 26.3273 44.351 26.8234 44.3639 27.4484C44.3768 28.0733 43.8819 28.5905 43.2584 28.6035L33.7863 28.8005L28.8799 36.9241C28.557 37.4588 27.8627 37.6299 27.3292 37.3062C26.7956 36.9825 26.625 36.2866 26.9479 35.7518L32.1759 27.0957ZM18.6451 54.6209C18.968 54.0862 18.7974 53.3902 18.2639 53.0665C17.7303 52.7428 17.036 52.9139 16.7131 53.4486L11.5006 62.0792C11.4033 62.2309 11.3413 62.4073 11.3258 62.5965C11.307 62.8226 11.356 63.0533 11.4732 63.2568L17.0017 72.8546C17.3135 73.396 18.0041 73.5815 18.5442 73.2689C19.0843 72.9564 19.2694 72.2641 18.9575 71.7228L14.3835 63.782L22.5677 63.6117C23.1912 63.5988 23.6862 63.0816 23.6733 62.4566C23.6603 61.8317 23.1444 61.3356 22.5208 61.3485L14.4808 61.5158L18.6451 54.6209ZM27.8025 87.0778C27.4907 86.5365 26.8001 86.351 26.26 86.6635C25.7199 86.9761 25.5348 87.6683 25.8466 88.2096L31.3751 97.8075C31.581 98.165 31.9648 98.3817 32.3765 98.3732L42.4695 98.1632C43.093 98.1502 43.588 97.633 43.575 97.0081C43.5621 96.3831 43.0461 95.887 42.4226 95.9L32.9971 96.0961L27.8025 87.0778ZM63.6177 26.3045C62.9942 26.3175 62.4992 26.8346 62.5122 27.4596C62.5251 28.0846 63.0411 28.5807 63.6646 28.5677L71.7046 28.4004L67.5403 35.2953C67.2174 35.8301 67.3881 36.526 67.9216 36.8497C68.4551 37.1734 69.1494 37.0024 69.4724 36.4676L73.711 29.4496L78.2847 37.3899C78.5965 37.9312 79.2871 38.1167 79.8272 37.8041C80.3673 37.4916 80.5524 36.7994 80.2406 36.258L74.7313 26.6935C74.6389 26.5192 74.4998 26.3668 74.3191 26.2571C74.1154 26.1335 73.8882 26.082 73.6672 26.0954L63.6177 26.3045ZM87.543 51.1999C88.0831 50.8873 88.7737 51.0728 89.0855 51.6141L94.614 61.212C94.8184 61.5668 94.8155 62.0045 94.6065 62.3566L89.4228 71.0895C89.1039 71.6267 88.4109 71.8031 87.875 71.4835C87.339 71.1639 87.163 70.4693 87.4819 69.9321L92.3272 61.7693L87.1297 52.746C86.8178 52.2046 87.0029 51.5124 87.543 51.1999ZM62.8303 95.8653C62.2068 95.8783 61.7119 96.3954 61.7248 97.0204C61.7377 97.6454 62.2537 98.1415 62.8772 98.1285L72.9702 97.9185C73.3569 97.9105 73.7125 97.7047 73.9128 97.3731L79.1407 88.7169C79.4637 88.1822 79.293 87.4863 78.7595 87.1626C78.226 86.8388 77.5317 87.0099 77.2087 87.5447L72.9693 94.564L68.3949 86.6224C68.0831 86.0811 67.3925 85.8956 66.8524 86.2081C66.3123 86.5207 66.1272 87.2129 66.439 87.7543L71.013 95.6951L62.8303 95.8653Z" fill="#A9ADB7" stroke="#A9ADB7" stroke-width="1.5" stroke-linecap="round" stroke-linejoin="round"/>
<path d="M28.4336 44.9453C28.4336 44.393 28.8813 43.9453 29.4336 43.9453H42.6484C44.5333 43.9453 46.3411 44.7334 47.674 46.1362C49.0069 47.539 49.7557 49.4415 49.7557 51.4254V73.8656C49.7557 75.8495 49.0069 77.752 47.674 79.1548C46.3411 80.5576 44.5333 81.3457 42.6484 81.3457H29.4336C28.8813 81.3457 28.4336 80.898 28.4336 80.3457V74.8656C28.4336 74.3133 28.8813 73.8656 29.4336 73.8656H41.6484C42.2006 73.8656 42.6484 73.4179 42.6484 72.8656V67.3855C42.6484 66.8333 42.2006 66.3855 41.6484 66.3855H32.9873C32.435 66.3855 31.9873 65.9378 31.9873 65.3855V59.9055C31.9873 59.3532 32.435 58.9055 32.9873 58.9055H41.6484C42.2006 58.9055 42.6484 58.4577 42.6484 57.9055V52.4254C42.6484 51.8731 42.2006 51.4254 41.6484 51.4254H29.4336C28.8813 51.4254 28.4336 50.9777 28.4336 50.4254V44.9453ZM56.8631 44.9453C56.8631 44.393 57.3108 43.9453 57.8631 43.9453H67.5242C70.3517 43.9453 73.0634 45.1274 75.0627 47.2316C77.062 49.3358 78.1852 52.1897 78.1852 55.1654V70.1256C78.1852 73.1013 77.062 75.9552 75.0627 78.0594C73.0634 80.1636 70.3517 81.3457 67.5242 81.3457H57.8631C57.3108 81.3457 56.8631 80.898 56.8631 80.3457V44.9453ZM67.5242 73.8656C68.4667 73.8656 69.3706 73.4716 70.037 72.7702C70.7035 72.0688 71.0779 71.1175 71.0779 70.1256V55.1654C71.0779 54.1735 70.7035 53.2222 70.037 52.5208C69.3706 51.8194 68.4667 51.4254 67.5242 51.4254H64.9705C64.4182 51.4254 63.9705 51.8731 63.9705 52.4254V72.8656C63.9705 73.4179 64.4182 73.8656 64.9705 73.8656H67.5242Z" fill="#C97B00"/>
</svg>
