<svg width="108" height="88" viewBox="0 0 108 88" fill="none" xmlns="http://www.w3.org/2000/svg">
<path d="M100.645 0H7.83203C6.0094 0.00238751 4.2621 0.727482 2.97331 2.01628C1.68451 3.30507 0.959419 5.05237 0.957031 6.875V65.3125C0.959419 67.1351 1.68451 68.8824 2.97331 70.1712C4.2621 71.46 6.0094 72.1851 7.83203 72.1875H43.2598L40.9674 79.0625H35.332C34.8762 79.0625 34.439 79.2436 34.1167 79.5659C33.7944 79.8882 33.6133 80.3254 33.6133 80.7812V84.2188H18.1445C17.6887 84.2188 17.2515 84.3998 16.9292 84.7222C16.6069 85.0445 16.4258 85.4817 16.4258 85.9375C16.4258 86.3933 16.6069 86.8305 16.9292 87.1528C17.2515 87.4752 17.6887 87.6562 18.1445 87.6562H93.7695C94.2254 87.6562 94.6625 87.4752 94.9849 87.1528C95.3072 86.8305 95.4883 86.3933 95.4883 85.9375C95.4883 85.4817 95.3072 85.0445 94.9849 84.7222C94.6625 84.3998 94.2254 84.2188 93.7695 84.2188H74.8633V80.7812C74.8633 80.3254 74.6822 79.8882 74.3599 79.5659C74.0375 79.2436 73.6004 79.0625 73.1445 79.0625H67.5092L65.2168 72.1875H100.645C102.467 72.1851 104.214 71.46 105.503 70.1712C106.792 68.8824 107.517 67.1351 107.52 65.3125V6.875C107.517 5.05237 106.792 3.30507 105.503 2.01628C104.214 0.727482 102.467 0.00238751 100.645 0ZM71.4258 82.5V84.2188H37.0508V82.5H71.4258ZM44.5918 79.0625L46.8842 72.1875H61.5924L63.8848 79.0625H44.5918ZM104.082 65.3125C104.081 66.2238 103.718 67.0975 103.074 67.7419C102.429 68.3863 101.556 68.7488 100.645 68.75H7.83203C6.92072 68.7488 6.04707 68.3863 5.40267 67.7419C4.75827 67.0975 4.39573 66.2238 4.39453 65.3125V61.875H104.082V65.3125ZM30.1027 42.9688L29.4582 58.4375H27.4559L26.8113 42.9688H30.1027ZM27.0477 39.5312L28.1949 32.6562H28.7191L29.8664 39.5312H27.0477ZM28.457 29.2188C26.5943 29.2188 25.0195 26.8576 25.0195 24.0625C25.0195 22.2986 26.8199 19.7355 28.4527 17.9287C29.9244 19.5615 31.8945 22.1719 31.8945 24.0625C31.8945 26.8576 30.3197 29.2188 28.457 29.2188ZM47.1613 25.7812L47.3633 26.1873V27.5H40.4883V26.1873L40.6902 25.7812H47.1613ZM42.409 22.3438L43.9258 19.3123L45.4426 22.3438H42.409ZM47.3633 30.9375V58.2227C47.3639 58.2945 47.369 58.3663 47.3783 58.4375H40.4732C40.4826 58.3663 40.4876 58.2945 40.4883 58.2227V30.9375H47.3633ZM62.832 24.0625H67.9883V27.5H66.2695C65.8137 27.5 65.3765 27.6811 65.0542 28.0034C64.7319 28.3257 64.5508 28.7629 64.5508 29.2188C64.5508 29.6746 64.7319 30.1118 65.0542 30.4341C65.3765 30.7564 65.8137 30.9375 66.2695 30.9375H67.9883V34.375H62.832C62.3762 34.375 61.939 34.5561 61.6167 34.8784C61.2944 35.2007 61.1133 35.6379 61.1133 36.0938C61.1133 36.5496 61.2944 36.9868 61.6167 37.3091C61.939 37.6314 62.3762 37.8125 62.832 37.8125H67.9883V41.25H66.2695C65.8137 41.25 65.3765 41.4311 65.0542 41.7534C64.7319 42.0757 64.5508 42.5129 64.5508 42.9688C64.5508 43.4246 64.7319 43.8618 65.0542 44.1841C65.3765 44.5064 65.8137 44.6875 66.2695 44.6875H67.9883V48.125H62.832C62.3762 48.125 61.939 48.3061 61.6167 48.6284C61.2944 48.9507 61.1133 49.3879 61.1133 49.8438C61.1133 50.2996 61.2944 50.7368 61.6167 51.0591C61.939 51.3814 62.3762 51.5625 62.832 51.5625H67.9883V58.4375H55.957V17.1875H67.9883V20.625H62.832C62.3762 20.625 61.939 20.8061 61.6167 21.1284C61.2944 21.4507 61.1133 21.8879 61.1133 22.3438C61.1133 22.7996 61.2944 23.2368 61.6167 23.5591C61.939 23.8814 62.3762 24.0625 62.832 24.0625ZM83.457 44.6875V58.2227C83.4577 58.2945 83.4627 58.3663 83.4721 58.4375H76.567C76.5763 58.3663 76.5814 58.2945 76.582 58.2227V44.6875H83.457ZM76.582 41.25V39.9373L80.0195 33.0623L83.457 39.9373V41.25H76.582ZM104.082 58.4375H86.8795C86.8888 58.3663 86.8939 58.2945 86.8945 58.2227V39.5312C86.8943 39.2644 86.8325 39.0012 86.7141 38.7621L81.5578 28.4496C81.4148 28.1642 81.1951 27.9242 80.9234 27.7565C80.6518 27.5888 80.3388 27.4999 80.0195 27.4999C79.7003 27.4999 79.3873 27.5888 79.1156 27.7565C78.844 27.9242 78.6243 28.1642 78.4812 28.4496L73.325 38.7621C73.2065 39.0012 73.1448 39.2644 73.1445 39.5312V58.2227C73.1452 58.2945 73.1502 58.3663 73.1596 58.4375H71.4258V15.4688C71.4258 15.0129 71.2447 14.5757 70.9224 14.2534C70.6 13.9311 70.1629 13.75 69.707 13.75H54.2383C53.7824 13.75 53.3453 13.9311 53.0229 14.2534C52.7006 14.5757 52.5195 15.0129 52.5195 15.4688V58.4375H50.7857C50.7951 58.3663 50.8001 58.2945 50.8008 58.2227V25.7812C50.8005 25.5144 50.7388 25.2512 50.6203 25.0121L45.4641 14.6996C45.321 14.4142 45.1014 14.1742 44.8297 14.0065C44.558 13.8388 44.245 13.7499 43.9258 13.7499C43.6065 13.7499 43.2935 13.8388 43.0219 14.0065C42.7502 14.1742 42.5306 14.4142 42.3875 14.6996L37.2313 25.0121C37.1128 25.2512 37.051 25.5144 37.0508 25.7812V58.2227C37.0514 58.2945 37.0565 58.3663 37.0658 58.4375H32.8979L33.6111 41.3209C33.6133 41.2822 33.6111 41.2436 33.6111 41.2027V41.1512C33.6072 41.0907 33.6 41.0304 33.5896 40.9707V40.9664L31.9998 31.4252C33.9957 29.9191 35.332 27.182 35.332 24.0625C35.332 19.6453 30.2123 14.7533 29.6279 14.2098C29.3095 13.9146 28.8913 13.7506 28.457 13.7506C28.0228 13.7506 27.6046 13.9146 27.2861 14.2098C26.7018 14.7533 21.582 19.6453 21.582 24.0625C21.582 27.182 22.9184 29.9191 24.9143 31.4252L23.3244 40.9664V40.9707C23.3141 41.0304 23.3069 41.0907 23.3029 41.1512V41.2027C23.3029 41.2436 23.3008 41.2822 23.3029 41.3209L24.0162 58.4375H4.39453V6.875C4.39573 5.96369 4.75827 5.09004 5.40267 4.44564C6.04707 3.80124 6.92072 3.43869 7.83203 3.4375H100.645C101.556 3.43869 102.429 3.80124 103.074 4.44564C103.718 5.09004 104.081 5.96369 104.082 6.875V58.4375Z" fill="#A9ADB7"/>
<path d="M19.8633 63.5938H9.55078C9.09494 63.5938 8.65777 63.7748 8.33544 64.0972C8.01311 64.4195 7.83203 64.8567 7.83203 65.3125C7.83203 65.7683 8.01311 66.2055 8.33544 66.5278C8.65777 66.8502 9.09494 67.0312 9.55078 67.0312H19.8633C20.3191 67.0312 20.7563 66.8502 21.0786 66.5278C21.4009 66.2055 21.582 65.7683 21.582 65.3125C21.582 64.8567 21.4009 64.4195 21.0786 64.0972C20.7563 63.7748 20.3191 63.5938 19.8633 63.5938Z" fill="#C97B00"/>
<path d="M26.7383 63.5938H25.0195C24.5637 63.5938 24.1265 63.7748 23.8042 64.0972C23.4819 64.4195 23.3008 64.8567 23.3008 65.3125C23.3008 65.7683 23.4819 66.2055 23.8042 66.5278C24.1265 66.8502 24.5637 67.0312 25.0195 67.0312H26.7383C27.1941 67.0312 27.6313 66.8502 27.9536 66.5278C28.276 66.2055 28.457 65.7683 28.457 65.3125C28.457 64.8567 28.276 64.4195 27.9536 64.0972C27.6313 63.7748 27.1941 63.5938 26.7383 63.5938Z" fill="#C97B00"/>
<path d="M43.9258 32.6562C43.4699 32.6562 43.0328 32.8373 42.7104 33.1597C42.3881 33.482 42.207 33.9192 42.207 34.375V53.2812C42.207 53.7371 42.3881 54.1743 42.7104 54.4966C43.0328 54.8189 43.4699 55 43.9258 55C44.3816 55 44.8188 54.8189 45.1411 54.4966C45.4635 54.1743 45.6445 53.7371 45.6445 53.2812V34.375C45.6445 33.9192 45.4635 33.482 45.1411 33.1597C44.8188 32.8373 44.3816 32.6562 43.9258 32.6562Z" fill="#A9ADB7"/>
<path d="M80.0195 46.4062C79.5637 46.4062 79.1265 46.5873 78.8042 46.9097C78.4819 47.232 78.3008 47.6692 78.3008 48.125V53.2812C78.3008 53.7371 78.4819 54.1743 78.8042 54.4966C79.1265 54.8189 79.5637 55 80.0195 55C80.4754 55 80.9125 54.8189 81.2349 54.4966C81.5572 54.1743 81.7383 53.7371 81.7383 53.2812V48.125C81.7383 47.6692 81.5572 47.232 81.2349 46.9097C80.9125 46.5873 80.4754 46.4062 80.0195 46.4062Z" fill="#C97B00"/>
<path d="M9.55078 10.3125H23.3008C23.7566 10.3125 24.1938 10.1314 24.5161 9.80909C24.8384 9.48676 25.0195 9.04959 25.0195 8.59375C25.0195 8.13791 24.8384 7.70074 24.5161 7.37841C24.1938 7.05608 23.7566 6.875 23.3008 6.875H9.55078C9.09494 6.875 8.65777 7.05608 8.33544 7.37841C8.01311 7.70074 7.83203 8.13791 7.83203 8.59375C7.83203 9.04959 8.01311 9.48676 8.33544 9.80909C8.65777 10.1314 9.09494 10.3125 9.55078 10.3125Z" fill="#C97B00"/>
<path d="M9.55078 15.4688H12.9883C13.4441 15.4688 13.8813 15.2877 14.2036 14.9653C14.5259 14.643 14.707 14.2058 14.707 13.75C14.707 13.2942 14.5259 12.857 14.2036 12.5347C13.8813 12.2123 13.4441 12.0312 12.9883 12.0312H9.55078C9.09494 12.0312 8.65777 12.2123 8.33544 12.5347C8.01311 12.857 7.83203 13.2942 7.83203 13.75C7.83203 14.2058 8.01311 14.643 8.33544 14.9653C8.65777 15.2877 9.09494 15.4688 9.55078 15.4688Z" fill="#C97B00"/>
<path d="M92.0508 55H98.9258C99.3816 55 99.8188 54.8189 100.141 54.4966C100.463 54.1743 100.645 53.7371 100.645 53.2812C100.645 52.8254 100.463 52.3882 100.141 52.0659C99.8188 51.7436 99.3816 51.5625 98.9258 51.5625H92.0508C91.5949 51.5625 91.1578 51.7436 90.8354 52.0659C90.5131 52.3882 90.332 52.8254 90.332 53.2812C90.332 53.7371 90.5131 54.1743 90.8354 54.4966C91.1578 54.8189 91.5949 55 92.0508 55Z" fill="#C97B00"/>
<path d="M97.207 49.8438H98.9258C99.3816 49.8438 99.8188 49.6627 100.141 49.3403C100.463 49.018 100.645 48.5808 100.645 48.125C100.645 47.6692 100.463 47.232 100.141 46.9097C99.8188 46.5873 99.3816 46.4062 98.9258 46.4062H97.207C96.7512 46.4062 96.314 46.5873 95.9917 46.9097C95.6694 47.232 95.4883 47.6692 95.4883 48.125C95.4883 48.5808 95.6694 49.018 95.9917 49.3403C96.314 49.6627 96.7512 49.8438 97.207 49.8438Z" fill="#C97B00"/>
</svg>
