<svg width="110" height="110" viewBox="0 0 110 110" fill="none" xmlns="http://www.w3.org/2000/svg">
<path d="M59.8018 109.999C58.9078 109.999 58.183 109.18 58.183 108.169V103.305C58.183 102.608 57.6814 102.042 57.065 102.042H52.719C52.1025 102.042 51.6009 102.608 51.6009 103.305V108.169C51.6009 109.18 50.8761 109.999 49.9821 109.999C49.0881 109.999 48.3633 109.18 48.3633 108.169V103.305C48.3633 100.591 50.3173 98.3828 52.719 98.3828H57.065C59.4666 98.3828 61.4206 100.591 61.4206 103.305V108.169C61.4206 109.18 60.6961 109.999 59.8018 109.999Z" fill="#A9ADB7"/>
<path d="M70.4552 43.1282C69.9234 42.3162 68.9096 42.1457 68.1908 42.7465C67.4723 43.3477 67.3212 44.4934 67.853 45.3054L75.8916 57.5744C76.7859 58.9391 76.7211 60.9946 75.7444 62.2541L67.0838 73.4231H42.698L34.0373 62.2541C33.0606 60.9946 32.9959 58.9391 33.8901 57.5744L49.8497 33.2158V47.0955C47.8266 48.8526 46.644 51.54 46.644 54.4733C46.644 59.6121 50.3435 63.7927 54.8909 63.7927C59.4382 63.7927 63.1378 59.6121 63.1378 54.4733C63.1378 51.672 62.0346 49.056 60.1479 47.2938V33.5454L63.7026 38.9707C64.2347 39.7829 65.2485 39.9534 65.967 39.3524C66.6856 38.7512 66.8366 37.6055 66.3048 36.7936L59.3612 26.1955C58.2681 24.5272 56.6388 23.5703 54.8911 23.5703C53.1434 23.5703 51.514 24.5272 50.421 26.1955L31.2881 55.3975C29.4938 58.1362 29.6289 62.1205 31.6026 64.6657L38.8253 73.98C37.0217 74.9303 35.7681 76.9974 35.7681 79.3905V88.1179C35.7681 90.7897 37.3302 93.0569 39.4765 93.815L39.9181 108.234C39.9483 109.222 40.6667 110 41.535 110C41.554 110 41.573 110 41.592 109.999C42.4856 109.964 43.1847 109.117 43.1538 108.107L42.7243 94.0852H67.2737L66.8442 108.107C66.8133 109.117 67.5127 109.964 68.406 109.999C68.425 110 68.444 110 68.463 110C69.3311 110 70.0497 109.222 70.0799 108.234L70.5241 93.7313C72.5571 92.9008 74.014 90.6983 74.014 88.1179V79.3905C74.014 76.9974 72.7604 74.9303 70.9568 73.98L78.1796 64.6657C80.1532 62.1207 80.2883 58.1362 78.4941 55.3975L70.4552 43.1282ZM54.8909 27.2288C55.6122 27.2288 56.2757 27.6349 56.7588 28.3722L56.9103 28.6035V48.2131C56.9103 48.8285 57.1842 49.4029 57.6392 49.7412C59.0549 50.7939 59.9001 52.563 59.9001 54.4728C59.9001 57.5942 57.653 60.1336 54.8909 60.1336C52.1287 60.1336 49.8816 57.5942 49.8816 54.4728C49.8816 52.4725 50.7877 50.6597 52.3055 49.6234C52.7907 49.2921 53.0873 48.6982 53.0873 48.0577V28.2837C53.5643 27.6046 54.2002 27.2288 54.8909 27.2288ZM70.7764 88.1174C70.7764 89.3902 69.8599 90.4258 68.7337 90.4258H41.0483C39.9218 90.4258 39.0055 89.3902 39.0055 88.1174V79.39C39.0055 78.1172 39.922 77.0816 41.0483 77.0816H68.7337C69.8602 77.0816 70.7764 78.1172 70.7764 79.39V88.1174Z" fill="#C97B00"/>
<path d="M22.6767 43.6885C22.8893 37.8926 24.3158 32.218 26.8405 27.1895C27.2817 26.3107 27.0091 25.1943 26.2314 24.6957C25.4537 24.1969 24.4658 24.5052 24.0246 25.3841C21.2264 30.9567 19.6532 37.2487 19.4365 43.6707C16.6428 44.4734 14.5703 47.3391 14.5703 50.7424C14.5703 54.7655 17.4667 58.0386 21.0268 58.0386C24.5869 58.0386 27.4833 54.7655 27.4833 50.7424C27.4833 47.3635 25.4401 44.5146 22.6767 43.6885ZM21.0268 54.3799C19.2519 54.3799 17.8079 52.7481 17.8079 50.7424C17.8079 48.7367 19.2519 47.105 21.0268 47.105C22.8017 47.105 24.2456 48.7367 24.2456 50.7424C24.2456 52.7481 22.8017 54.3799 21.0268 54.3799Z" fill="#A9ADB7"/>
<path d="M106.572 0H101.37C99.4803 0 97.9426 1.73763 97.9426 3.87333V4.98338H61.0287V3.87333C61.0287 1.73763 59.491 0 57.6011 0H52.3989C50.509 0 48.9713 1.73763 48.9713 3.87333V4.98338H12.0574V3.87333C12.0574 1.73763 10.5197 0 8.6298 0H3.42757C1.53766 0 0 1.73763 0 3.87333V9.75212C0 11.8878 1.53766 13.6255 3.42757 13.6255H8.6298C10.5197 13.6255 12.0574 11.8878 12.0574 9.75212V8.64207H40.1594C35.6651 10.9749 31.6081 14.3635 28.2766 18.6403C27.6858 19.3986 27.7508 20.5545 28.4221 21.2221C28.7297 21.528 29.111 21.6785 29.4911 21.6785C29.9401 21.6785 30.3869 21.4687 30.7068 21.058C35.4937 14.9131 41.9245 10.7822 48.9713 9.27941V9.75236C48.9713 11.8881 50.509 13.6257 52.3989 13.6257H57.6011C59.491 13.6257 61.0287 11.8881 61.0287 9.75236V9.27917C75.7247 12.4083 86.7046 26.7297 87.3249 43.6894C84.5606 44.5148 82.5164 47.3642 82.5164 50.7438C82.5164 54.7669 85.4128 58.04 88.9729 58.04C92.533 58.04 95.4294 54.7669 95.4294 50.7438C95.4294 47.341 93.3571 44.4753 90.5636 43.6723C90.0463 28.2841 81.7756 14.8506 69.8415 8.64256H97.9426V9.7526C97.9426 11.8883 99.4803 13.6259 101.37 13.6259H106.572C108.462 13.6259 110 11.8883 110 9.7526V3.87333C110 1.73763 108.462 0 106.572 0ZM8.81974 9.75212C8.81974 9.87041 8.73448 9.96676 8.6298 9.96676H3.42757C3.32289 9.96676 3.23763 9.87041 3.23763 9.75212V3.87333C3.23763 3.75504 3.32289 3.65869 3.42757 3.65869H8.6298C8.73448 3.65869 8.81974 3.75504 8.81974 3.87333V9.75212ZM92.1917 50.7433C92.1917 52.749 90.7478 54.3808 88.9729 54.3808C87.198 54.3808 85.754 52.749 85.754 50.7433C85.754 48.7377 87.198 47.1059 88.9729 47.1059C90.7478 47.1059 92.1917 48.7377 92.1917 50.7433ZM57.7911 9.75212C57.7911 9.87041 57.7058 9.96676 57.6011 9.96676H52.3989C52.2942 9.96676 52.2089 9.87041 52.2089 9.75212V3.87333C52.2089 3.75504 52.2942 3.65869 52.3989 3.65869H57.6011C57.7058 3.65869 57.7911 3.75504 57.7911 3.87333V9.75212ZM106.762 9.75212C106.762 9.87041 106.677 9.96676 106.572 9.96676H101.37C101.266 9.96676 101.18 9.87041 101.18 9.75212V3.87333C101.18 3.75504 101.266 3.65869 101.37 3.65869H106.572C106.677 3.65869 106.762 3.75504 106.762 3.87333V9.75212Z" fill="#A9ADB7"/>
</svg>
