<svg width="104" height="104" viewBox="0 0 104 104" fill="none" xmlns="http://www.w3.org/2000/svg">
<path d="M101.406 65.3125H99.6875V1.71875C99.6875 1.26292 99.5064 0.825758 99.1841 0.503435C98.8617 0.181111 98.4246 2.22203e-05 97.9688 0H39.5312C39.0754 2.22203e-05 38.6383 0.181111 38.3159 0.503435C37.9936 0.825758 37.8125 1.26292 37.8125 1.71875V13.75H30.9375C30.4817 13.75 30.0445 13.9311 29.7222 14.2534C29.3999 14.5758 29.2188 15.0129 29.2188 15.4688V34.375H8.59375C8.13792 34.375 7.70076 34.5561 7.37844 34.8784C7.05611 35.2008 6.87502 35.6379 6.875 36.0938V44.6875C6.41917 44.6875 5.98201 44.8686 5.65969 45.1909C5.33736 45.5133 5.15627 45.9504 5.15625 46.4062V55H1.71875C1.26292 55 0.825758 55.1811 0.503435 55.5034C0.181111 55.8258 2.22203e-05 56.2629 0 56.7188V70.4688H3.4375V58.4375H5.15625V92.8125C5.15629 93.1518 5.25674 93.4835 5.44495 93.7659L8.88245 98.9221C9.03939 99.1576 9.25204 99.3506 9.5015 99.4841C9.75097 99.6176 10.0295 99.6875 10.3125 99.6875C10.5955 99.6875 10.874 99.6176 11.1235 99.4841C11.373 99.3506 11.5856 99.1576 11.7426 98.9221L15.1801 93.7659C15.3683 93.4835 15.4687 93.1518 15.4688 92.8125V82.5H29.2188V94.5312C29.2188 94.9871 29.3999 95.4242 29.7222 95.7466C30.0445 96.0689 30.4817 96.25 30.9375 96.25H48.125V101.406C48.125 101.862 48.3061 102.299 48.6284 102.622C48.9508 102.944 49.3879 103.125 49.8438 103.125H101.406C101.862 103.125 102.299 102.944 102.622 102.622C102.944 102.299 103.125 101.862 103.125 101.406V67.0312C103.125 66.5754 102.944 66.1383 102.622 65.8159C102.299 65.4936 101.862 65.3125 101.406 65.3125ZM97.9688 68.75L82.5 89.375C81.6995 90.4423 80.6615 91.3086 79.4682 91.9052C78.275 92.5019 76.9591 92.8125 75.625 92.8125C74.2909 92.8125 72.975 92.5019 71.7818 91.9052C70.5885 91.3086 69.5505 90.4423 68.75 89.375L53.2812 68.75H97.9688ZM41.25 3.4375H96.25V65.3125H91.0938V15.4688C91.0937 15.0129 90.9126 14.5758 90.5903 14.2534C90.268 13.9311 89.8308 13.75 89.375 13.75H41.25V3.4375ZM10.3125 37.8125H36.0938V53.2812H15.4688V46.4062C15.4687 45.9504 15.2876 45.5133 14.9653 45.1909C14.643 44.8686 14.2058 44.6875 13.75 44.6875H10.3125V37.8125ZM15.4688 60.1562V56.7188H29.2188V60.1562H15.4688ZM8.59375 48.125H12.0312V55H8.59375V48.125ZM10.3125 94.8703L8.59375 92.2922V58.4375H12.0312V92.2922L10.3125 94.8703ZM15.4688 63.5938H36.0938V79.0625H15.4688V63.5938ZM32.6562 92.8125V82.5H37.8125C38.2683 82.5 38.7055 82.3189 39.0278 81.9966C39.3501 81.6742 39.5312 81.2371 39.5312 80.7812V61.875C39.5312 61.4192 39.3501 60.982 39.0278 60.6597C38.7055 60.3374 38.2683 60.1563 37.8125 60.1562H32.6562V56.7188H37.8125C38.2683 56.7187 38.7055 56.5376 39.0278 56.2153C39.3501 55.893 39.5312 55.4558 39.5312 55V36.0938C39.5312 35.6379 39.3501 35.2008 39.0278 34.8784C38.7055 34.5561 38.2683 34.375 37.8125 34.375H32.6562V17.1875H87.6562V65.3125H49.8438C49.3879 65.3125 48.9508 65.4936 48.6284 65.8159C48.3061 66.1383 48.125 66.5754 48.125 67.0312V92.8125H32.6562ZM51.5625 99.6875V72.1876L65.9998 91.4374C67.1205 92.9317 68.5737 94.1445 70.2444 94.9798C71.915 95.8151 73.7572 96.25 75.625 96.25C77.4928 96.25 79.335 95.8151 81.0056 94.9798C82.6763 94.1445 84.1295 92.9317 85.2502 91.4374L99.6875 72.1876V99.6875H51.5625Z" fill="#A9ADB7"/>
<path d="M60.1562 63.5938C63.2752 63.6069 66.3382 62.7653 69.0126 61.1603C71.687 59.5554 73.8706 57.2484 75.3263 54.49C75.3797 54.4641 75.4333 54.4393 75.4865 54.4128L78.1125 53.0998C78.398 52.957 78.638 52.7376 78.8058 52.4661C78.9736 52.1946 79.0625 51.8817 79.0625 51.5625V41.25C79.0625 40.957 78.9877 40.6689 78.845 40.413C78.7023 40.1571 78.4966 39.9419 78.2474 39.7878C77.9981 39.6338 77.7136 39.5461 77.4209 39.5329C77.1283 39.5198 76.8371 39.5817 76.575 39.7127L76.0888 39.9559C74.8614 36.9254 72.7953 34.3079 70.1327 32.4103C67.4702 30.5127 64.3218 29.4138 61.0567 29.2424C57.7917 29.071 54.5455 29.8343 51.699 31.4428C48.8524 33.0512 46.5236 35.4381 44.9857 38.3233C44.9326 38.3492 44.8789 38.3733 44.826 38.3998L42.2 39.7127C41.9145 39.8555 41.6745 40.0749 41.5067 40.3464C41.3389 40.618 41.25 40.9308 41.25 41.25V51.5625C41.25 51.8555 41.3248 52.1436 41.4675 52.3996C41.6102 52.6555 41.8159 52.8707 42.0651 53.0247C42.3144 53.1787 42.5989 53.2665 42.8916 53.2796C43.1842 53.2927 43.4754 53.2308 43.7375 53.0998L44.2237 52.8566C45.5115 56.0272 47.715 58.742 50.5529 60.6544C53.3907 62.5669 56.7341 63.5902 60.1562 63.5938ZM60.1562 60.1563C57.3802 60.1535 54.6698 59.3117 52.3807 57.7412C50.0916 56.1708 48.3306 53.9451 47.3287 51.3562C49.2647 50.5818 51.3679 50.3205 53.4346 50.5975C55.5013 50.8746 57.4613 51.6806 59.125 52.9376C61.8214 54.9714 65.106 56.0732 68.4833 56.0767C68.9967 56.0767 69.5107 56.0496 70.0236 55.9983C68.7438 57.3203 67.21 58.37 65.5144 59.0845C63.8188 59.7991 61.9963 60.1636 60.1562 60.1563ZM60.1562 32.6563C62.9323 32.659 65.6426 33.5008 67.9318 35.0712C70.2209 36.6416 71.9819 38.8673 72.9837 41.4563C71.0477 42.2306 68.9445 42.4919 66.8779 42.2148C64.8113 41.9378 62.8512 41.1318 61.1875 39.8749C58.0681 37.5211 54.1766 36.4286 50.2879 36.8152C51.5678 35.4929 53.1017 34.4429 54.7975 33.7282C56.4933 33.0135 58.316 32.6489 60.1562 32.6563ZM44.6875 42.3123L46.3634 41.4743C48.3856 40.4545 50.6531 40.0218 52.9088 40.2252C55.1644 40.4286 57.3179 41.26 59.125 42.6251C61.442 44.3751 64.203 45.4409 67.0949 45.7016C69.9868 45.9624 72.8939 45.4076 75.4865 44.1003L75.625 44.031V50.5002L73.9491 51.3382C71.9269 52.358 69.6594 52.7908 67.4037 52.5873C65.1481 52.3839 62.9946 51.5525 61.1875 50.1874C58.8704 48.4375 56.1094 47.3718 53.2176 47.111C50.3257 46.8503 47.4186 47.405 44.826 48.7123L44.6875 48.7815V42.3123Z" fill="#C97B00"/>
</svg>
