<svg width="222" height="28" viewBox="0 0 222 28" fill="none" xmlns="http://www.w3.org/2000/svg">
<g clip-path="url(#clip0_6309_274)">
<path d="M6.29787 0L8.46277 0.663507L2.2305 28L0 27.3365L6.29787 0Z" fill="#C97B00"/>
<path d="M18.4344 0L20.5993 0.663507L14.367 28L12.1365 27.3365L18.4344 0Z" fill="#C97B00"/>
<path d="M30.5709 0L32.7358 0.663507L26.5036 28L24.2731 27.3365L30.5709 0Z" fill="#C97B00"/>
<path d="M44.1431 25.0212V9.39782H46.3899V11.2145H46.5114C46.7543 10.6089 47.0984 10.0942 47.5438 9.67032C47.9891 9.24643 48.6469 9.03449 49.5174 9.03449C50.4283 9.03449 51.1064 9.26662 51.5517 9.73088C51.997 10.175 52.2703 10.7603 52.3715 11.487H52.4626C52.746 10.7805 53.1508 10.1951 53.6771 9.73088C54.2034 9.26662 54.9321 9.03449 55.8633 9.03449C57.1385 9.03449 57.9887 9.47856 58.4138 10.3667C58.8591 11.2549 59.0818 12.5265 59.0818 14.1817V25.0212H56.8349V14.5753C56.8349 13.2431 56.6932 12.3247 56.4098 11.82C56.1467 11.2952 55.6507 11.0328 54.922 11.0328C54.2743 11.0328 53.748 11.2448 53.3431 11.6687C52.9383 12.0724 52.7359 12.6981 52.7359 13.5459V25.0212H50.489V14.5753C50.489 13.2431 50.3473 12.3247 50.0639 11.82C49.8008 11.2952 49.3149 11.0328 48.6065 11.0328C47.9587 11.0328 47.4223 11.2448 46.9972 11.6687C46.5924 12.0724 46.3899 12.6981 46.3899 13.5459V25.0212H44.1431Z" fill="white"/>
<path d="M70.0918 25.3845C68.9582 25.3845 67.936 25.1927 67.0251 24.8092C66.1344 24.4257 65.3652 23.8807 64.7175 23.1742C64.09 22.4475 63.6042 21.5897 63.2601 20.6006C62.9159 19.5913 62.7439 18.4711 62.7439 17.2398C62.7439 15.9883 62.9159 14.8579 63.2601 13.8487C63.6244 12.8394 64.1203 11.9815 64.7479 11.275C65.3754 10.5484 66.1243 9.99328 66.9947 9.60977C67.8854 9.22625 68.8671 9.03449 69.94 9.03449C70.9926 9.03449 71.9439 9.22625 72.7941 9.60977C73.6645 9.99328 74.4034 10.5282 75.0106 11.2145C75.6179 11.8806 76.0835 12.6779 76.4073 13.6064C76.7312 14.535 76.8932 15.5543 76.8932 16.6645V17.815H65.2944V18.5417C65.2944 19.228 65.4057 19.8638 65.6284 20.4492C65.8511 21.0346 66.1648 21.5392 66.5697 21.9631C66.9947 22.387 67.5008 22.72 68.0878 22.9623C68.6951 23.1843 69.3631 23.2953 70.0918 23.2953C71.1444 23.2953 72.0553 23.0531 72.8245 22.5687C73.5937 22.0842 74.1807 21.4181 74.5856 20.5703L76.377 21.7814C75.9114 22.8311 75.1321 23.699 74.039 24.3853C72.9662 25.0514 71.6504 25.3845 70.0918 25.3845ZM69.94 11.0328C69.272 11.0328 68.6546 11.1539 68.0878 11.3962C67.521 11.6384 67.0251 11.9714 66.6 12.3953C66.1952 12.8192 65.8713 13.3238 65.6284 13.9092C65.4057 14.4744 65.2944 15.1001 65.2944 15.7864V15.9984H74.2819V15.6653C74.2819 14.979 74.1706 14.3533 73.9479 13.7881C73.7455 13.2229 73.452 12.7385 73.0674 12.3348C72.703 11.9109 72.2476 11.5879 71.701 11.3659C71.1747 11.1438 70.5877 11.0328 69.94 11.0328Z" fill="white"/>
<path d="M88.3223 25.0212C86.6654 25.0212 85.3223 23.678 85.3223 22.0212V11.4567H80.0998V9.39782H83.9863C84.5126 9.39782 84.877 9.29689 85.0794 9.09504C85.302 8.873 85.4134 8.49958 85.4134 7.97476V3.88727H87.7513V9.39782H94.8867V11.4567H87.7513V21.9623C87.7513 22.5145 88.1991 22.9623 88.7513 22.9623H94.8867V25.0212H88.3223Z" fill="white"/>
<path d="M112.152 25.0212C111.2 25.0212 110.522 24.7789 110.117 24.2945C109.712 23.81 109.459 23.2045 109.358 22.4778H109.206C108.862 23.3862 108.306 24.1027 107.536 24.6275C106.787 25.1322 105.775 25.3845 104.5 25.3845C102.86 25.3845 101.555 24.9606 100.583 24.1128C99.6115 23.265 99.1257 22.1044 99.1257 20.6309C99.1257 19.1775 99.652 18.0573 100.705 17.27C101.777 16.4828 103.498 16.0892 105.866 16.0892H109.206V14.545C109.206 13.3945 108.882 12.5366 108.235 11.9714C107.587 11.3861 106.666 11.0934 105.472 11.0934C104.419 11.0934 103.559 11.3053 102.891 11.7292C102.223 12.1329 101.686 12.688 101.282 13.3945L99.6419 12.1834C99.8443 11.7797 100.118 11.3861 100.462 11.0025C100.806 10.619 101.231 10.286 101.737 10.0034C102.243 9.7006 102.82 9.46847 103.468 9.30698C104.115 9.12532 104.834 9.03449 105.623 9.03449C107.465 9.03449 108.923 9.49875 109.996 10.4273C111.089 11.3558 111.635 12.6476 111.635 14.3028V22.9017H113.822V25.0212H112.152ZM104.925 23.3559C105.553 23.3559 106.119 23.2852 106.625 23.1439C107.152 22.9824 107.607 22.7806 107.992 22.5384C108.376 22.276 108.67 21.9732 108.872 21.63C109.095 21.2667 109.206 20.8832 109.206 20.4795V17.9059H105.866C104.409 17.9059 103.346 18.1077 102.678 18.5114C102.01 18.9151 101.676 19.5005 101.676 20.2675V20.9034C101.676 21.7108 101.96 22.3264 102.526 22.7503C103.113 23.154 103.913 23.3559 104.925 23.3559Z" fill="white"/>
<path d="M124.619 25.3845C122.979 25.3845 121.562 25.112 120.368 24.567C119.194 24.0018 118.192 23.2549 117.362 22.3264L119.002 20.9034C119.751 21.6906 120.571 22.2962 121.461 22.72C122.352 23.1439 123.425 23.3559 124.68 23.3559C125.894 23.3559 126.886 23.1439 127.655 22.72C128.445 22.276 128.839 21.5897 128.839 20.6612C128.839 20.2574 128.759 19.9244 128.597 19.662C128.455 19.3794 128.252 19.1574 127.989 18.9959C127.726 18.8344 127.433 18.7133 127.109 18.6325C126.785 18.5316 126.441 18.4509 126.076 18.3903L123.617 18.027C123.07 17.9462 122.473 17.8352 121.826 17.6939C121.198 17.5526 120.621 17.3306 120.095 17.0278C119.569 16.7049 119.123 16.281 118.759 15.7562C118.415 15.2313 118.243 14.545 118.243 13.6973C118.243 12.91 118.395 12.2338 118.698 11.6687C119.022 11.0833 119.467 10.5988 120.034 10.2153C120.601 9.81162 121.269 9.51893 122.038 9.33727C122.807 9.13541 123.647 9.03449 124.558 9.03449C125.975 9.03449 127.2 9.25653 128.232 9.7006C129.285 10.1447 130.186 10.7603 130.935 11.5475L129.356 13.0312C129.173 12.8091 128.941 12.5871 128.657 12.365C128.394 12.1228 128.06 11.9109 127.655 11.7292C127.271 11.5274 126.815 11.3659 126.289 11.2448C125.763 11.1237 125.155 11.0631 124.467 11.0631C123.232 11.0631 122.281 11.275 121.613 11.6989C120.965 12.1228 120.641 12.7385 120.641 13.5459C120.641 13.9496 120.712 14.2927 120.854 14.5753C121.016 14.8377 121.228 15.0497 121.492 15.2112C121.755 15.3726 122.048 15.5038 122.372 15.6048C122.716 15.6855 123.06 15.7562 123.404 15.8167L125.864 16.18C126.431 16.2608 127.028 16.3718 127.655 16.5131C128.283 16.6544 128.86 16.8865 129.386 17.2095C129.912 17.5123 130.348 17.9261 130.692 18.4509C131.056 18.9757 131.238 19.662 131.238 20.5098C131.238 22.064 130.631 23.265 129.416 24.1128C128.222 24.9606 126.623 25.3845 124.619 25.3845Z" fill="white"/>
<path d="M136.51 2.6156H138.939V11.9412H139.06C139.222 11.5576 139.424 11.1943 139.667 10.8512C139.91 10.4878 140.204 10.1749 140.548 9.91254C140.912 9.65014 141.337 9.43819 141.823 9.27671C142.309 9.11523 142.876 9.03449 143.523 9.03449C145.163 9.03449 146.479 9.5593 147.471 10.6089C148.463 11.6384 148.958 13.1018 148.958 14.9992V25.0212H146.529V15.4231C146.529 13.99 146.216 12.9302 145.588 12.2439C144.961 11.5374 144.04 11.1842 142.825 11.1842C142.339 11.1842 141.864 11.2448 141.398 11.3659C140.932 11.487 140.517 11.6687 140.153 11.9109C139.789 12.1531 139.495 12.466 139.273 12.8495C139.05 13.233 138.939 13.6771 138.939 14.1817V25.0212H136.51V2.6156Z" fill="white"/>
<path d="M166.77 25.0212C165.818 25.0212 165.14 24.7789 164.735 24.2945C164.331 23.81 164.078 23.2045 163.976 22.4778H163.825C163.48 23.3862 162.924 24.1027 162.155 24.6275C161.406 25.1322 160.394 25.3845 159.118 25.3845C157.479 25.3845 156.173 24.9606 155.201 24.1128C154.23 23.265 153.744 22.1044 153.744 20.6309C153.744 19.1775 154.27 18.0573 155.323 17.27C156.396 16.4828 158.116 16.0892 160.485 16.0892H163.825V14.545C163.825 13.3945 163.501 12.5366 162.853 11.9714C162.205 11.3861 161.284 11.0934 160.09 11.0934C159.037 11.0934 158.177 11.3053 157.509 11.7292C156.841 12.1329 156.305 12.688 155.9 13.3945L154.26 12.1834C154.463 11.7797 154.736 11.3861 155.08 11.0025C155.424 10.619 155.849 10.286 156.355 10.0034C156.861 9.7006 157.438 9.46847 158.086 9.30698C158.734 9.12532 159.452 9.03449 160.242 9.03449C162.084 9.03449 163.541 9.49875 164.614 10.4273C165.707 11.3558 166.254 12.6476 166.254 14.3028V22.9017H168.44V25.0212H166.77ZM159.543 23.3559C160.171 23.3559 160.738 23.2852 161.244 23.1439C161.77 22.9824 162.225 22.7806 162.61 22.5384C162.995 22.276 163.288 21.9732 163.491 21.63C163.713 21.2667 163.825 20.8832 163.825 20.4795V17.9059H160.485C159.027 17.9059 157.964 18.1077 157.296 18.5114C156.628 18.9151 156.294 19.5005 156.294 20.2675V20.9034C156.294 21.7108 156.578 22.3264 157.145 22.7503C157.732 23.154 158.531 23.3559 159.543 23.3559Z" fill="white"/>
<path d="M172.284 22.9623H176.869V11.4567H172.284V9.39782H179.298V12.3947C179.298 12.3947 181.129 9.39782 184.733 9.39782H186.919V11.82C182.672 11.0212 182.056 12.1222 180.478 14.3028C179.488 15.6707 179.298 17.1467 179.298 18.4587V22.9623H185.371V25.0212H172.284V22.9623Z" fill="white"/>
<path d="M191.34 2.6156H193.769V16.7553H193.891L196.624 14.1817L201.846 9.39782H204.822L198.324 15.5139L205.581 25.0212H202.575L196.472 16.9067L193.769 19.3592V25.0212H191.34V2.6156Z" fill="white"/>
<path d="M215.649 25.3845C214.01 25.3845 212.593 25.112 211.399 24.567C210.225 24.0018 209.223 23.2549 208.393 22.3264L210.032 20.9034C210.781 21.6906 211.601 22.2962 212.492 22.72C213.382 23.1439 214.455 23.3559 215.71 23.3559C216.925 23.3559 217.917 23.1439 218.686 22.72C219.475 22.276 219.87 21.5897 219.87 20.6612C219.87 20.2574 219.789 19.9244 219.627 19.662C219.485 19.3794 219.283 19.1574 219.02 18.9959C218.757 18.8344 218.463 18.7133 218.139 18.6325C217.815 18.5316 217.471 18.4509 217.107 18.3903L214.647 18.027C214.101 17.9462 213.504 17.8352 212.856 17.6939C212.229 17.5526 211.652 17.3306 211.125 17.0278C210.599 16.7049 210.154 16.281 209.789 15.7562C209.445 15.2313 209.273 14.545 209.273 13.6973C209.273 12.91 209.425 12.2338 209.729 11.6687C210.052 11.0833 210.498 10.5988 211.065 10.2153C211.631 9.81162 212.299 9.51893 213.069 9.33727C213.838 9.13541 214.678 9.03449 215.589 9.03449C217.006 9.03449 218.23 9.25653 219.263 9.7006C220.315 10.1447 221.216 10.7603 221.965 11.5475L220.386 13.0312C220.204 12.8091 219.971 12.5871 219.688 12.365C219.425 12.1228 219.091 11.9109 218.686 11.7292C218.301 11.5274 217.846 11.3659 217.319 11.2448C216.793 11.1237 216.186 11.0631 215.498 11.0631C214.263 11.0631 213.311 11.275 212.643 11.6989C211.996 12.1228 211.672 12.7385 211.672 13.5459C211.672 13.9496 211.743 14.2927 211.884 14.5753C212.046 14.8377 212.259 15.0497 212.522 15.2112C212.785 15.3726 213.079 15.5038 213.403 15.6048C213.747 15.6855 214.091 15.7562 214.435 15.8167L216.894 16.18C217.461 16.2608 218.058 16.3718 218.686 16.5131C219.313 16.6544 219.89 16.8865 220.416 17.2095C220.943 17.5123 221.378 17.9261 221.722 18.4509C222.086 18.9757 222.269 19.662 222.269 20.5098C222.269 22.064 221.661 23.265 220.447 24.1128C219.253 24.9606 217.653 25.3845 215.649 25.3845Z" fill="white"/>
</g>
<defs>
<clipPath id="clip0_6309_274">
<rect width="222" height="28" fill="white"/>
</clipPath>
</defs>
</svg>
