<svg width="128" height="16" viewBox="0 0 128 16" fill="none" xmlns="http://www.w3.org/2000/svg">
<g clip-path="url(#clip0_6326_3875)">
<path d="M3.63121 0L4.87943 0.379147L1.28605 16L0 15.6209L3.63121 0Z" fill="#C97B00"/>
<path d="M10.6288 0L11.8771 0.379147L8.28369 16L6.99764 15.6209L10.6288 0Z" fill="#C97B00"/>
<path d="M17.6265 0L18.8747 0.379147L15.2813 16L13.9953 15.6209L17.6265 0Z" fill="#C97B00"/>
<path d="M25.4517 14.2978V5.37018H26.7472V6.40828H26.8172C26.9572 6.06225 27.1556 5.76812 27.4124 5.5259C27.6692 5.28368 28.0485 5.16256 28.5504 5.16256C29.0756 5.16256 29.4665 5.29521 29.7233 5.5605C29.9801 5.81426 30.1376 6.14875 30.196 6.56399H30.2485C30.4119 6.16029 30.6453 5.82579 30.9488 5.5605C31.2522 5.29521 31.6724 5.16256 32.2093 5.16256C32.9445 5.16256 33.4347 5.41632 33.6798 5.92383C33.9366 6.43135 34.065 7.15801 34.065 8.10383V14.2978H32.7695V8.32875C32.7695 7.56748 32.6878 7.04267 32.5244 6.75431C32.3727 6.45442 32.0867 6.30447 31.6666 6.30447C31.2931 6.30447 30.9896 6.42558 30.7562 6.6678C30.5228 6.89849 30.4061 7.25606 30.4061 7.7405V14.2978H29.1106V8.32875C29.1106 7.56748 29.0289 7.04267 28.8655 6.75431C28.7137 6.45442 28.4336 6.30447 28.0252 6.30447C27.6517 6.30447 27.3424 6.42558 27.0973 6.6678C26.8639 6.89849 26.7472 7.25606 26.7472 7.7405V14.2978H25.4517Z" fill="#2A2A33"/>
<path d="M40.4131 14.5054C39.7595 14.5054 39.1701 14.3958 38.6449 14.1767C38.1314 13.9575 37.6879 13.6461 37.3144 13.2424C36.9526 12.8272 36.6725 12.337 36.4741 11.7718C36.2757 11.1951 36.1765 10.5549 36.1765 9.85129C36.1765 9.13616 36.2757 8.49024 36.4741 7.91352C36.6841 7.3368 36.9701 6.84658 37.3319 6.44288C37.6937 6.02764 38.1255 5.71045 38.6274 5.49129C39.1409 5.27214 39.707 5.16256 40.3255 5.16256C40.9324 5.16256 41.481 5.27214 41.9712 5.49129C42.473 5.71045 42.899 6.01611 43.2492 6.40828C43.5993 6.78891 43.8677 7.24452 44.0545 7.7751C44.2412 8.30569 44.3346 8.88817 44.3346 9.52256V10.18H37.647V10.5953C37.647 10.9874 37.7112 11.3508 37.8396 11.6853C37.968 12.0198 38.1489 12.3081 38.3823 12.5503C38.6274 12.7926 38.9192 12.9829 39.2576 13.1213C39.6078 13.2482 39.9929 13.3116 40.4131 13.3116C41.02 13.3116 41.5452 13.1732 41.9887 12.8964C42.4322 12.6195 42.7707 12.2389 43.0041 11.7545L44.037 12.4465C43.7685 13.0463 43.3192 13.5423 42.689 13.9345C42.0704 14.3151 41.3118 14.5054 40.4131 14.5054ZM40.3255 6.30447C39.9404 6.30447 39.5844 6.37368 39.2576 6.51209C38.9308 6.6505 38.6449 6.84082 38.3998 7.08304C38.1664 7.32526 37.9796 7.61362 37.8396 7.94812C37.7112 8.27108 37.647 8.62865 37.647 9.02082V9.14193H42.829V8.95161C42.829 8.55944 42.7648 8.20188 42.6364 7.87891C42.5197 7.55595 42.3505 7.27912 42.1287 7.04844C41.9187 6.80621 41.6561 6.62166 41.3409 6.49478C41.0375 6.36791 40.699 6.30447 40.3255 6.30447Z" fill="#2A2A33"/>
<path d="M52.1946 14.2978C50.5378 14.2978 49.1946 12.9547 49.1946 11.2978V6.54669H46.1835V5.37018H48.4243C48.7278 5.37018 48.9379 5.31251 49.0546 5.19717C49.183 5.07029 49.2471 4.8569 49.2471 4.55701V2.22129H50.5952V5.37018H54.7093V6.54669H50.5952V12.1213C50.5952 12.6736 51.0429 13.1213 51.5952 13.1213H54.7093V14.2978H52.1946Z" fill="#2A2A33"/>
<path d="M64.6638 14.2978C64.1152 14.2978 63.7242 14.1594 63.4908 13.8826C63.2574 13.6057 63.1115 13.2597 63.0531 12.8445H62.9656C62.7672 13.3635 62.4462 13.773 62.0027 14.0729C61.5709 14.3612 60.9873 14.5054 60.2521 14.5054C59.3067 14.5054 58.5539 14.2632 57.9937 13.7788C57.4335 13.2943 57.1534 12.6311 57.1534 11.7891C57.1534 10.9586 57.4568 10.3184 58.0637 9.86859C58.6823 9.41875 59.6743 9.19383 61.0399 9.19383H62.9656V8.31145C62.9656 7.65399 62.7789 7.16378 62.4054 6.84082C62.0319 6.50632 61.5009 6.33907 60.8123 6.33907C60.2054 6.33907 59.7093 6.46018 59.3242 6.70241C58.939 6.93309 58.6298 7.25029 58.3963 7.65399L57.451 6.96193C57.5677 6.73124 57.7252 6.50632 57.9237 6.28717C58.1221 6.06801 58.3672 5.8777 58.6589 5.71621C58.9507 5.5432 59.2833 5.41055 59.6568 5.31828C60.0303 5.21447 60.4446 5.16256 60.8998 5.16256C61.9619 5.16256 62.8022 5.42786 63.4208 5.95844C64.051 6.48902 64.3661 7.22722 64.3661 8.17304V13.0867H65.6266V14.2978H64.6638ZM60.4971 13.3462C60.859 13.3462 61.1857 13.3058 61.4775 13.2251C61.781 13.1328 62.0436 13.0175 62.2653 12.8791C62.4871 12.7291 62.6563 12.5561 62.773 12.36C62.9014 12.1524 62.9656 11.9333 62.9656 11.7026V10.2319H61.0399C60.1995 10.2319 59.5868 10.3473 59.2016 10.578C58.8165 10.8086 58.6239 11.1431 58.6239 11.5815V11.9448C58.6239 12.4062 58.7873 12.758 59.1141 13.0002C59.4526 13.2309 59.9136 13.3462 60.4971 13.3462Z" fill="#2A2A33"/>
<path d="M71.8522 14.5054C70.9068 14.5054 70.0898 14.3497 69.4012 14.0383C68.7243 13.7153 68.1466 13.2885 67.6681 12.758L68.6134 11.9448C69.0453 12.3946 69.5179 12.7407 70.0315 12.9829C70.545 13.2251 71.1636 13.3462 71.8872 13.3462C72.5875 13.3462 73.1594 13.2251 73.6029 12.9829C74.058 12.7291 74.2856 12.337 74.2856 11.8064C74.2856 11.5757 74.2389 11.3854 74.1456 11.2354C74.0639 11.0739 73.9472 10.9471 73.7954 10.8548C73.6437 10.7625 73.4745 10.6933 73.2877 10.6472C73.101 10.5895 72.9026 10.5434 72.6925 10.5088L71.2745 10.3011C70.9593 10.255 70.615 10.1916 70.2416 10.1108C69.8798 10.0301 69.5471 9.9032 69.2437 9.73018C68.9402 9.54563 68.6835 9.30341 68.4734 9.00351C68.275 8.70362 68.1758 8.31145 68.1758 7.82701C68.1758 7.37717 68.2633 6.99077 68.4384 6.6678C68.6251 6.3333 68.8819 6.05648 69.2087 5.83733C69.5355 5.60664 69.9206 5.43939 70.3641 5.33558C70.8076 5.22024 71.292 5.16256 71.8172 5.16256C72.6341 5.16256 73.3403 5.28944 73.9355 5.5432C74.5424 5.79696 75.0618 6.14876 75.4936 6.5986L74.5832 7.44637C74.4782 7.31949 74.344 7.19262 74.1806 7.06574C74.0289 6.92733 73.8363 6.80622 73.6029 6.70241C73.3811 6.58706 73.1185 6.49479 72.8151 6.42558C72.5116 6.35637 72.1615 6.32177 71.7646 6.32177C71.0527 6.32177 70.5042 6.44288 70.119 6.6851C69.7455 6.92733 69.5588 7.27913 69.5588 7.7405C69.5588 7.97119 69.5996 8.16727 69.6813 8.32875C69.7747 8.4787 69.8973 8.59981 70.049 8.69209C70.2007 8.78436 70.3699 8.85933 70.5567 8.91701C70.7551 8.96314 70.9535 9.00352 71.1519 9.03812L72.57 9.24574C72.8968 9.29188 73.2411 9.35531 73.6029 9.43606C73.9647 9.5168 74.2973 9.64944 74.6007 9.83399C74.9042 10.007 75.1551 10.2435 75.3535 10.5434C75.5636 10.8433 75.6687 11.2354 75.6687 11.7199C75.6687 12.608 75.3185 13.2943 74.6182 13.7788C73.9296 14.2632 73.0076 14.5054 71.8522 14.5054Z" fill="#2A2A33"/>
<path d="M78.708 1.49463H80.1085V6.82352H80.1785C80.2719 6.60436 80.3886 6.39674 80.5287 6.20066C80.6687 5.99304 80.838 5.81426 81.0364 5.66431C81.2465 5.51436 81.4916 5.39325 81.7717 5.30098C82.0518 5.2087 82.3786 5.16256 82.752 5.16256C83.6974 5.16256 84.456 5.46246 85.0279 6.06225C85.5998 6.6505 85.8857 7.48674 85.8857 8.57098V14.2978H84.4852V8.8132C84.4852 7.99426 84.3043 7.3887 83.9425 6.99653C83.5807 6.59283 83.0497 6.39098 82.3494 6.39098C82.0693 6.39098 81.795 6.42558 81.5266 6.49478C81.2581 6.56399 81.0189 6.6678 80.8088 6.80621C80.5987 6.94463 80.4295 7.12341 80.3011 7.34256C80.1727 7.56172 80.1085 7.81547 80.1085 8.10383V14.2978H78.708V1.49463Z" fill="#2A2A33"/>
<path d="M96.1554 14.2978C95.6068 14.2978 95.2158 14.1594 94.9824 13.8826C94.749 13.6057 94.6031 13.2597 94.5447 12.8445H94.4572C94.2588 13.3635 93.9378 13.773 93.4943 14.0729C93.0625 14.3612 92.4789 14.5054 91.7437 14.5054C90.7983 14.5054 90.0455 14.2632 89.4853 13.7788C88.9251 13.2943 88.645 12.6311 88.645 11.7891C88.645 10.9586 88.9484 10.3184 89.5553 9.86859C90.1739 9.41875 91.1659 9.19383 92.5315 9.19383H94.4572V8.31145C94.4572 7.65399 94.2705 7.16378 93.897 6.84082C93.5235 6.50632 92.9925 6.33907 92.3039 6.33907C91.697 6.33907 91.201 6.46018 90.8158 6.70241C90.4306 6.93309 90.1214 7.25029 89.8879 7.65399L88.9426 6.96193C89.0593 6.73124 89.2169 6.50632 89.4153 6.28717C89.6137 6.06801 89.8588 5.8777 90.1506 5.71621C90.4423 5.5432 90.7749 5.41055 91.1484 5.31828C91.5219 5.21447 91.9362 5.16256 92.3914 5.16256C93.4535 5.16256 94.2938 5.42786 94.9124 5.95844C95.5426 6.48902 95.8577 7.22722 95.8577 8.17304V13.0867H97.1182V14.2978H96.1554ZM91.9888 13.3462C92.3506 13.3462 92.6774 13.3058 92.9691 13.2251C93.2726 13.1328 93.5352 13.0175 93.7569 12.8791C93.9787 12.7291 94.1479 12.5561 94.2646 12.36C94.393 12.1524 94.4572 11.9333 94.4572 11.7026V10.2319H92.5315C91.6911 10.2319 91.0784 10.3473 90.6933 10.578C90.3081 10.8086 90.1155 11.1431 90.1155 11.5815V11.9448C90.1155 12.4062 90.2789 12.758 90.6057 13.0002C90.9442 13.2309 91.4052 13.3462 91.9888 13.3462Z" fill="#2A2A33"/>
<path d="M99.3348 13.1213H101.978V6.54669H99.3348V5.37018H103.379V7.08266C103.379 7.08266 104.434 5.37018 106.513 5.37018H107.773V6.75431C105.324 6.29785 104.969 6.92699 104.059 8.17304C103.489 8.95466 103.379 9.79812 103.379 10.5479V13.1213H106.88V14.2978H99.3348V13.1213Z" fill="#2A2A33"/>
<path d="M110.322 1.49463H111.723V9.57447H111.793L113.368 8.10383L116.379 5.37018H118.095L114.349 8.8651L118.533 14.2978H116.8L113.281 9.66098L111.723 11.0624V14.2978H110.322V1.49463Z" fill="#2A2A33"/>
<path d="M124.338 14.5054C123.393 14.5054 122.576 14.3497 121.887 14.0383C121.21 13.7153 120.633 13.2885 120.154 12.758L121.099 11.9448C121.531 12.3946 122.004 12.7407 122.518 12.9829C123.031 13.2251 123.65 13.3462 124.373 13.3462C125.073 13.3462 125.645 13.2251 126.089 12.9829C126.544 12.7291 126.772 12.337 126.772 11.8064C126.772 11.5757 126.725 11.3854 126.632 11.2354C126.55 11.0739 126.433 10.9471 126.281 10.8548C126.13 10.7625 125.96 10.6933 125.774 10.6472C125.587 10.5895 125.389 10.5434 125.179 10.5088L123.76 10.3011C123.445 10.255 123.101 10.1916 122.728 10.1108C122.366 10.0301 122.033 9.9032 121.73 9.73018C121.426 9.54563 121.169 9.30341 120.959 9.00351C120.761 8.70362 120.662 8.31145 120.662 7.82701C120.662 7.37717 120.749 6.99077 120.924 6.6678C121.111 6.3333 121.368 6.05648 121.695 5.83733C122.021 5.60664 122.407 5.43939 122.85 5.33558C123.294 5.22024 123.778 5.16256 124.303 5.16256C125.12 5.16256 125.826 5.28944 126.422 5.5432C127.028 5.79696 127.548 6.14876 127.98 6.5986L127.069 7.44637C126.964 7.31949 126.83 7.19262 126.667 7.06574C126.515 6.92733 126.322 6.80622 126.089 6.70241C125.867 6.58706 125.605 6.49479 125.301 6.42558C124.998 6.35637 124.647 6.32177 124.251 6.32177C123.539 6.32177 122.99 6.44288 122.605 6.6851C122.232 6.92733 122.045 7.27913 122.045 7.7405C122.045 7.97119 122.086 8.16727 122.167 8.32875C122.261 8.4787 122.383 8.59981 122.535 8.69209C122.687 8.78436 122.856 8.85933 123.043 8.91701C123.241 8.96314 123.44 9.00352 123.638 9.03812L125.056 9.24574C125.383 9.29188 125.727 9.35531 126.089 9.43606C126.451 9.5168 126.783 9.64944 127.087 9.83399C127.39 10.007 127.641 10.2435 127.84 10.5434C128.05 10.8433 128.155 11.2354 128.155 11.7199C128.155 12.608 127.805 13.2943 127.104 13.7788C126.416 14.2632 125.494 14.5054 124.338 14.5054Z" fill="#2A2A33"/>
</g>
<defs>
<clipPath id="clip0_6326_3875">
<rect width="128" height="16" fill="white"/>
</clipPath>
</defs>
</svg>
