<svg width="104" height="104" viewBox="0 0 104 104" fill="none" xmlns="http://www.w3.org/2000/svg">
<path d="M27.5 6.875H30.9375V10.3125H27.5V6.875Z" fill="#A9ADB7"/>
<path d="M34.375 6.875H48.125V10.3125H34.375V6.875Z" fill="#A9ADB7"/>
<path d="M67.0313 73.9062C67.0286 76.1846 66.1223 78.3689 64.5113 79.9799C62.9002 81.591 60.716 82.4973 58.4376 82.5H27.0395L32.9485 72.2666C32.7616 72.7933 32.6629 73.3473 32.6563 73.9062C32.6563 75.2738 33.1996 76.5853 34.1666 77.5523C35.1335 78.5192 36.4451 79.0625 37.8126 79.0625H44.6876C46.0551 79.0625 47.3666 78.5192 48.3336 77.5523C49.3006 76.5853 49.8438 75.2738 49.8438 73.9062C49.8438 72.5387 49.3006 71.2272 48.3336 70.2602C47.3666 69.2933 46.0551 68.75 44.6876 68.75H37.8126C36.9942 68.7515 36.188 68.9484 35.461 69.3241C34.734 69.6999 34.1071 70.2437 33.6326 70.9105C34.3152 69.3025 34.3584 67.4946 33.7534 65.8559C33.1484 64.2171 31.9409 62.871 30.3772 62.0922C28.8136 61.3135 27.0116 61.1608 25.3392 61.6653C23.6668 62.1699 22.25 63.2936 21.3779 64.8072L15.5341 74.9341C15.4917 74.5931 15.4699 74.2499 15.4688 73.9062V12.0312C15.4716 9.75288 16.3778 7.56861 17.9889 5.95757C19.5999 4.34652 21.7842 3.44023 24.0626 3.4375H58.4376C59.9454 3.441 61.4259 3.83957 62.7317 4.59348C64.0375 5.34739 65.1229 6.43033 65.8798 7.73438L68.8549 6.01562C67.7954 4.19021 66.2761 2.67426 64.4484 1.6188C62.6206 0.56334 60.5482 0.00520583 58.4376 0H24.0626C20.8728 0.00363921 17.8147 1.27238 15.5592 3.52789C13.3037 5.7834 12.035 8.84148 12.0313 12.0312V45.2031C10.9376 45.7121 10.0569 46.5885 9.54258 47.6798L1.74118 64.6044C0.586289 67.0869 -0.00813268 69.7932 8.4037e-05 72.5312V103.125H3.43758V72.5312C3.42991 70.2925 3.91582 68.0795 4.86071 66.0498L12.0313 50.4917V73.9062C12.0302 75.9591 12.5563 77.9778 13.5593 79.7689C13.6887 80.0587 13.8958 80.307 14.1577 80.4863C14.4195 80.6656 14.7259 80.7689 15.0429 80.7847C15.3599 80.8006 15.675 80.7283 15.9535 80.576C16.2319 80.4237 16.4627 80.1973 16.6204 79.9219L24.3548 66.5259C24.8139 65.7429 25.564 65.1731 26.4416 64.9411C27.3192 64.7091 28.2529 64.8336 29.039 65.2875C29.8251 65.7414 30.3998 66.4878 30.6377 67.3638C30.8755 68.2398 30.7572 69.1743 30.3085 69.9634L22.5741 83.3594C22.4205 83.6253 22.3409 83.9275 22.3436 84.2346C22.3463 84.5417 22.4313 84.8425 22.5896 85.1056L26.2712 91.2244C27.0742 92.5629 27.499 94.0943 27.5001 95.6553V103.108H30.9376V95.6553C30.9373 93.4707 30.3432 91.3272 29.2188 89.4541L27.1031 85.9375H58.4376C61.6274 85.9339 64.6854 84.6651 66.9409 82.4096C69.1965 80.1541 70.4652 77.096 70.4688 73.9062V65.3125H67.0313V73.9062ZM37.8126 72.1875H44.6876C45.1434 72.1875 45.5806 72.3686 45.9029 72.6909C46.2253 73.0132 46.4063 73.4504 46.4063 73.9062C46.4063 74.3621 46.2253 74.7993 45.9029 75.1216C45.5806 75.4439 45.1434 75.625 44.6876 75.625H37.8126C37.3567 75.625 36.9196 75.4439 36.5972 75.1216C36.2749 74.7993 36.0938 74.3621 36.0938 73.9062C36.0938 73.4504 36.2749 73.0132 36.5972 72.6909C36.9196 72.3686 37.3567 72.1875 37.8126 72.1875Z" fill="#A9ADB7"/>
<path d="M98.1562 20.315C94.2907 14.7821 88.5255 10.864 81.9583 9.3066C75.391 7.74922 68.4803 8.66136 62.5421 11.8693C56.6038 15.0773 52.0526 20.3571 49.7551 26.7034C47.4576 33.0498 47.5742 40.0194 50.0827 46.2853L44.2733 56.1337C44.1058 56.4172 44.0232 56.7429 44.0354 57.0719C44.0475 57.401 44.154 57.7197 44.3421 57.99C44.535 58.2598 44.8006 58.4692 45.1079 58.594C45.4152 58.7187 45.7516 58.7536 46.078 58.6947L57.3015 56.5978C61.1125 60.0142 65.8044 62.2946 70.8452 63.1806C72.4292 63.4529 74.0333 63.5909 75.6405 63.5931C80.6712 63.5917 85.6052 62.2104 89.9053 59.5994C94.2054 56.9885 97.7069 53.248 100.029 48.7852C102.351 44.3223 103.404 39.3081 103.074 34.2882C102.743 29.2684 101.043 24.4353 98.1562 20.315ZM99.3249 40.2697C98.569 44.5573 96.6639 48.5595 93.8127 51.8497C90.9616 55.14 87.2711 57.5951 83.1347 58.9533C78.9982 60.3115 74.5708 60.5221 70.3241 59.5624C66.0774 58.6028 62.1707 56.5089 59.0202 53.504C58.6979 53.2049 58.2741 53.039 57.8343 53.04C57.7309 53.0371 57.6274 53.0429 57.5249 53.0572L49.1546 54.6212L53.4858 47.2994C53.6205 47.0635 53.6997 46.8002 53.7176 46.5292C53.7355 46.2582 53.6915 45.9868 53.589 45.7353C51.672 41.3972 51.0915 36.5861 51.9218 31.9165C53.0295 25.6305 56.5889 20.0419 61.8171 16.3803C64.4058 14.5672 67.3263 13.2818 70.4118 12.5974C73.4973 11.913 76.6874 11.8431 79.7999 12.3915C82.9124 12.94 85.8865 14.0962 88.5522 15.794C91.2179 17.4919 93.5231 19.6981 95.3362 22.2868C97.1492 24.8756 98.4346 27.7961 99.119 30.8816C99.8034 33.9671 99.8734 37.1571 99.3249 40.2697Z" fill="#A9ADB7"/>
<path d="M87.6562 25.7812H82.5V24.0625C82.5 22.2391 81.7757 20.4905 80.4864 19.2011C79.197 17.9118 77.4484 17.1875 75.625 17.1875C73.8016 17.1875 72.053 17.9118 70.7636 19.2011C69.4743 20.4905 68.75 22.2391 68.75 24.0625V25.7812H63.5938C63.1379 25.7812 62.7007 25.9623 62.3784 26.2847C62.0561 26.607 61.875 27.0442 61.875 27.5V48.125C61.8791 49.4913 62.4236 50.8004 63.3897 51.7665C64.3558 52.7326 65.665 53.2772 67.0312 53.2812H84.2188C85.585 53.2772 86.8942 52.7326 87.8603 51.7665C88.8264 50.8004 89.3709 49.4913 89.375 48.125V27.5C89.375 27.0442 89.1939 26.607 88.8716 26.2847C88.5493 25.9623 88.1121 25.7812 87.6562 25.7812ZM72.1875 24.0625C72.1875 23.1508 72.5497 22.2765 73.1943 21.6318C73.839 20.9872 74.7133 20.625 75.625 20.625C76.5367 20.625 77.411 20.9872 78.0557 21.6318C78.7003 22.2765 79.0625 23.1508 79.0625 24.0625V25.7812H72.1875V24.0625ZM85.9375 48.125C85.9375 48.5808 85.7564 49.018 85.4341 49.3403C85.1118 49.6627 84.6746 49.8438 84.2188 49.8438H67.0312C66.5754 49.8438 66.1382 49.6627 65.8159 49.3403C65.4936 49.018 65.3125 48.5808 65.3125 48.125V46.4062H85.9375V48.125ZM85.9375 42.9688H65.3125V29.2188H68.75V32.6562H72.1875V29.2188H79.0625V32.6562H82.5V29.2188H85.9375V42.9688Z" fill="#C97B00"/>
<path d="M34.8793 22.8477L32.2324 25.4945C30.4508 24.3153 28.2947 23.8398 26.1823 24.1602C24.07 24.4806 22.1519 25.5741 20.8001 27.2286C19.4483 28.8832 18.7592 30.9808 18.8663 33.1146C18.9735 35.2484 19.8693 37.2664 21.3801 38.7772C22.8908 40.2879 24.9088 41.1838 27.0427 41.2909C29.1765 41.3981 31.2741 40.7089 32.9286 39.3572C34.5831 38.0054 35.6766 36.0873 35.9971 33.9749C36.3175 31.8626 35.842 29.7065 34.6627 27.9248L37.3096 25.278L34.8793 22.8477ZM32.6569 32.6566C32.6569 33.6764 32.3545 34.6733 31.788 35.5212C31.2214 36.3692 30.4161 37.03 29.4739 37.4203C28.5317 37.8106 27.495 37.9127 26.4948 37.7137C25.4945 37.5148 24.5758 37.0237 23.8547 36.3026C23.1336 35.5815 22.6425 34.6627 22.4435 33.6625C22.2446 32.6623 22.3467 31.6255 22.7369 30.6833C23.1272 29.7412 23.7881 28.9359 24.636 28.3693C25.484 27.8027 26.4809 27.5003 27.5007 27.5003C28.2664 27.5033 29.0215 27.6796 29.7093 28.0159L24.5668 33.1584L26.9971 35.5887L32.1413 30.448C32.4777 31.1358 32.654 31.8909 32.6569 32.6566Z" fill="#C97B00"/>
<path d="M39.5312 27.5H46.4062V30.9375H39.5312V27.5Z" fill="#C97B00"/>
<path d="M39.5312 34.375H46.4062V37.8125H39.5312V34.375Z" fill="#C97B00"/>
</svg>
