<svg width="81" height="110" viewBox="0 0 81 110" fill="none" xmlns="http://www.w3.org/2000/svg">
<path d="M40.6282 103.085C41.8149 103.085 42.7769 102.123 42.7769 100.936C42.7769 99.7491 41.8149 98.7871 40.6282 98.7871C39.4415 98.7871 38.4795 99.7491 38.4795 100.936C38.4795 102.123 39.4415 103.085 40.6282 103.085Z" fill="#A9ADB7"/>
<path d="M70.8767 0H66.5797C65.6895 0 64.9682 0.721536 64.9682 1.61153C64.9682 2.50152 65.6895 3.22306 66.5797 3.22306H70.8767C74.2927 3.22306 77.0718 6.0022 77.0718 9.41842V91.8716H4.17911V9.41842C4.17911 6.0022 6.95825 3.22306 10.3743 3.22306H24.9373L25.8819 7.09782C26.3873 9.17046 28.23 10.618 30.3632 10.618H50.8877C53.0211 10.618 54.8639 9.17046 55.3692 7.09761L56.3136 3.22306H59.1712C60.0614 3.22306 60.7827 2.50152 60.7827 1.61153C60.7827 0.721536 60.0614 0 59.1712 0H55.0622C55.0575 0 10.3743 0 10.3743 0C5.18106 0 0.956055 4.225 0.956055 9.41842V100.58V100.581C0.956055 102.229 1.38279 103.779 2.12989 105.128C3.73648 108.03 6.82911 110 10.3738 110H70.8771C74.422 110 77.5145 108.03 79.121 105.128C79.8682 103.779 80.2949 102.229 80.2949 100.581V100.58V9.41842C80.2949 4.225 76.0699 0 70.8767 0V0ZM52.996 3.22306L52.2379 6.33439C52.0856 6.9588 51.5304 7.39499 50.8877 7.39499H30.3632C29.7206 7.39499 29.1653 6.9588 29.0132 6.33439L28.2549 3.22306H52.996ZM77.0718 100.58C77.0718 101.778 76.7291 102.897 76.1382 103.846C75.0437 105.603 73.095 106.776 70.8767 106.776H10.3743C8.15594 106.776 6.20706 105.603 5.11273 103.846C4.52183 102.897 4.17911 101.778 4.17911 100.58V95.0944H77.0718V100.58Z" fill="#A9ADB7"/>
<path d="M28.8013 39L31.2685 39.7583L24.166 71L21.624 70.2417L28.8013 39Z" fill="#C97B00"/>
<path d="M42.6334 39L45.1006 39.7583L37.998 71L35.4561 70.2417L42.6334 39Z" fill="#C97B00"/>
<path d="M56.4654 39L58.9326 39.7583L51.83 71L49.2881 70.2417L56.4654 39Z" fill="#C97B00"/>
</svg>
