<svg width="105" height="104" viewBox="0 0 105 104" fill="none" xmlns="http://www.w3.org/2000/svg">
<path d="M98.9248 20.625H80.0186V1.71875C80.0186 1.26291 79.8375 0.825738 79.5151 0.50341C79.1928 0.181082 78.7556 0 78.2998 0H26.7373C26.2815 0 25.8443 0.181082 25.522 0.50341C25.1996 0.825738 25.0186 1.26291 25.0186 1.71875V20.625H6.1123C4.74604 20.6291 3.43689 21.1736 2.47079 22.1397C1.50469 23.1058 0.960135 24.415 0.956055 25.7812V80.7812C0.960135 82.1475 1.50469 83.4567 2.47079 84.4228C3.43689 85.3889 4.74604 85.9334 6.1123 85.9375H40.1779L39.0264 92.8125H37.0498C36.7833 92.8143 36.5208 92.8773 36.2824 92.9965C36.044 93.1156 35.8362 93.2879 35.6748 93.5L30.5186 100.375C30.327 100.63 30.2104 100.934 30.1817 101.252C30.1531 101.57 30.2135 101.889 30.3563 102.175C30.499 102.46 30.7184 102.7 30.99 102.868C31.2615 103.036 31.5744 103.125 31.8936 103.125H73.1436C73.4627 103.125 73.7756 103.036 74.0471 102.868C74.3187 102.7 74.5381 102.46 74.6809 102.175C74.8236 101.889 74.884 101.57 74.8554 101.252C74.8267 100.934 74.7101 100.63 74.5186 100.375L69.3623 93.5C69.2009 93.2879 68.9931 93.1156 68.7547 92.9965C68.5163 92.8773 68.2538 92.8143 67.9873 92.8125H66.0107L64.8592 85.9375H98.9248C100.291 85.9334 101.6 85.3889 102.566 84.4228C103.532 83.4567 104.077 82.1475 104.081 80.7812V25.7812C104.077 24.415 103.532 23.1058 102.566 22.1397C101.6 21.1736 100.291 20.6291 98.9248 20.625ZM28.4561 3.4375H76.5811V37.8125H28.4561V3.4375ZM67.1279 96.25L69.7061 99.6875H35.3311L37.9092 96.25H67.1279ZM42.5154 92.8125L43.667 85.9375H61.3701L62.5217 92.8125H42.5154ZM100.644 80.7812C100.644 81.2371 100.462 81.6743 100.14 81.9966C99.8178 82.3189 99.3806 82.5 98.9248 82.5H6.1123C5.65646 82.5 5.21929 82.3189 4.89697 81.9966C4.57464 81.6743 4.39355 81.2371 4.39355 80.7812V75.625H100.644V80.7812ZM100.644 72.1875H4.39355V25.7812C4.39355 25.3254 4.57464 24.8882 4.89697 24.5659C5.21929 24.2436 5.65646 24.0625 6.1123 24.0625H25.0186V39.5312C25.0186 39.9871 25.1996 40.4243 25.522 40.7466C25.8443 41.0689 26.2815 41.25 26.7373 41.25H78.2998C78.7556 41.25 79.1928 41.0689 79.5151 40.7466C79.8375 40.4243 80.0186 39.9871 80.0186 39.5312V24.0625H98.9248C99.3806 24.0625 99.8178 24.2436 100.14 24.5659C100.462 24.8882 100.644 25.3254 100.644 25.7812V72.1875Z" fill="#A9ADB7"/>
<path d="M95.4873 44.6875H74.8623C74.4065 44.6875 73.9693 44.8686 73.647 45.1909C73.3246 45.5132 73.1436 45.9504 73.1436 46.4062V48.125H59.3936V46.4062C59.3936 45.9504 59.2125 45.5132 58.8901 45.1909C58.5678 44.8686 58.1306 44.6875 57.6748 44.6875H47.3623C46.9065 44.6875 46.4693 44.8686 46.147 45.1909C45.8246 45.5132 45.6436 45.9504 45.6436 46.4062V48.125H31.8936V46.4062C31.8936 45.9504 31.7125 45.5132 31.3901 45.1909C31.0678 44.8686 30.6306 44.6875 30.1748 44.6875H9.5498C9.09396 44.6875 8.65679 44.8686 8.33447 45.1909C8.01214 45.5132 7.83105 45.9504 7.83105 46.4062V53.2812C7.83105 53.7371 8.01214 54.1743 8.33447 54.4966C8.65679 54.8189 9.09396 55 9.5498 55H30.1748C30.6306 55 31.0678 54.8189 31.3901 54.4966C31.7125 54.1743 31.8936 53.7371 31.8936 53.2812V51.5625H45.6436V53.2812C45.6436 53.7371 45.8246 54.1743 46.147 54.4966C46.4693 54.8189 46.9065 55 47.3623 55H50.7998V58.4375H47.3623C46.9065 58.4375 46.4693 58.6186 46.147 58.9409C45.8246 59.2632 45.6436 59.7004 45.6436 60.1562V67.0312C45.6436 67.4871 45.8246 67.9243 46.147 68.2466C46.4693 68.5689 46.9065 68.75 47.3623 68.75H57.6748C58.1306 68.75 58.5678 68.5689 58.8901 68.2466C59.2125 67.9243 59.3936 67.4871 59.3936 67.0312V60.1562C59.3936 59.7004 59.2125 59.2632 58.8901 58.9409C58.5678 58.6186 58.1306 58.4375 57.6748 58.4375H54.2373V55H57.6748C58.1306 55 58.5678 54.8189 58.8901 54.4966C59.2125 54.1743 59.3936 53.7371 59.3936 53.2812V51.5625H73.1436V53.2812C73.1436 53.7371 73.3246 54.1743 73.647 54.4966C73.9693 54.8189 74.4065 55 74.8623 55H95.4873C95.9431 55 96.3803 54.8189 96.7026 54.4966C97.025 54.1743 97.2061 53.7371 97.2061 53.2812V46.4062C97.2061 45.9504 97.025 45.5132 96.7026 45.1909C96.3803 44.8686 95.9431 44.6875 95.4873 44.6875ZM28.4561 51.5625H11.2686V48.125H28.4561V51.5625ZM55.9561 61.875V65.3125H49.0811V61.875H55.9561ZM55.9561 51.5625H49.0811V48.125H55.9561V51.5625ZM93.7686 51.5625H76.5811V48.125H93.7686V51.5625Z" fill="#C97B00"/>
<path d="M42.7093 9.09766L32.3968 19.4102C32.0746 19.7325 31.8936 20.1696 31.8936 20.6253C31.8936 21.0811 32.0746 21.5182 32.3968 21.8405L42.7093 32.153L45.1396 29.7226L36.0422 20.6253L45.1396 11.528L42.7093 9.09766Z" fill="#C97B00"/>
<path d="M62.3278 9.09766L59.8975 11.528L68.9948 20.6253L59.8975 29.7226L62.3278 32.153L72.6403 21.8405C72.9625 21.5182 73.1435 21.0811 73.1435 20.6253C73.1435 20.1696 72.9625 19.7325 72.6403 19.4102L62.3278 9.09766Z" fill="#C97B00"/>
<path d="M56.0519 4.61404L45.7295 35.5488L48.9886 36.6363L59.3111 5.70155L56.0519 4.61404Z" fill="#C97B00"/>
</svg>
