<svg width="107" height="102" viewBox="0 0 107 102" fill="none" xmlns="http://www.w3.org/2000/svg">
<path d="M104.844 85.9373H101.406V39.531C101.403 36.7969 100.316 34.1755 98.3826 32.2422C96.4493 30.3088 93.8279 29.2214 91.0938 29.2185H85.4434C85.1532 28.6934 84.7265 28.2564 84.2084 27.9538C83.6902 27.6513 83.1 27.4944 82.5 27.4998H80.7813C80.779 25.2213 79.8728 23.0367 78.2617 21.4256C76.6506 19.8144 74.466 18.9083 72.1875 18.906H65.3125C63.034 18.9083 60.8495 19.8144 59.2383 21.4256C57.6272 23.0367 56.721 25.2213 56.7188 27.4998H55C54.3973 27.5008 53.8054 27.6601 53.2836 27.9617C52.7618 28.2634 52.3283 28.6967 52.0266 29.2185H47.5729C48.2963 25.9181 48.3167 22.5022 47.6327 19.1934C46.9486 15.8845 45.5755 12.7568 43.6026 10.0138C41.6297 7.27075 39.1013 4.97391 36.182 3.27274C33.2627 1.57157 30.0179 0.504211 26.6587 0.140125C23.2996 -0.223961 19.9014 0.12339 16.6854 1.15957C13.4694 2.19575 10.5076 3.89754 7.9928 6.15416C5.47803 8.41079 3.46663 11.1717 2.08952 14.2571C0.712417 17.3426 0.000466926 20.6834 1.11237e-05 24.0623C-0.00518726 29.4567 1.81175 34.6948 5.15626 38.9273V85.9373H1.71876C1.26292 85.9373 0.825749 86.1183 0.503421 86.4407C0.181093 86.763 1.11237e-05 87.2002 1.11237e-05 87.656V94.531C0.00171764 96.3538 0.726594 98.1015 2.01554 99.3905C3.30448 100.679 5.05217 101.404 6.87501 101.406H99.6875C101.51 101.404 103.258 100.679 104.547 99.3905C105.836 98.1015 106.561 96.3538 106.563 94.531V87.656C106.563 87.2002 106.381 86.763 106.059 86.4407C105.737 86.1183 105.3 85.9373 104.844 85.9373ZM80.7813 30.9373H82.4635C82.491 31.0054 82.5035 31.0787 82.5 31.1521V36.0935H80.7813V30.9373ZM80.7813 41.2498V39.531H82.5C84.3627 39.531 85.9375 38.055 85.9375 36.3084V32.656H91.0938C92.9166 32.6577 94.6643 33.3826 95.9532 34.6715C97.2422 35.9605 97.9671 37.7082 97.9688 39.531V85.9373H94.5313V60.156C94.5292 58.3724 93.8348 56.6592 92.5944 55.3775C91.354 54.0958 89.6645 53.3457 87.8818 53.2853L75.625 50.2195V49.1238C77.1562 48.4537 78.4592 47.3523 79.3748 45.9541C80.2905 44.5558 80.7792 42.9212 80.7813 41.2498ZM85.9375 72.1873V67.031C85.9375 66.5752 85.7564 66.138 85.4341 65.8157C85.1118 65.4933 84.6746 65.3123 84.2188 65.3123C83.7629 65.3123 83.3258 65.4933 83.0034 65.8157C82.6811 66.138 82.5 66.5752 82.5 67.031V85.9373H55V67.031C55 66.5752 54.8189 66.138 54.4966 65.8157C54.1743 65.4933 53.7371 65.3123 53.2813 65.3123C52.8254 65.3123 52.3882 65.4933 52.0659 65.8157C51.7436 66.138 51.5625 66.5752 51.5625 67.031V72.1873H46.4063V60.156C46.4075 59.2447 46.77 58.371 47.4144 57.7266C48.0588 57.0822 48.9324 56.7197 49.8438 56.7185C49.9843 56.7186 50.1243 56.7013 50.2606 56.667L62.5153 53.6033C63.785 55.5326 66.6703 56.7185 68.75 56.7185C70.0197 56.7185 71.616 56.2416 72.9158 55.4724C73.737 55.0133 74.4436 54.3743 74.9826 53.6033L87.2395 56.667C87.3757 56.7013 87.5157 56.7186 87.6563 56.7185C88.5676 56.7197 89.4412 57.0822 90.0856 57.7266C90.73 58.371 91.0926 59.2447 91.0938 60.156V72.1873H85.9375ZM91.0938 75.6248V85.9373H85.9375V75.6248H91.0938ZM59.4902 89.3748L58.9166 91.0935H47.6459L47.0723 89.3748H59.4902ZM46.4063 85.9373V75.6248H51.5625V85.9373H46.4063ZM65.3125 51.5623V49.8435H72.1875V51.558C72.1274 52.0027 70.327 53.281 68.75 53.281C67.1731 53.281 65.3705 52.0005 65.3125 51.5623ZM60.1563 27.4998C60.1581 26.1328 60.7019 24.8223 61.6685 23.8558C62.6351 22.8892 63.9455 22.3453 65.3125 22.3435H72.1875C73.3896 22.3452 74.5534 22.7664 75.4782 23.5343C76.4031 24.3023 77.0309 25.3689 77.2535 26.5502C73.3047 28.4537 64.8119 29.0681 60.1563 29.1927V27.4998ZM60.1563 32.6281C61.7311 32.5851 64.2254 32.482 66.9797 32.2177C71.3776 31.7988 74.843 31.1306 77.3438 30.2218V41.2498C77.3419 42.6167 76.7981 43.9272 75.8315 44.8938C74.8649 45.8604 73.5545 46.4042 72.1875 46.406H65.3125C64.5876 46.4063 63.8708 46.2533 63.2091 45.9571C62.5475 45.6609 61.9559 45.2282 61.4733 44.6873H67.0313C67.4871 44.6873 67.9243 44.5062 68.2466 44.1839C68.5689 43.8615 68.75 43.4244 68.75 42.9685C68.75 42.5127 68.5689 42.0755 68.2466 41.7532C67.9243 41.4308 67.4871 41.2498 67.0313 41.2498H60.1563V32.6281ZM55 30.9781C55 30.9652 55.0022 30.9523 55.0022 30.9373H56.7188V36.0935H55V30.9781ZM55 39.531H56.7188V41.2498H55V39.531ZM51.5625 32.656V42.9685C51.5625 43.4244 51.7436 43.8615 52.0659 44.1839C52.3882 44.5062 52.8254 44.6873 53.2813 44.6873H57.4385C58.3098 46.6693 59.8929 48.2525 61.875 49.1238V50.2195L49.6182 53.2853C47.8356 53.3457 46.146 54.0958 44.9056 55.3775C43.6652 56.6592 42.9708 58.3724 42.9688 60.156V85.9373H8.59376V42.4787C12.2318 45.5396 16.6956 47.4533 21.4209 47.9779C26.1463 48.5026 30.9211 47.6146 35.142 45.4263L40.5174 47.9615C40.8068 48.098 41.1286 48.151 41.4465 48.1145C41.7645 48.0781 42.0659 47.9536 42.3169 47.7551C42.5679 47.5565 42.7584 47.2919 42.8672 46.9909C42.9759 46.69 42.9984 46.3646 42.9322 46.0515L41.7399 40.3882C43.8238 38.1428 45.4569 35.5178 46.5502 32.656H51.5625ZM3.43751 24.0623C3.44225 21.0882 4.09015 18.1502 5.33677 15.45C6.5834 12.7498 8.39925 10.3511 10.6598 8.41842C12.9204 6.48576 15.5722 5.06486 18.4334 4.25315C21.2946 3.44145 24.2975 3.25813 27.2362 3.71578C30.1749 4.17344 32.9799 5.26123 35.4587 6.90456C37.9376 8.5479 40.0318 10.7079 41.5976 13.2365C43.1634 15.765 44.1638 18.6023 44.5303 21.5537C44.8968 24.5052 44.6206 27.501 43.7207 30.3357C43.6993 30.3904 43.6813 30.4463 43.667 30.5033C42.659 33.5716 40.9418 36.3591 38.6547 38.6394C38.4529 38.8416 38.3046 39.0908 38.2232 39.3646C38.1418 39.6384 38.1299 39.9282 38.1885 40.2078L38.8567 43.3789L35.8188 41.9459C35.5696 41.8284 35.2958 41.7728 35.0205 41.7837C34.7453 41.7945 34.4767 41.8715 34.2375 42.0082C31.0992 43.7855 27.5499 44.7091 23.9434 44.6869C20.3368 44.6648 16.7991 43.6977 13.6829 41.882C10.5667 40.0663 7.98081 37.4654 6.18315 34.3388C4.38549 31.2121 3.43882 27.6689 3.43751 24.0623ZM103.125 94.531C103.124 95.4423 102.761 96.316 102.117 96.9604C101.472 97.6048 100.599 97.9673 99.6875 97.9685H6.87501C5.9637 97.9673 5.09005 97.6048 4.44565 96.9604C3.80125 96.316 3.4387 95.4423 3.43751 94.531V89.3748H43.4479L44.7756 93.3558C44.8897 93.698 45.1086 93.9957 45.4012 94.2066C45.6939 94.4175 46.0455 94.531 46.4063 94.531H60.1563C60.517 94.531 60.8686 94.4175 61.1613 94.2066C61.454 93.9957 61.6728 93.698 61.7869 93.3558L63.1147 89.3748H103.125V94.531Z" fill="#A9ADB7"/>
<path d="M29.2187 91.0938H12.0312C11.5754 91.0938 11.1382 91.2748 10.8159 91.5972C10.4936 91.9195 10.3125 92.3567 10.3125 92.8125C10.3125 93.2683 10.4936 93.7055 10.8159 94.0278C11.1382 94.3502 11.5754 94.5312 12.0312 94.5312H29.2187C29.6746 94.5312 30.1118 94.3502 30.4341 94.0278C30.7564 93.7055 30.9375 93.2683 30.9375 92.8125C30.9375 92.3567 30.7564 91.9195 30.4341 91.5972C30.1118 91.2748 29.6746 91.0938 29.2187 91.0938Z" fill="#C97B00"/>
<path d="M36.0938 91.0938H34.375C33.9192 91.0938 33.482 91.2748 33.1597 91.5972C32.8373 91.9195 32.6562 92.3567 32.6562 92.8125C32.6562 93.2683 32.8373 93.7055 33.1597 94.0278C33.482 94.3502 33.9192 94.5312 34.375 94.5312H36.0938C36.5496 94.5312 36.9868 94.3502 37.3091 94.0278C37.6314 93.7055 37.8125 93.2683 37.8125 92.8125C37.8125 92.3567 37.6314 91.9195 37.3091 91.5972C36.9868 91.2748 36.5496 91.0938 36.0938 91.0938Z" fill="#C97B00"/>
<path d="M24.0625 41.2501C27.6894 41.2592 31.2249 40.1124 34.1558 37.9759V37.9738C35.7214 36.8382 37.084 35.4465 38.1863 33.8574C38.7586 33.0309 39.0221 32.0294 38.9306 31.0283C38.8391 30.0271 38.3984 29.0901 37.6857 28.381L33.9754 24.6707C33.1692 23.8658 32.0766 23.4138 30.9375 23.4138C29.7983 23.4138 28.7058 23.8658 27.8996 24.6707L25.3 27.2703C25.2205 27.3003 25.141 27.3283 25.0572 27.3541C24.4618 27.5333 23.829 27.5479 23.2259 27.3962C22.6229 27.2445 22.0723 26.9322 21.6326 26.4925C21.1929 26.0528 20.8806 25.5022 20.7289 24.8992C20.5772 24.2962 20.5918 23.6633 20.7711 23.0679C20.7969 22.9841 20.8248 22.9046 20.8549 22.8251L23.4545 20.2255C24.2593 19.4194 24.7113 18.3268 24.7113 17.1876C24.7113 16.0485 24.2593 14.9559 23.4545 14.1498L19.7441 10.4394C19.0351 9.72672 18.098 9.28607 17.0968 9.19455C16.0957 9.10304 15.0943 9.36649 14.2678 9.93881C12.6785 11.041 11.2868 12.4036 10.1513 13.9693H10.1492C8.2889 16.5344 7.17383 19.5638 6.92717 22.7229C6.68051 25.8819 7.31186 29.0477 8.75147 31.8705C10.1911 34.6932 12.3829 37.0631 15.0849 38.7184C17.7869 40.3736 20.8938 41.2498 24.0625 41.2501ZM30.3295 27.1005C30.4909 26.9396 30.7095 26.8492 30.9375 26.8492C31.1654 26.8492 31.3841 26.9396 31.5455 27.1005L35.2558 30.8109C35.3982 30.9508 35.4869 31.1363 35.5066 31.335C35.5262 31.5336 35.4755 31.7329 35.3633 31.898C34.7586 32.7685 34.0557 33.5665 33.2685 34.2763L28.2111 29.2189L30.3295 27.1005ZM16.2271 12.7619C16.3922 12.6497 16.5915 12.5989 16.7901 12.6186C16.9888 12.6382 17.1743 12.7269 17.3142 12.8693L21.0246 16.5796C21.1855 16.7411 21.2759 16.9597 21.2759 17.1876C21.2759 17.4156 21.1855 17.6342 21.0246 17.7957L18.9062 19.914L13.8488 14.8566C14.5586 14.0694 15.3566 13.3666 16.2271 12.7619ZM11.8551 17.7248L17.2519 23.1195C17.1069 24.1717 17.2074 25.2433 17.5458 26.2502C17.8841 27.257 18.4511 28.1719 19.2022 28.9229C19.9533 29.674 20.8681 30.241 21.875 30.5793C22.8818 30.9177 23.9534 31.0183 25.0056 30.8732L30.4004 36.2701C27.8064 37.6141 24.852 38.0976 21.9649 37.6504C19.0778 37.2033 16.4081 35.8487 14.3422 33.7829C12.2764 31.7171 10.9219 29.0473 10.4747 26.1602C10.0275 23.2732 10.511 20.3187 11.8551 17.7248Z" fill="#C97B00"/>
</svg>
