<?xml version="1.0" encoding="utf-8"?><svg xmlns="http://www.w3.org/2000/svg" xmlns:xlink="http://www.w3.org/1999/xlink"><symbol viewBox="0 0 21 12" id="arrows" xmlns="http://www.w3.org/2000/svg"><path d="M.063 9.64l6.62-3.66v-.16L.063 2.18V.04l8.6 4.82v2.08l-8.6 4.82V9.64zm11.992 0l6.62-3.66v-.16l-6.62-3.64V.04l8.6 4.82v2.08l-8.6 4.82V9.64z"/></symbol><symbol viewBox="0 0 22 24" id="basket" xmlns="http://www.w3.org/2000/svg"><g clip-path="url(#ba)"><path d="M10.363 18.443a2.046 2.046 0 00-2.045 2.042 2.046 2.046 0 004.09 0 2.046 2.046 0 00-2.045-2.042zm6.134 0a2.046 2.046 0 00-2.045 2.042 2.046 2.046 0 004.089 0 2.046 2.046 0 00-2.044-2.042zm3.978-8.199L7.413 6.891a.614.614 0 00-.75.73L8.67 16.4h-.786L5.482 5.895a.613.613 0 00-.474-.464l-4.27-.882A.614.614 0 00.489 5.75l3.885.802L6.797 17.15a.613.613 0 00.598.477h12.07a.615.615 0 00.607-.53l.858-6.175a.613.613 0 00-.455-.678zm-8.14 3.91a.613.613 0 01-1.227 0v-2.696a.613.613 0 011.227 0v2.696zm2.625 0a.613.613 0 01-1.227 0v-1.88a.613.613 0 011.227 0v1.88zm2.625 0a.613.613 0 01-1.227 0v-1.226a.613.613 0 011.227 0v1.226z"/></g><path fill-rule="evenodd" clip-rule="evenodd" d="M16.268 4.568a2.996 2.996 0 00-1.693-.523c-.627 0-1.21.193-1.693.523-.28-.843-.492-1.752-.492-2.383C12.39.98 13.37 0 14.575 0s2.185.98 2.185 2.185c0 .631-.212 1.54-.492 2.383zm-4.722 2.274l.024.006v-.011l-.024.005zm4.972 1.217c-1.333-.33-2.766-.681-4.129-1.013a2.185 2.185 0 114.129 1.013zm4.436 1.103c-.866-.217-2.155-.538-3.618-.9a2.995 2.995 0 00.243-1.425c.87.18 1.762.45 2.308.765.596.344.969.928 1.067 1.56zM9.869 6.439c-.36-.086-.706-.167-1.03-.243a2.19 2.19 0 01-.376-2.667 2.188 2.188 0 013.147-.7c.098.738.338 1.599.61 2.353a3.01 3.01 0 00-.449.774c-.628.113-1.305.278-1.902.483zm10.124.075a3.43 3.43 0 01-.217.114c-.696-.295-1.587-.526-2.397-.672a3.01 3.01 0 00-.449-.774c.262-.727.494-1.553.599-2.273.095-.067.189-.128.278-.18a2.188 2.188 0 012.986.8 2.188 2.188 0 01-.8 2.985z"/><defs><clipPath id="ba"><path transform="translate(0 3.064)" d="M0 0h20.936v20.936H0z"/></clipPath></defs></symbol><symbol viewBox="0 0 344.96 344.96" id="check" xmlns="http://www.w3.org/2000/svg"><g data-name="Слой 2"><path class="ccls-1" d="M321.85 86.24l-40-23.11-23.1-40H212.5L172.48 0l-40 23.11H86.24l-23.11 40-40 23.1v46.21L0 172.48l23.11 40v46.21l40 23.11 23.11 40h46.21l40 23.1 40-23.11h46.21l23.11-40 40-23.11V212.5l23.11-40-23.11-40V86.24zM156.91 243.07a16.79 16.79 0 01-23.34 0l-50.45-50.44a16.19 16.19 0 010-22.89l13.35-13.35a16.19 16.19 0 0122.89 0l25.87 25.87 80.34-80.35a16.19 16.19 0 0122.89 0l13.35 13.35a16.19 16.19 0 010 22.89z" data-name="Capa 1"/></g></symbol><symbol viewBox="0 0 26 26" id="close" xmlns="http://www.w3.org/2000/svg"><path d="M1 1l24 24m0-24L1 25"/></symbol><symbol viewBox="0 0 24 24" id="fb" xmlns="http://www.w3.org/2000/svg"><path d="M13.397 20.997v-8.196h2.765l.411-3.209h-3.176V7.548c0-.926.258-1.56 1.587-1.56h1.684v-2.86A22.108 22.108 0 0014.201 3c-2.444 0-4.122 1.492-4.122 4.231v2.355H7.332v3.21h2.753v8.201h3.312z"/></symbol><symbol viewBox="0 0 19 214" id="form-teeth" xmlns="http://www.w3.org/2000/svg"><path d="M.55 213.266l17.96-6.74v-1.94l-17.96 6.74v1.94zm0-18.732l17.96 6.74v-1.94l-17.96-6.74v1.94zm0-5.252l17.96-6.74v-1.94l-17.96 6.74v1.94zm0-18.732l17.96 6.74v-1.94L.55 168.61v1.94zm0-5.252l17.96-6.74v-1.94l-17.96 6.74v1.94zm0-18.732l17.96 6.74v-1.94l-17.96-6.74v1.94zm0-5.253l17.96-6.74v-1.94l-17.96 6.74v1.94zm0-18.732l17.96 6.74v-1.94l-17.96-6.74v1.94zm0-5.252l17.96-6.74v-1.94l-17.96 6.74v1.94zm0-18.732l17.96 6.74v-1.94L.55 96.657v1.94zm0-5.252l17.96-6.74v-1.94L.55 91.405v1.94zm0-18.733l17.96 6.74v-1.94L.55 72.672v1.94zm0-5.252l17.96-6.74v-1.94L.55 67.42v1.94zm0-18.732l17.96 6.74v-1.94L.55 48.688v1.94zm0-5.252l17.96-6.74v-1.94L.55 43.436v1.94zm0-18.732l17.96 6.74v-1.94L.55 24.704v1.94zm0-5.252l17.96-6.74v-1.94L.55 19.451v1.94zm0-18.733L18.51 9.4V7.46L.55.72v1.94z"/></symbol><symbol viewBox="0 0 24 24" id="instagram" xmlns="http://www.w3.org/2000/svg"><path d="M11.999 7.377a4.624 4.624 0 100 9.248 4.624 4.624 0 000-9.248zm0 7.627a3.004 3.004 0 110-6.008 3.004 3.004 0 010 6.008zm4.807-6.719a1.078 1.078 0 100-2.156 1.078 1.078 0 000 2.156z"/><path d="M20.533 6.11A4.605 4.605 0 0017.9 3.48a6.607 6.607 0 00-2.186-.42c-.963-.042-1.268-.054-3.71-.054s-2.755 0-3.71.054a6.554 6.554 0 00-2.184.42 4.6 4.6 0 00-2.633 2.63 6.585 6.585 0 00-.419 2.186c-.043.962-.056 1.267-.056 3.71 0 2.442 0 2.753.056 3.71.015.748.156 1.486.419 2.187a4.61 4.61 0 002.634 2.632 6.583 6.583 0 002.185.45c.963.042 1.268.055 3.71.055s2.755 0 3.71-.055a6.616 6.616 0 002.186-.42 4.613 4.613 0 002.633-2.632c.263-.7.404-1.438.419-2.186.043-.962.056-1.267.056-3.71s0-2.753-.056-3.71a6.583 6.583 0 00-.421-2.217zm-1.218 9.533a5.046 5.046 0 01-.311 1.688 2.987 2.987 0 01-1.712 1.71c-.535.2-1.1.305-1.67.312-.95.044-1.218.055-3.654.055-2.438 0-2.687 0-3.655-.055a4.961 4.961 0 01-1.67-.311 2.984 2.984 0 01-1.718-1.711 5.08 5.08 0 01-.311-1.67c-.043-.95-.053-1.217-.053-3.653 0-2.437 0-2.686.053-3.655a5.038 5.038 0 01.311-1.687c.305-.79.93-1.41 1.719-1.712a5.01 5.01 0 011.669-.311c.95-.043 1.218-.055 3.655-.055s2.687 0 3.654.055a4.96 4.96 0 011.67.31 2.99 2.99 0 011.712 1.713 5.06 5.06 0 01.311 1.669c.043.95.054 1.218.054 3.655 0 2.436 0 2.698-.043 3.654h-.011v-.001z"/></symbol><symbol viewBox="0 0 74 74" id="left-arrow" xmlns="http://www.w3.org/2000/svg"><path d="M49.888 48.92l-19.86-10.98v-.48l19.86-10.92v-6.42l-25.8 14.46v6.24l25.8 14.46v-6.36z"/></symbol><symbol viewBox="0 0 2 18" id="line" xmlns="http://www.w3.org/2000/svg"><path d="M1 0v18"/></symbol><symbol viewBox="0 0 159 20" id="logo-2" xmlns="http://www.w3.org/2000/svg"><g clip-path="url(#ja)"><path d="M4.498 0l1.547.474L1.593 20 0 19.526 4.498 0zm8.669 0l1.547.474L10.262 20l-1.593-.474L13.167 0zm8.669 0l1.547.474L18.93 20l-1.593-.474L21.836 0zm9.694 17.872V6.712h1.606V8.01h.086c.174-.432.42-.8.738-1.103.318-.303.788-.454 1.41-.454.65 0 1.135.166 1.453.497.318.318.513.736.585 1.255h.065a3.26 3.26 0 01.868-1.255c.376-.331.896-.497 1.561-.497.911 0 1.518.317 1.822.952.318.634.477 1.542.477 2.725v7.742h-1.605v-7.461c0-.952-.1-1.608-.303-1.968-.188-.375-.542-.563-1.063-.563-.463 0-.839.152-1.128.455-.289.288-.433.735-.433 1.34v8.197h-1.605v-7.461c0-.952-.102-1.608-.304-1.968-.188-.375-.535-.563-1.041-.563-.463 0-.846.152-1.15.455-.289.288-.433.735-.433 1.34v8.197H31.53zm18.536.26c-.81 0-1.54-.137-2.19-.411a4.768 4.768 0 01-1.65-1.168 5.587 5.587 0 01-1.04-1.838c-.246-.721-.369-1.521-.369-2.401 0-.894.123-1.701.369-2.422.26-.721.614-1.334 1.063-1.839a4.487 4.487 0 011.604-1.189 5.264 5.264 0 012.104-.41c.752 0 1.431.136 2.039.41.621.274 1.15.656 1.583 1.146.434.476.766 1.046.998 1.709.231.663.347 1.391.347 2.184v.822h-8.285v.519c0 .49.08.944.238 1.363.16.418.384.778.673 1.08.303.304.665.542 1.084.714.434.16.911.238 1.432.238.751 0 1.402-.173 1.951-.519.55-.346.97-.822 1.258-1.427l1.28.865c-.333.75-.89 1.37-1.67 1.86-.766.476-1.706.714-2.82.714zM49.957 7.88a3.332 3.332 0 00-2.386.974c-.289.302-.52.663-.694 1.081a3.63 3.63 0 00-.238 1.34v.152h6.42v-.238c0-.49-.08-.937-.24-1.34a2.9 2.9 0 00-.628-1.039 2.51 2.51 0 00-.976-.692 3.206 3.206 0 00-1.258-.238zm13.987 9.992a3 3 0 01-3-3V8.183h-3.73v-1.47h2.776c.376 0 .636-.072.781-.217.159-.158.239-.425.239-.8v-2.92h1.67v3.937h5.096v1.47H62.68v7.219a1 1 0 001 1h4.096v1.47h-3.831zm16.164 0c-.68 0-1.164-.173-1.453-.519-.289-.346-.47-.779-.542-1.298h-.109a3.166 3.166 0 01-1.192 1.536c-.535.36-1.258.54-2.17.54-1.17 0-2.103-.302-2.797-.908-.694-.605-1.04-1.434-1.04-2.487 0-1.038.375-1.838 1.127-2.4.766-.563 1.995-.844 3.687-.844h2.385V10.39c0-.822-.23-1.434-.694-1.838-.462-.418-1.12-.627-1.973-.627-.752 0-1.367.151-1.844.454-.477.288-.86.685-1.15 1.19l-1.17-.866c.144-.288.34-.57.585-.843a3.52 3.52 0 01.911-.714 4.525 4.525 0 011.237-.497c.462-.13.975-.195 1.54-.195 1.315 0 2.356.332 3.122.995.781.663 1.172 1.586 1.172 2.768v6.142h1.56v1.514h-1.193zm-5.162-1.19c.449 0 .853-.05 1.215-.15.376-.116.701-.26.976-.433a2.06 2.06 0 00.629-.65c.159-.259.238-.533.238-.82v-1.84H75.62c-1.041 0-1.8.145-2.277.433-.478.289-.716.707-.716 1.255v.454c0 .577.202 1.016.607 1.32.42.287.99.432 1.713.432zm14.067 1.45c-1.17 0-2.183-.195-3.036-.584a6.799 6.799 0 01-2.147-1.6l1.171-1.017a5.96 5.96 0 001.757 1.298c.636.302 1.403.454 2.299.454.867 0 1.576-.152 2.125-.454.564-.318.846-.808.846-1.471 0-.288-.058-.526-.173-.714a1.151 1.151 0 00-.434-.476 2.22 2.22 0 00-.629-.26 5.528 5.528 0 00-.737-.172l-1.757-.26c-.39-.057-.817-.137-1.28-.238a4.4 4.4 0 01-1.236-.475 3.176 3.176 0 01-.954-.909c-.246-.375-.369-.865-.369-1.47 0-.563.108-1.046.325-1.45.232-.417.55-.764.955-1.037a4.038 4.038 0 011.431-.628 7.08 7.08 0 011.8-.216c1.012 0 1.887.159 2.624.476a5.67 5.67 0 011.93 1.32l-1.127 1.059a3.174 3.174 0 00-.499-.476 2.65 2.65 0 00-.716-.454 4.06 4.06 0 00-.976-.346 5.84 5.84 0 00-1.3-.13c-.883 0-1.562.151-2.04.454-.462.303-.694.743-.694 1.32 0 .288.051.533.152.735.116.187.268.339.456.454.188.115.397.209.629.281.245.058.491.108.737.151l1.757.26a16.3 16.3 0 011.28.238c.448.1.86.267 1.236.497.376.217.686.512.932.887.26.375.39.865.39 1.47 0 1.11-.433 1.969-1.3 2.574-.854.606-1.996.909-3.428.909zm8.494-16.264h1.735V8.53h.087a4.11 4.11 0 01.433-.778c.174-.26.383-.483.629-.67.261-.188.564-.34.911-.455a3.857 3.857 0 011.215-.173c1.171 0 2.111.375 2.819 1.125.709.735 1.063 1.78 1.063 3.136v7.158h-1.735v-6.856c0-1.023-.224-1.78-.672-2.27-.449-.505-1.107-.757-1.974-.757-.347 0-.687.043-1.019.13a2.928 2.928 0 00-.89.389 2 2 0 00-.629.67 1.86 1.86 0 00-.238.952v7.742h-1.735V1.868zm21.614 16.004c-.679 0-1.164-.173-1.453-.519-.289-.346-.47-.779-.542-1.298h-.108a3.17 3.17 0 01-1.193 1.536c-.535.36-1.258.54-2.169.54-1.171 0-2.104-.302-2.798-.908-.694-.605-1.041-1.434-1.041-2.487 0-1.038.376-1.838 1.128-2.4.766-.563 1.995-.844 3.687-.844h2.386V10.39c0-.822-.232-1.434-.694-1.838-.463-.418-1.121-.627-1.974-.627-.752 0-1.366.151-1.844.454-.477.288-.86.685-1.149 1.19l-1.171-.866c.144-.288.34-.57.585-.843a3.52 3.52 0 01.911-.714 4.538 4.538 0 011.236-.497c.463-.13.976-.195 1.54-.195 1.316 0 2.357.332 3.123.995.781.663 1.172 1.586 1.172 2.768v6.142h1.561v1.514h-1.193zm-5.161-1.19c.448 0 .853-.05 1.214-.15.376-.116.701-.26.976-.433a2.06 2.06 0 00.629-.65c.159-.259.239-.533.239-.82v-1.84h-2.386c-1.041 0-1.8.145-2.277.433-.478.289-.716.707-.716 1.255v.454c0 .577.202 1.016.607 1.32.419.287.991.432 1.714.432zm9.1-.281h3.275V8.183h-3.275v-1.47h5.01v2.14s1.308-2.14 3.882-2.14h1.562v1.73c-3.034-.57-3.474.216-4.601 1.773-.707.977-.843 2.032-.843 2.969V16.4h4.338v1.471h-9.348v-1.47zm13.612-14.533h1.735v10.1h.086l1.952-1.838 3.731-3.417h2.125l-4.641 4.368 5.183 6.791h-2.147l-4.359-5.796-1.93 1.752v4.044h-1.735V1.868zm17.363 16.264c-1.171 0-2.183-.195-3.036-.584a6.796 6.796 0 01-2.147-1.6l1.171-1.017a5.964 5.964 0 001.757 1.298c.636.302 1.402.454 2.299.454.867 0 1.576-.152 2.125-.454.564-.318.846-.808.846-1.471 0-.288-.058-.526-.174-.714a1.148 1.148 0 00-.433-.476 2.225 2.225 0 00-.629-.26 5.53 5.53 0 00-.738-.172l-1.756-.26a19.239 19.239 0 01-1.28-.238c-.448-.1-.86-.26-1.236-.475a3.187 3.187 0 01-.955-.909c-.245-.375-.368-.865-.368-1.47 0-.563.108-1.046.325-1.45.231-.417.55-.764.954-1.037a4.038 4.038 0 011.432-.628 7.075 7.075 0 011.8-.216c1.012 0 1.887.159 2.624.476a5.669 5.669 0 011.93 1.32l-1.127 1.059a3.234 3.234 0 00-.499-.476 2.654 2.654 0 00-.716-.454c-.275-.144-.6-.26-.976-.346a5.842 5.842 0 00-1.301-.13c-.882 0-1.562.151-2.039.454-.463.303-.694.743-.694 1.32 0 .288.051.533.152.735.116.187.267.339.455.454.188.115.398.209.629.281.246.058.492.108.738.151l1.756.26c.405.058.832.137 1.28.238.448.1.86.267 1.236.497.376.217.687.512.933.887.26.375.39.865.39 1.47 0 1.11-.433 1.969-1.301 2.574-.853.606-1.995.909-3.427.909z"/></g><defs><clipPath id="ja"><path d="M0 0h158.571v20H0z"/></clipPath></defs></symbol><symbol viewBox="0 0 10 32" id="slash" xmlns="http://www.w3.org/2000/svg"><path d="M7.533 0L10 .758 2.897 32l-2.542-.758L7.533 0z"/></symbol><symbol viewBox="0 0 180 37" id="teeth" xmlns="http://www.w3.org/2000/svg"><path d="M.6 36.819L14.52.899h2.88L3.48 36.819H.6zm31.904 0L18.584.899h2.88l13.92 35.92h-2.88zm4.065 0L50.489.899h2.88l-13.92 35.92h-2.88zm31.904 0L54.553.899h2.88l13.92 35.92h-2.88zm4.064 0L86.457.899h2.88l-13.92 35.92h-2.88zm31.905 0L90.522.899h2.88l13.92 35.92h-2.88zm4.064 0l13.92-35.92h2.88l-13.92 35.92h-2.88zm31.905 0L126.491.899h2.88l13.92 35.92h-2.88zm4.064 0l13.92-35.92h2.88l-13.92 35.92h-2.88zm31.904 0L162.459.899h2.88l13.92 35.92h-2.88z"/></symbol><symbol viewBox="0 0 46 46" id="telegram" xmlns="http://www.w3.org/2000/svg"><path d="M46 23C46 10.298 35.702 0 23 0S0 10.298 0 23s10.298 23 23 23 23-10.298 23-23zM2.09 23C2.09 11.452 11.453 2.09 23 2.09S43.91 11.453 43.91 23 34.547 43.91 23 43.91 2.09 34.547 2.09 23z"/><g clip-path="url(#ma)"><path d="M28.366 35.074a.974.974 0 01-.547-.168l-6.187-4.196-3.318 2.387a.975.975 0 01-1.51-.542l-1.667-6.314-5.953-2.276a.974.974 0 01-.012-1.815l22.636-9.007a.972.972 0 011.114.256.97.97 0 01.221.836l-3.82 20.047a.974.974 0 01-.957.792zm-6.19-6.35l5.51 3.738 2.973-15.599-10.737 10.333 2.227 1.51a.616.616 0 01.026.018zm-4.588-.83l.738 2.795 1.59-1.144-2.082-1.412a.971.971 0 01-.246-.24zm-5.376-4.857l4.087 1.563a.974.974 0 01.594.661l.519 1.965a.974.974 0 01.293-.6l10.232-9.846-15.725 6.257z"/></g><defs><clipPath id="ma"><path transform="translate(8.558 11.768)" d="M0 0h24.605v24.605H0z"/></clipPath></defs></symbol><symbol viewBox="0 0 24 18" id="top-arrow" xmlns="http://www.w3.org/2000/svg"><path d="M13.88.408H9.72l-9.64 17.2h4.24l7.32-13.24h.32l7.28 13.24h4.28L13.88.408z"/></symbol><symbol viewBox="0 0 16 16" id="viber" xmlns="http://www.w3.org/2000/svg"><path d="M8 1.335c-1.071.013-3.374.19-4.662 1.37-.958.948-1.292 2.35-1.331 4.084-.033 1.728-.072 4.973 3.058 5.856v1.346s-.02.538.337.648c.438.14.688-.275 1.105-.72l.778-.879c2.142.178 3.782-.232 3.97-.293.435-.139 2.883-.451 3.283-3.696.41-3.351-.2-5.463-1.301-6.418h-.007c-.332-.306-1.668-1.279-4.652-1.29 0 0-.222-.014-.578-.008zm.037.942a7.02 7.02 0 01.488.011c2.527.007 3.732.767 4.017 1.023.927.794 1.405 2.697 1.055 5.495-.332 2.713-2.317 2.885-2.685 3.002-.156.05-1.6.406-3.42.289 0 0-1.356 1.634-1.78 2.055-.067.074-.146.095-.196.085-.071-.018-.093-.107-.089-.229l.013-2.233c-2.655-.733-2.498-3.5-2.47-4.946.033-1.446.304-2.628 1.113-3.43 1.088-.982 3.043-1.115 3.953-1.122zm.2 1.446a.166.166 0 100 .332 3.136 3.136 0 012.242.883c.606.588.9 1.378.912 2.411 0 .092.074.167.167.167V7.51a.167.167 0 00.168-.165 3.588 3.588 0 00-1.009-2.646c-.66-.645-1.496-.977-2.48-.977zm-2.198.382a.523.523 0 00-.342.067H5.69a2.61 2.61 0 00-.637.523 1.003 1.003 0 00-.256.525.71.71 0 00.026.302l.01.006c.172.504.396.988.67 1.444a8.48 8.48 0 001.29 1.762l.015.022.024.017.015.018.017.015c.532.505 1.127.94 1.769 1.295.734.4 1.18.588 1.447.667v.004c.078.024.15.034.221.034.228-.016.444-.109.613-.262a2.53 2.53 0 00.517-.638v-.004c.128-.241.085-.469-.1-.623-.37-.323-.77-.61-1.195-.857-.285-.155-.574-.061-.69.095l-.25.315c-.129.156-.361.134-.361.134l-.007.004C7.093 8.527 6.63 6.772 6.63 6.772s-.022-.239.139-.36l.312-.252c.15-.122.254-.41.094-.695a7.498 7.498 0 00-.856-1.194.475.475 0 00-.28-.167zm2.486.495c-.221 0-.221.334.003.334A2.098 2.098 0 0110 5.572 1.94 1.94 0 0110.5 7a.168.168 0 00.167.165l.007.009a.169.169 0 00.167-.167c.015-.662-.191-1.218-.595-1.663C9.84 4.9 9.273 4.65 8.549 4.6h-.024zm.274.898c-.228-.006-.236.335-.01.341.55.029.816.306.851.877a.166.166 0 00.165.163h.007a.168.168 0 00.16-.178c-.039-.744-.445-1.164-1.166-1.202H8.8z"/></symbol><symbol viewBox="0 0 24 24" id="vk" xmlns="http://www.w3.org/2000/svg"><path d="M21.579 6.855c.14-.465 0-.806-.662-.806h-2.193c-.558 0-.813.295-.953.619 0 0-1.115 2.719-2.695 4.482-.51.513-.743.675-1.021.675-.139 0-.341-.162-.341-.627V6.855c0-.558-.161-.806-.626-.806H9.642c-.348 0-.558.258-.558.504 0 .528.79.65.871 2.138v3.228c0 .707-.127.836-.407.836-.743 0-2.551-2.73-3.624-5.853-.209-.607-.42-.852-.98-.852H2.752c-.627 0-.752.295-.752.619 0 .582.743 3.462 3.461 7.27 1.812 2.602 4.363 4.012 6.687 4.012 1.393 0 1.565-.313 1.565-.853v-1.966c0-.626.133-.752.574-.752.324 0 .882.164 2.183 1.417 1.486 1.486 1.732 2.153 2.567 2.153h2.192c.626 0 .939-.313.759-.931-.197-.615-.907-1.51-1.849-2.57-.512-.603-1.277-1.253-1.51-1.578-.325-.42-.231-.604 0-.976.001 0 2.672-3.761 2.95-5.04z"/></symbol><symbol viewBox="0 0 16 16" id="whatsapp" xmlns="http://www.w3.org/2000/svg"><path fill-rule="evenodd" clip-rule="evenodd" d="M12.269 3.755A5.947 5.947 0 008.035 2 5.994 5.994 0 002.05 7.985a5.98 5.98 0 00.799 2.992L2 14.077l3.173-.832c.877.477 1.86.728 2.86.728h.002a5.993 5.993 0 005.533-8.276 5.953 5.953 0 00-1.3-1.942zm-4.234 9.208h-.002c-.89 0-1.765-.24-2.532-.694l-.181-.108-1.883.494.502-1.835-.118-.188a4.965 4.965 0 01-.76-2.647 4.982 4.982 0 016.88-4.597c.604.25 1.152.618 1.613 1.081a4.946 4.946 0 011.455 3.52 4.982 4.982 0 01-4.974 4.974zm2.729-3.726c-.15-.075-.885-.436-1.022-.486-.137-.05-.236-.075-.336.074-.1.15-.387.486-.474.586-.087.1-.175.112-.324.038-.15-.075-.631-.233-1.203-.742a4.505 4.505 0 01-.832-1.036c-.087-.15-.009-.231.066-.306.068-.066.15-.174.224-.262.075-.087.1-.149.15-.249.05-.1.025-.187-.013-.262-.037-.075-.337-.811-.461-1.11-.121-.29-.244-.252-.336-.256a6.418 6.418 0 00-.286-.005.55.55 0 00-.4.186c-.137.15-.523.512-.523 1.248s.536 1.447.61 1.547c.075.1 1.055 1.61 2.555 2.258.358.154.636.246.853.315.358.114.684.098.942.06.287-.043.885-.362 1.01-.711.124-.35.124-.649.087-.711-.038-.063-.138-.101-.287-.176z"/></symbol></svg>