<svg width="95" height="110" viewBox="0 0 95 110" fill="none" xmlns="http://www.w3.org/2000/svg">
<path d="M72.3862 40.8885V45.844C72.3862 47.3201 73.5919 48.522 75.0725 48.522H92.2904C93.771 48.522 94.9767 47.3201 94.9767 45.844V40.8885C94.9767 37.388 92.6923 34.4147 89.5406 33.3814C90.577 32.0951 91.2116 30.4503 91.2116 28.6789C91.2116 24.5458 87.8484 21.1719 83.6815 21.1719C79.5356 21.1719 76.1513 24.5247 76.1513 28.6789C76.1513 30.4503 76.7859 32.0951 77.8223 33.3814C74.6707 34.4147 72.3862 37.388 72.3862 40.8885ZM83.6815 24.356C86.0717 24.356 87.9965 26.2961 87.9965 28.6578C87.9965 31.0407 86.0505 32.9596 83.6815 32.9596C81.2913 32.9596 79.3664 31.0196 79.3664 28.6578C79.3453 26.275 81.2913 24.356 83.6815 24.356ZM75.5802 40.8885C75.5802 38.2736 77.7166 36.1649 80.3183 36.1649H87.0235C89.6464 36.1649 91.7616 38.2947 91.7616 40.8885V45.3168H90.0906V40.6565C90.0906 39.7708 89.3714 39.0539 88.483 39.0539C87.5946 39.0539 86.8754 39.7708 86.8754 40.6565V45.3168H80.4452V40.6565C80.4452 39.7708 79.726 39.0539 78.8376 39.0539C77.9492 39.0539 77.2301 39.7708 77.2301 40.6565V45.3168H75.559L75.5802 40.8885Z" fill="#A9ADB7"/>
<path d="M36.6401 19.7166V24.6721C36.6401 26.1482 37.8458 27.3502 39.3265 27.3502H56.5443C58.0249 27.3502 59.2306 26.1482 59.2306 24.6721V19.7166C59.2306 16.2161 56.9462 13.2428 53.7945 12.2095C54.8309 10.9232 55.4655 9.27839 55.4655 7.50706C55.4655 3.37396 52.1023 0 47.9354 0C43.7684 0 40.4052 3.35287 40.4052 7.50706C40.4052 9.27839 41.0398 10.9232 42.0762 12.2095C38.9457 13.2428 36.6401 16.2161 36.6401 19.7166ZM47.9354 3.18417C50.3256 3.18417 52.2504 5.1242 52.2504 7.48597C52.2504 9.86883 50.3044 11.7878 47.9354 11.7878C45.5452 11.7878 43.6203 9.84775 43.6203 7.48597C43.6203 5.1242 45.5663 3.18417 47.9354 3.18417ZM39.8553 19.7166C39.8553 17.1018 41.9916 14.993 44.5933 14.993H51.2985C53.9214 14.993 56.0366 17.1228 56.0366 19.7166V24.1449H54.3656V19.4846C54.3656 18.599 53.6464 17.882 52.758 17.882C51.8697 17.882 51.1505 18.599 51.1505 19.4846V24.1449H44.7202V19.4846C44.7202 18.599 44.0011 17.882 43.1127 17.882C42.2243 17.882 41.5051 18.599 41.5051 19.4846V24.1449H39.8341L39.8553 19.7166Z" fill="#A9ADB7"/>
<path d="M0.956543 40.8875V45.843C0.956543 47.3191 2.16221 48.5211 3.64286 48.5211H20.8607C22.3413 48.5211 23.547 47.3191 23.547 45.843V40.8875C23.547 37.387 21.2626 34.4137 18.1109 33.3804C19.1474 32.0941 19.7819 30.4493 19.7819 28.678C19.7819 24.5449 16.4187 21.1709 12.2518 21.1709C8.10596 21.1709 4.72162 24.5238 4.72162 28.678C4.72162 30.4493 5.35618 32.0941 6.39264 33.3804C3.24097 34.4137 0.956543 37.387 0.956543 40.8875ZM12.2518 24.3551C14.642 24.3551 16.5668 26.2951 16.5668 28.6569C16.5668 31.0397 14.6208 32.9587 12.2518 32.9587C9.86158 32.9587 7.93674 31.0186 7.93674 28.6569C7.93674 26.274 9.86158 24.3551 12.2518 24.3551ZM4.15051 40.8875C4.15051 38.2727 6.28688 36.1639 8.88859 36.1639H15.5938C18.2167 36.1639 20.3319 38.2937 20.3319 40.8875V45.3158H18.6609V40.6555C18.6609 39.7699 17.9417 39.0529 17.0533 39.0529C16.1649 39.0529 15.4457 39.7699 15.4457 40.6555V45.3158H9.03665V40.6555C9.03665 39.7699 8.31748 39.0529 7.42909 39.0529C6.5407 39.0529 5.82153 39.7699 5.82153 40.6555V45.3158H4.15051V40.8875Z" fill="#A9ADB7"/>
<path d="M72.3862 82.9787C72.3862 84.4548 73.5919 85.6568 75.0725 85.6568H92.2904C93.771 85.6568 94.9767 84.4548 94.9767 82.9787V78.0232C94.9767 74.5227 92.6923 71.5494 89.5406 70.5162C90.577 69.2298 91.2116 67.585 91.2116 65.8137C91.2116 61.6806 87.8484 58.3066 83.6815 58.3066C79.5356 58.3066 76.1513 61.6595 76.1513 65.8137C76.1513 67.585 76.7859 69.2298 77.8223 70.5162C74.6707 71.5705 72.3862 74.5438 72.3862 78.0232V82.9787ZM83.6815 61.5119C86.0717 61.5119 87.9965 63.4519 87.9965 65.8137C87.9965 68.1966 86.0505 70.1155 83.6815 70.1155C81.2913 70.1155 79.3664 68.1755 79.3664 65.8137C79.3453 63.4308 81.2913 61.5119 83.6815 61.5119ZM75.5802 78.0232C75.5802 75.4084 77.7166 73.2997 80.3183 73.2997H87.0235C89.6464 73.2997 91.7616 75.4295 91.7616 78.0232V82.4515H90.0906V77.8123C90.0906 76.9267 89.3714 76.2097 88.483 76.2097C87.5946 76.2097 86.8754 76.9267 86.8754 77.8123V82.4515H80.4452V77.8123C80.4452 76.9267 79.726 76.2097 78.8376 76.2097C77.9492 76.2097 77.2301 76.9267 77.2301 77.8123V82.4515H75.559L75.5802 78.0232Z" fill="#A9ADB7"/>
<path d="M0.956543 82.9787C0.956543 84.4548 2.16221 85.6568 3.64286 85.6568H20.8607C22.3413 85.6568 23.547 84.4548 23.547 82.9787V78.0232C23.547 74.5227 21.2626 71.5494 18.1109 70.5162C19.1474 69.2298 19.7819 67.585 19.7819 65.8137C19.7819 61.6806 16.4187 58.3066 12.2518 58.3066C8.10596 58.3066 4.72162 61.6595 4.72162 65.8137C4.72162 67.585 5.35618 69.2298 6.39264 70.5162C3.24097 71.5705 0.956543 74.5227 0.956543 78.0232V82.9787ZM12.2518 61.5119C14.642 61.5119 16.5668 63.4519 16.5668 65.8137C16.5668 68.1966 14.6208 70.1155 12.2518 70.1155C9.86158 70.1155 7.93674 68.1755 7.93674 65.8137C7.93674 63.4308 9.86158 61.5119 12.2518 61.5119ZM4.15051 78.0232C4.15051 75.4084 6.28688 73.2997 8.88859 73.2997H15.5938C18.2167 73.2997 20.3319 75.4295 20.3319 78.0232V82.4515H18.6609V77.8123C18.6609 76.9267 17.9417 76.2097 17.0533 76.2097C16.1649 76.2097 15.4457 76.9267 15.4457 77.8123V82.4515H9.03665V77.8123C9.03665 76.9267 8.31748 76.2097 7.42909 76.2097C6.5407 76.2097 5.82153 76.9267 5.82153 77.8123V82.4515H4.15051V78.0232Z" fill="#A9ADB7"/>
<path d="M25.0923 67.6681C25.5365 68.4273 26.5095 68.7014 27.271 68.2586L30.1688 66.5927C33.7647 71.8434 39.645 75.4282 46.3502 75.9132V79.245C46.3502 80.1307 47.0694 80.8477 47.9577 80.8477C48.8461 80.8477 49.5653 80.1307 49.5653 79.245V75.9132C56.2282 75.4282 62.1297 71.8856 65.7467 66.5927L68.6445 68.2586C69.406 68.7014 70.379 68.4484 70.8232 67.6681C71.2674 66.909 70.9924 65.939 70.2309 65.4961L67.3542 63.8302C68.158 62.1854 68.7503 60.393 69.1099 58.5373C69.2791 57.6728 68.708 56.8293 67.8407 56.6817C66.9735 56.513 66.1274 57.0823 65.9793 57.9469C64.3506 66.4451 56.8628 72.7923 47.9789 72.7923C37.8682 72.7923 29.6612 64.5894 29.6612 54.5308C29.6612 44.4721 37.8893 36.2692 47.9789 36.2692C54.663 36.2692 60.6279 39.8751 63.8218 45.3578C63.8218 45.3789 63.843 45.3789 63.843 45.4L63.8641 45.4211C64.8583 47.1502 65.5986 49.0481 65.9793 51.1146C66.1486 51.9792 66.9735 52.5486 67.8407 52.3799C68.708 52.2112 69.2791 51.3888 69.1099 50.5242C68.7503 48.6474 68.158 46.8761 67.3542 45.2313L70.2309 43.5654C70.9924 43.1226 71.2674 42.1525 70.8232 41.3934C70.379 40.6343 69.406 40.3601 68.6445 40.803L65.7467 42.4689C62.1297 37.176 56.2071 33.6544 49.5653 33.1483V29.8165C49.5653 28.9308 48.8461 28.2139 47.9577 28.2139C47.0694 28.2139 46.3502 28.9308 46.3502 29.8165V33.1483C39.6238 33.6333 33.7647 37.2181 30.1688 42.4689L27.271 40.803C26.5095 40.3601 25.5153 40.6132 25.0923 41.3934C24.6481 42.1525 24.9231 43.1226 25.6846 43.5654L28.5824 45.2313C25.7269 51.0935 25.7269 57.9891 28.5824 63.8724L25.6846 65.5383C24.9019 65.9179 24.6481 66.909 25.0923 67.6681Z" fill="#C97B00"/>
<path d="M36.6636 101.386V106.342C36.6636 107.818 37.8692 109.02 39.3499 109.02H56.5677C58.0484 109.02 59.254 107.818 59.254 106.342V101.386C59.254 97.886 56.9696 94.9127 53.8179 93.8794C54.8544 92.5931 55.4889 90.9483 55.4889 89.177C55.4889 85.0439 52.1258 81.6699 47.9588 81.6699C43.813 81.6699 40.4287 85.0228 40.4287 89.177C40.4287 90.9483 41.0632 92.5931 42.0997 93.8794C38.948 94.9127 36.6636 97.886 36.6636 101.386ZM47.9588 84.8541C50.349 84.8541 52.2738 86.7941 52.2738 89.1559C52.2738 91.5388 50.3278 93.4577 47.9588 93.4577C45.5686 93.4577 43.6438 91.5177 43.6438 89.1559C43.6438 86.773 45.5898 84.8541 47.9588 84.8541ZM39.8787 101.386C39.8787 98.7717 42.0151 96.663 44.6168 96.663H51.322C53.9448 96.663 56.0601 98.7928 56.0601 101.386V105.815H54.389V101.155C54.389 100.269 53.6699 99.5519 52.7815 99.5519C51.8931 99.5519 51.1739 100.269 51.1739 101.155V105.815H44.7437V101.155C44.7437 100.269 44.0245 99.5519 43.1361 99.5519C42.2477 99.5519 41.5286 100.269 41.5286 101.155V105.815H39.8787V101.386Z" fill="#A9ADB7"/>
<path d="M69.5303 54.5105C69.5938 66.2982 59.9695 75.914 48.0821 75.9351C36.0676 75.9773 26.5492 66.2561 26.5703 54.0044C26.6127 42.5962 36.3215 33.0226 47.934 32.9593C59.9061 32.896 69.4457 42.4275 69.5303 54.5105ZM34.9677 42.5962C29.0028 49.1754 28.8971 58.7068 34.3543 65.4969C39.7058 72.1605 49.4781 73.8896 57.0505 69.5035C64.6019 65.1384 67.9016 55.9233 64.7922 47.8469C61.8732 40.2766 53.4124 35.3632 45.988 36.9448C45.9034 38.3155 45.988 39.7494 45.9457 41.1833C45.8399 45.4429 45.7342 49.7026 45.7342 53.9622C45.7342 55.7124 46.5802 56.8933 48.1667 56.8933C49.0127 56.8933 51.001 56.1342 51.001 54.2996C51.001 52.3174 49.9223 51.263 48.0609 50.7991C48.0609 50.7991 48.1455 44.4729 48.1455 41.3731C56.1199 40.8248 62.7828 48.9434 61.0906 56.8301C59.6311 63.6623 53.7508 67.9009 46.5802 67.3315C40.3192 66.8254 35.2639 61.4482 35.01 54.7846C34.8408 50.8835 34.9677 47.0034 34.9677 42.5962ZM42.0325 37.7672C40.7846 38.2311 39.3674 39.0324 39.3251 39.9181C39.0501 45.0001 38.8809 50.1454 39.177 55.2274C39.452 59.951 43.0478 63.1351 47.7013 63.5358C51.7837 63.8943 55.9083 61.0264 57.2832 56.8933C58.785 52.3806 56.3525 47.0878 51.3606 45.6538L51.4664 49.4074C51.4664 49.4074 52.8201 49.9978 53.4124 50.8413C55.6334 53.92 54.5969 57.9477 51.276 59.7612C48.082 61.5114 43.9151 60.3305 42.6248 57.062C42.0537 55.6281 42.0748 53.8989 42.0537 52.3174C41.9902 47.4673 42.0325 43.039 42.0325 37.7672Z" fill="#C97B00"/>
</svg>
