<svg width="99" height="98" viewBox="0 0 99 98" fill="none" xmlns="http://www.w3.org/2000/svg">
<path d="M90.1519 50.9141H97.0425C98.0952 50.9141 98.9565 50.0527 98.9565 49C98.9565 47.9473 98.0952 47.0859 97.0425 47.0859H90.1519C89.0991 47.0859 88.2378 47.9473 88.2378 49C88.2378 50.0527 89.0991 50.9141 90.1519 50.9141Z" fill="#A9ADB7"/>
<path d="M2.87061 50.9141H9.76123C10.814 50.9141 11.6753 50.0527 11.6753 49C11.6753 47.9473 10.814 47.0859 9.76123 47.0859H2.87061C1.81787 47.0859 0.956543 47.9473 0.956543 49C0.956543 50.0527 1.81787 50.9141 2.87061 50.9141Z" fill="#A9ADB7"/>
<path d="M15.3094 17.0556L20.1902 21.9364C20.9367 22.6829 22.1426 22.6829 22.8891 21.9364C23.6355 21.1899 23.6355 19.9841 22.8891 19.2376L18.0082 14.3567C17.2617 13.6103 16.0559 13.6103 15.3094 14.3567C14.5629 15.1032 14.5629 16.3091 15.3094 17.0556Z" fill="#A9ADB7"/>
<path d="M48.0425 1.91406V8.80469C48.0425 9.85742 48.9038 10.7188 49.9565 10.7188C51.0093 10.7188 51.8706 9.85742 51.8706 8.80469V1.91406C51.8706 0.861328 51.0093 0 49.9565 0C48.9038 0 48.0425 0.861328 48.0425 1.91406Z" fill="#A9ADB7"/>
<path d="M81.9012 14.3567L77.0203 19.2376C76.2738 19.9841 76.2738 21.1899 77.0203 21.9364C77.7668 22.6829 78.9727 22.6829 79.7191 21.9364L84.6 17.0556C85.3465 16.3091 85.3465 15.1032 84.6 14.3567C83.8535 13.6103 82.6477 13.6103 81.9012 14.3567Z" fill="#A9ADB7"/>
<path d="M49.9565 98C51.0137 98 51.8706 97.143 51.8706 96.0859C51.8706 95.0288 51.0137 94.1719 49.9565 94.1719C48.8994 94.1719 48.0425 95.0288 48.0425 96.0859C48.0425 97.143 48.8994 98 49.9565 98Z" fill="#C97B00"/>
<path d="M22.2026 46.1289V60.4844C22.2026 70.9734 30.6437 77.0027 33.687 78.8211V96.0859C33.687 97.1387 34.5483 98 35.6011 98H41.3433C42.396 98 43.2573 97.1387 43.2573 96.0859C43.2573 95.0332 42.396 94.1719 41.3433 94.1719H37.5151V77.7109C37.5151 76.9836 37.1132 76.3328 36.4624 76.0074C36.3667 75.95 26.0308 70.6289 26.0308 60.4844V46.1289C26.0308 44.0234 27.7534 42.3008 29.8589 42.3008H50.7222C49.8417 46.6648 45.9753 49.957 41.3433 49.957H35.6011C34.5483 49.957 33.687 50.8184 33.687 51.8711C33.687 52.9238 34.5483 53.7852 35.6011 53.7852C44.0421 53.7852 50.9136 60.6566 50.9136 69.0977C50.9136 70.1504 51.7749 71.0117 52.8276 71.0117C53.8804 71.0117 54.7417 70.1504 54.7417 69.0977C54.7417 63.8148 59.0292 59.5273 64.312 59.5273C65.3648 59.5273 66.2261 58.666 66.2261 57.6133C66.2261 56.5605 65.3648 55.6992 64.312 55.6992C59.6991 55.6992 55.6222 58.0344 53.2105 61.5945C51.6983 58.0344 49.1335 55.0293 45.9179 52.9812C49.2483 51.7754 51.9663 49.268 53.4593 46.0906C54.8183 47.2965 56.5983 48.043 58.5698 48.043C59.0675 48.043 59.5651 48.043 60.0245 48.043C60.9241 48.043 61.8046 48.0238 62.6085 47.8707C63.3933 51.2586 66.4366 53.7852 70.0733 53.7852C71.4706 53.7852 72.7722 53.4023 73.9015 52.7516V60.4844C73.9015 70.6098 63.5847 75.95 63.4698 76.0074C62.819 76.3328 62.4171 77.0027 62.4171 77.7109V94.1719H58.589C57.5362 94.1719 56.6749 95.0332 56.6749 96.0859C56.6749 97.1387 57.5362 98 58.589 98H64.3312C65.3839 98 66.2452 97.1387 66.2452 96.0859V78.8211C69.2886 76.9836 77.7296 70.9734 77.7296 60.4844C77.7296 56.6754 77.7296 42.4156 77.7296 36.3672C77.7296 32.1371 74.3034 28.7109 70.0733 28.7109C68.6569 28.7109 67.3362 29.0938 66.1878 29.7637C65.7667 25.9355 62.5128 22.9688 58.589 22.9688C57.1726 22.9688 55.8519 23.3516 54.7034 24.0215C54.2823 20.1934 51.0284 17.2266 47.1046 17.2266C43.1808 17.2266 39.9269 20.2125 39.5058 24.0215C38.3765 23.3516 37.0366 22.9688 35.6202 22.9688C31.3901 22.9688 27.964 26.3949 27.964 30.625V38.7215C24.6526 39.5637 22.2026 42.5688 22.2026 46.1289ZM70.0542 32.5391C72.1597 32.5391 73.8823 34.2617 73.8823 36.3672V46.1289C73.8823 48.2344 72.1597 49.957 70.0542 49.957C67.9487 49.957 66.2261 48.2344 66.2261 46.1289V36.3672C66.2261 34.2617 67.9487 32.5391 70.0542 32.5391ZM58.5698 26.7969C60.6753 26.7969 62.398 28.5195 62.398 30.625V43.2578C62.398 43.7938 62.2831 43.9469 62.2831 43.9469C61.996 44.234 60.3308 44.2148 59.3355 44.2148C59.0866 44.2148 58.8187 44.2148 58.5698 44.2148C56.4644 44.2148 54.7417 42.4922 54.7417 40.3867V30.625C54.7417 28.5195 56.4644 26.7969 58.5698 26.7969ZM43.2573 24.8828C43.2573 22.7773 44.98 21.0547 47.0855 21.0547C49.1909 21.0547 50.9136 22.7773 50.9136 24.8828V38.4727H43.2573V24.8828ZM35.6011 26.7969C37.7065 26.7969 39.4292 28.5195 39.4292 30.625V38.4727H31.773V30.625C31.773 28.5195 33.4956 26.7969 35.6011 26.7969Z" fill="#C97B00"/>
</svg>
