<svg width="97" height="102" viewBox="0 0 97 102" fill="none" xmlns="http://www.w3.org/2000/svg">
<path d="M49.5417 65.8977C39.2435 65.8977 30.8516 57.5681 30.8516 47.3463C30.8516 37.1246 39.2435 28.7949 49.5417 28.7949C59.8398 28.7949 68.2317 37.1246 68.2317 47.3463C68.2317 57.5681 59.8398 65.8977 49.5417 65.8977ZM49.5417 32.7096C41.4127 32.7096 34.7955 39.2777 34.7955 47.3463C34.7955 55.415 41.4127 61.983 49.5417 61.983C57.6706 61.983 64.2878 55.415 64.2878 47.3463C64.2878 39.2777 57.6706 32.7096 49.5417 32.7096Z" fill="#C97B00"/>
<path d="M49.5427 58.9602C43.079 58.9602 37.8203 53.7406 37.8203 47.3249C37.8203 40.9091 43.079 35.6895 49.5427 35.6895C56.0064 35.6895 61.2651 40.9091 61.2651 47.3249C61.2651 53.7406 56.0064 58.9602 49.5427 58.9602ZM49.5427 39.6259C45.2481 39.6259 41.7643 43.0839 41.7643 47.3466C41.7643 51.6093 45.2481 55.0673 49.5427 55.0673C53.8373 55.0673 57.3211 51.6093 57.3211 47.3466C57.3211 43.0839 53.8373 39.6259 49.5427 39.6259Z" fill="#C97B00"/>
<path d="M80.4374 19.7041C74.9597 19.7041 70.5117 15.2891 70.5117 9.85203C70.5117 4.41493 74.9597 0 80.4374 0C85.9152 0 90.3631 4.41493 90.3631 9.85203C90.3631 15.2891 85.9152 19.7041 80.4374 19.7041ZM80.4374 3.91471C77.1288 3.91471 74.4557 6.58977 74.4557 9.85203C74.4557 13.136 77.1508 15.7893 80.4374 15.7893C83.7241 15.7893 86.4191 13.1143 86.4191 9.85203C86.4191 6.58977 83.7241 3.91471 80.4374 3.91471Z" fill="#A9ADB7"/>
<path d="M87.0741 73.9013C81.5964 73.9013 77.1484 69.4864 77.1484 64.0493C77.1484 58.6122 81.5964 54.1973 87.0741 54.1973C92.5519 54.1973 96.9998 58.6122 96.9998 64.0493C96.9998 69.4864 92.5519 73.9013 87.0741 73.9013ZM87.0741 58.112C83.7656 58.112 81.0924 60.787 81.0924 64.0493C81.0924 67.3115 83.7875 69.9866 87.0741 69.9866C90.3608 69.9866 93.0558 67.3115 93.0558 64.0493C93.0558 60.787 90.3608 58.112 87.0741 58.112Z" fill="#A9ADB7"/>
<path d="M63.5424 101.999C58.0646 101.999 53.6167 97.584 53.6167 92.1469C53.6167 86.7099 58.0646 82.2949 63.5424 82.2949C69.0201 82.2949 73.468 86.7099 73.468 92.1469C73.468 97.584 68.9982 101.999 63.5424 101.999ZM63.5424 86.2096C60.2338 86.2096 57.5607 88.8847 57.5607 92.1469C57.5607 95.431 60.2557 98.0843 63.5424 98.0843C66.829 98.0843 69.5241 95.4092 69.5241 92.1469C69.5241 88.8629 66.829 86.2096 63.5424 86.2096Z" fill="#A9ADB7"/>
<path d="M18.8207 33.7958C13.343 33.7958 8.89502 29.3809 8.89502 23.9438C8.89502 18.5067 13.343 14.0918 18.8207 14.0918C24.2984 14.0918 28.7464 18.5067 28.7464 23.9438C28.7464 29.3809 24.2984 33.7958 18.8207 33.7958ZM18.8207 18.0065C15.5121 18.0065 12.839 20.6816 12.839 23.9438C12.839 27.2278 15.5341 29.8811 18.8207 29.8811C22.1073 29.8811 24.8024 27.2061 24.8024 23.9438C24.8024 20.6816 22.1293 18.0065 18.8207 18.0065Z" fill="#A9ADB7"/>
<path d="M9.92568 81.7958C4.44793 81.7958 0 77.3809 0 71.9438C0 66.5067 4.44793 62.0918 9.92568 62.0918C15.4034 62.0918 19.8514 66.5067 19.8514 71.9438C19.8514 77.3809 15.4034 81.7958 9.92568 81.7958ZM9.92568 66.0065C6.61712 66.0065 3.94398 68.6816 3.94398 71.9438C3.94398 75.2061 6.63903 77.8811 9.92568 77.8811C13.2123 77.8811 15.9074 75.2061 15.9074 71.9438C15.9074 68.6816 13.2342 66.0065 9.92568 66.0065Z" fill="#A9ADB7"/>
<path d="M49.5418 52.7623C46.54 52.7623 44.0859 50.3265 44.0859 47.347C44.0859 44.3675 46.54 41.9316 49.5418 41.9316C52.5436 41.9316 54.9976 44.3675 54.9976 47.347C54.9976 50.3265 52.5436 52.7623 49.5418 52.7623ZM49.5418 45.8464C48.7092 45.8464 48.0299 46.5206 48.0299 47.347C48.0299 48.1734 48.7092 48.8476 49.5418 48.8476C50.3744 48.8476 51.0536 48.1734 51.0536 47.347C51.0536 46.5206 50.3744 45.8464 49.5418 45.8464Z" fill="#C97B00"/>
<path d="M25.8228 27.812L23.417 30.9141L30.3098 36.1809L32.7157 33.0788L25.8228 27.812Z" fill="#A9ADB7"/>
<path d="M73.9617 14.8571L62.6094 29.2363L65.7137 31.6509L77.066 17.2717L73.9617 14.8571Z" fill="#A9ADB7"/>
<path d="M70.7041 54.3609L69.0508 57.915L79.0371 62.4917L80.6904 58.9376L70.7041 54.3609Z" fill="#A9ADB7"/>
<path d="M58.0899 68.3263L54.2891 69.3711L58.7336 85.2999L62.5344 84.2551L58.0899 68.3263Z" fill="#A9ADB7"/>
<path d="M29.1475 57.5328L15.5 65.8955L17.5718 69.2265L31.2192 60.8639L29.1475 57.5328Z" fill="#A9ADB7"/>
</svg>
