<svg width="78" height="96" viewBox="0 0 78 96" fill="none" xmlns="http://www.w3.org/2000/svg">
<path d="M70.3399 95.9992H7.63862C3.42124 95.9992 0 92.5622 0 88.3518V15.5517C0 11.3413 3.42124 7.92578 7.63862 7.92578H70.3399C74.5573 7.92578 77.9785 11.3413 77.9785 15.5517V88.3518C78 92.5622 74.5788 95.9992 70.3399 95.9992ZM7.63862 12.0932C5.72359 12.0932 4.15283 13.6398 4.15283 15.5731V88.3733C4.15283 90.2852 5.72359 91.8533 7.63862 91.8533H70.3399C72.2549 91.8533 73.8257 90.2852 73.8257 88.3733V15.5517C73.8257 13.6398 72.2549 12.0717 70.3399 12.0717H7.63862V12.0932Z" fill="#A9ADB7"/>
<path d="M29.8804 83.5635C28.9454 83.5635 28.2442 82.9217 28.2442 82.0466V70.7869H24.2704C24.0561 73.2956 23.8808 75.7847 23.6665 78.2934C23.4328 81.4438 22.2446 83.4662 19.5759 83.4662C18.4461 83.4662 17.2773 83.2523 17.2773 82.066C17.2773 81.0937 17.9786 80.5881 18.6799 80.5881C18.9526 80.5881 19.011 80.6464 19.2642 80.6464C20.0434 80.6464 20.394 79.9269 20.5304 78.4101L21.3096 69.5618C21.407 68.6478 22.0303 68.0449 22.7705 68.0449H30.0558C31.0882 68.0449 31.5362 68.92 31.5362 69.5812V82.0272C31.5167 82.9217 30.7765 83.5635 29.8804 83.5635Z" fill="#C97B00"/>
<path d="M38.2168 77.1644V78.5646C38.2168 79.9259 39.1518 80.801 41.0608 80.801C42.1906 80.801 43.0087 80.4898 44.0022 80.0426C44.0996 79.9842 44.3138 79.887 44.6645 79.887C45.6969 79.887 46.1449 80.6454 46.1449 81.2483C46.1449 83.0568 42.5607 83.5819 40.7686 83.5819C37.048 83.5819 34.9248 81.3455 34.9248 78.409V73.0417C34.9248 70.0664 37.0091 67.8105 40.9244 67.8105C44.5865 67.8105 46.4176 69.8136 46.4176 72.8278C46.4176 75.667 44.7424 77.3783 40.9049 77.3783C40.0673 77.3783 39.1908 77.32 38.2168 77.1644ZM40.8855 70.5136C39.1908 70.5136 38.2168 71.4276 38.2168 72.8667V74.6558C39.2492 74.7725 40.4374 74.8308 40.8855 74.8308C42.6191 74.8308 43.184 74.0141 43.184 72.75C43.184 71.1554 42.3659 70.5136 40.8855 70.5136Z" fill="#C97B00"/>
<path d="M55.6128 82.0447C55.6128 82.9198 54.8921 83.581 53.9765 83.581C53.0415 83.581 52.3403 82.9198 52.3403 82.0447V70.999H49.6521C48.7756 70.999 48.1133 70.3572 48.1133 69.5405C48.1133 68.6848 48.7756 68.0625 49.6521 68.0625H58.3204C59.1775 68.0625 59.8593 68.7042 59.8593 69.5405C59.8593 70.3572 59.158 70.999 58.3204 70.999H55.6128V82.0447Z" fill="#C97B00"/>
<path d="M25.4412 31.8842L19.3636 35.7735C18.6819 36.2208 17.8832 36.7653 17.2014 36.7653C16.3638 36.7653 15.4678 35.968 15.4678 35.0929C15.4678 34.4123 15.76 33.7705 16.3638 33.3622L26.084 27.1586C26.4736 26.9058 26.8242 26.8086 27.2722 26.8086C28.4605 26.8086 29.3955 27.742 29.3955 28.9283V60.5098C29.3955 61.5405 28.4994 62.474 27.4281 62.474C26.3567 62.474 25.4606 61.5405 25.4606 60.5098V31.8842H25.4412Z" fill="#C97B00"/>
<path d="M59.0052 37.6014V52.2838C59.0052 58.0011 55.4989 62.5322 49.0903 62.5322C42.6816 62.5322 39.1753 58.0011 39.1753 52.2838V37.6014C39.1753 31.3979 42.1946 26.3223 49.0903 26.3223C55.9859 26.3029 59.0052 31.3785 59.0052 37.6014ZM43.0712 37.1931V52.2643C43.0712 56.212 45.1944 58.8568 49.0903 58.8568C52.9861 58.8568 55.1094 56.1926 55.1094 52.2643V37.1931C55.1094 32.9537 53.3757 29.9005 49.0903 29.9005C44.8048 29.9005 43.0712 32.9731 43.0712 37.1931Z" fill="#C97B00"/>
<path d="M15.708 19.2473C15.4713 19.2473 15.2992 19.2258 15.2562 19.2258L15.8156 15.4021C15.8156 15.4021 15.7941 15.4021 15.7296 15.4021C15.7726 15.4021 16.1599 15.4021 16.5687 15.0154C17.0636 14.5429 17.9028 13.211 17.9028 9.68807C17.9028 5.58514 16.2675 3.88812 15.3853 3.88812C14.998 3.88812 14.5461 4.23182 14.1803 4.85478C13.5348 5.92884 13.169 7.64735 13.169 9.68807C13.169 10.7621 12.3083 11.6214 11.2324 11.6214C10.1566 11.6214 9.2959 10.7621 9.2959 9.68807C9.2959 6.85254 9.83383 4.55404 10.8667 2.83553C11.964 1.0311 13.5993 0 15.3853 0C18.5698 0 21.7759 3.3296 21.7759 9.66659C21.7759 13.6192 20.8507 16.4117 19.0432 17.9799C17.7522 19.0754 16.4181 19.2473 15.708 19.2473Z" fill="#A9ADB7"/>
<path d="M61.9912 19.2473C61.7545 19.2473 61.5824 19.2258 61.5394 19.2258L62.0988 15.4021C62.0988 15.4021 62.0773 15.4021 62.0128 15.4021C62.0558 15.4021 62.4431 15.4021 62.8519 15.0154C63.3468 14.5429 64.186 13.211 64.186 9.68808C64.186 5.58514 62.5507 3.88812 61.6685 3.88812C61.2812 3.88812 60.8293 4.23182 60.4635 4.85478C59.818 5.92885 59.4522 7.64735 59.4522 9.68808C59.4522 10.7621 58.5915 11.6214 57.5157 11.6214C56.4398 11.6214 55.5791 10.7621 55.5791 9.68808C55.5791 6.85254 56.117 4.55404 57.1499 2.83554C58.2472 1.03111 59.8826 0.0214844 61.6685 0.0214844C64.853 0.0214844 68.0591 3.35109 68.0591 9.68808C68.0591 13.6406 67.1339 16.4332 65.3264 18.0013C64.0354 19.0754 62.6798 19.2473 61.9912 19.2473Z" fill="#A9ADB7"/>
<path d="M38.8579 19.2473C38.6212 19.2473 38.4491 19.2258 38.4061 19.2258L38.9655 15.4021C38.9655 15.4021 38.944 15.4021 38.8795 15.4021C38.9225 15.4021 39.3098 15.4021 39.7186 15.0154C40.2135 14.5429 41.0527 13.211 41.0527 9.68807C41.0527 5.58514 39.4174 3.88812 38.5352 3.88812C38.1479 3.88812 37.696 4.23182 37.3302 4.85478C36.6847 5.92884 36.3189 7.64735 36.3189 9.68807C36.3189 10.7621 35.4582 11.6214 34.3824 11.6214C33.3065 11.6214 32.4458 10.7621 32.4458 9.68807C32.4458 6.85254 32.9837 4.55404 34.0166 2.83553C35.0924 1.0311 36.7277 0 38.5137 0C41.6982 0 44.9043 3.3296 44.9043 9.66659C44.9043 13.6192 43.979 16.4117 42.1716 17.9799C40.8806 19.0754 39.5465 19.2473 38.8579 19.2473Z" fill="#A9ADB7"/>
</svg>
