<svg width="19" height="214" viewBox="0 0 19 214" fill="none" xmlns="http://www.w3.org/2000/svg">
<path d="M0.549082 213.266L18.5091 206.526L18.5091 204.586L0.549082 211.326L0.549082 213.266ZM0.549083 194.534L18.5091 201.274L18.5091 199.334L0.549083 192.594L0.549083 194.534ZM0.549083 189.282L18.5091 182.542L18.5091 180.602L0.549083 187.342L0.549083 189.282ZM0.549084 170.55L18.5091 177.29L18.5091 175.35L0.549084 168.61L0.549084 170.55ZM0.549084 165.298L18.5091 158.558L18.5091 156.618L0.549084 163.358L0.549084 165.298ZM0.549085 146.566L18.5091 153.306L18.5091 151.366L0.549085 144.626L0.549085 146.566ZM0.549085 141.313L18.5091 134.573L18.5091 132.633L0.549085 139.373L0.549085 141.313ZM0.549085 122.581L18.5091 129.321L18.5091 127.381L0.549085 120.641L0.549085 122.581ZM0.549086 117.329L18.5091 110.589L18.5091 108.649L0.549086 115.389L0.549086 117.329ZM0.549086 98.5968L18.5091 105.337L18.5091 103.397L0.549086 96.6568L0.549086 98.5968ZM0.549086 93.3446L18.5091 86.6046L18.5091 84.6646L0.549087 91.4046L0.549086 93.3446ZM0.549087 74.6124L18.5091 81.3524L18.5091 79.4124L0.549087 72.6724L0.549087 74.6124ZM0.549087 69.3602L18.5091 62.6202L18.5091 60.6802L0.549087 67.4202L0.549087 69.3602ZM0.549088 50.6281L18.5091 57.3681L18.5091 55.4281L0.549088 48.6881L0.549088 50.6281ZM0.549088 45.3759L18.5091 38.6359L18.5091 36.6959L0.549088 43.4359L0.549088 45.3759ZM0.549089 26.6437L18.5091 33.3837L18.5091 31.4437L0.549089 24.7037L0.549089 26.6437ZM0.549089 21.3915L18.5091 14.6515L18.5091 12.7115L0.549089 19.4515L0.549089 21.3915ZM0.54909 2.65931L18.5091 9.39931L18.5091 7.45931L0.54909 0.719309L0.54909 2.65931Z" fill="#C97B00"/>
</svg>
