<svg width="159" height="20" viewBox="0 0 159 20" fill="none" xmlns="http://www.w3.org/2000/svg">
<g clip-path="url(#clip0_6434_3655)">
<path d="M4.49848 0L6.04483 0.473934L1.59321 20L0 19.5261L4.49848 0Z" fill="#2A2A33"/>
<path d="M13.1674 0L14.7138 0.473934L10.2622 20L8.66895 19.5261L13.1674 0Z" fill="#2A2A33"/>
<path d="M21.8364 0L23.3827 0.473934L18.9311 20L17.3379 19.5261L21.8364 0Z" fill="#2A2A33"/>
<path d="M31.5308 17.8721V6.71261H33.1357V8.01023H33.2224C33.3959 7.57769 33.6417 7.21003 33.9598 6.90725C34.2779 6.60447 34.7478 6.45308 35.3695 6.45308C36.0202 6.45308 36.5046 6.61889 36.8226 6.9505C37.1407 7.2677 37.3359 7.68582 37.4082 8.20487H37.4733C37.6757 7.70024 37.9649 7.28212 38.3408 6.9505C38.7167 6.61889 39.2372 6.45308 39.9023 6.45308C40.8132 6.45308 41.4205 6.77028 41.7241 7.40467C42.0422 8.03906 42.2013 8.9474 42.2013 10.1297V17.8721H40.5964V10.4108C40.5964 9.45923 40.4951 8.80322 40.2927 8.44277C40.1048 8.0679 39.7505 7.88046 39.23 7.88046C38.7673 7.88046 38.3914 8.03185 38.1022 8.33463C37.8131 8.62299 37.6685 9.06995 37.6685 9.67551V17.8721H36.0636V10.4108C36.0636 9.45923 35.9624 8.80322 35.7599 8.44277C35.572 8.0679 35.225 7.88046 34.7189 7.88046C34.2562 7.88046 33.8731 8.03185 33.5694 8.33463C33.2803 8.62299 33.1357 9.06995 33.1357 9.67551V17.8721H31.5308Z" fill="#2A2A33"/>
<path d="M50.0656 18.1317C49.2559 18.1317 48.5257 17.9947 47.8751 17.7207C47.2389 17.4468 46.6895 17.0575 46.2268 16.5529C45.7786 16.0338 45.4315 15.4211 45.1858 14.7146C44.94 13.9937 44.8171 13.1935 44.8171 12.314C44.8171 11.4201 44.94 10.6127 45.1858 9.89178C45.446 9.17088 45.8002 8.55811 46.2485 8.05348C46.6967 7.53443 47.2317 7.13794 47.8534 6.864C48.4896 6.59006 49.1908 6.45308 49.9571 6.45308C50.709 6.45308 51.3885 6.59006 51.9958 6.864C52.6175 7.13794 53.1453 7.52001 53.579 8.01023C54.0128 8.48602 54.3453 9.05553 54.5767 9.71876C54.808 10.382 54.9237 11.1101 54.9237 11.9031V12.7249H46.6388V13.244C46.6388 13.7342 46.7184 14.1883 46.8774 14.6065C47.0365 15.0246 47.2606 15.385 47.5497 15.6878C47.8534 15.9906 48.2148 16.2285 48.6341 16.4015C49.0679 16.5601 49.545 16.6394 50.0656 16.6394C50.8174 16.6394 51.4681 16.4664 52.0175 16.1203C52.5669 15.7743 52.9862 15.2985 53.2754 14.693L54.555 15.558C54.2224 16.3078 53.6658 16.9278 52.885 17.418C52.1187 17.8938 51.1789 18.1317 50.0656 18.1317ZM49.9571 7.88046C49.48 7.88046 49.039 7.96697 48.6341 8.13999C48.2293 8.31301 47.8751 8.5509 47.5714 8.85368C47.2823 9.15646 47.0509 9.51691 46.8774 9.93503C46.7184 10.3387 46.6388 10.7857 46.6388 11.2759V11.4273H53.0585V11.1894C53.0585 10.6992 52.979 10.2522 52.8199 9.84852C52.6754 9.44482 52.4657 9.09878 52.191 8.81042C51.9307 8.50765 51.6054 8.27696 51.215 8.11836C50.8391 7.95976 50.4198 7.88046 49.9571 7.88046Z" fill="#2A2A33"/>
<path d="M63.9445 17.8721C62.2876 17.8721 60.9445 16.529 60.9445 14.8721V8.18324H57.2141V6.71261H59.9902C60.3661 6.71261 60.6264 6.64052 60.771 6.49634C60.93 6.33774 61.0095 6.07101 61.0095 5.69614V2.7765H62.6795V6.71261H67.7762V8.18324H62.6795V15.4015C62.6795 15.9538 63.1272 16.4015 63.6795 16.4015H67.7762V17.8721H63.9445Z" fill="#2A2A33"/>
<path d="M80.1082 17.8721C79.4287 17.8721 78.9443 17.6991 78.6551 17.3531C78.366 17.0071 78.1852 16.5745 78.1129 16.0555H78.0045C77.7587 16.7043 77.3611 17.2161 76.8117 17.591C76.2767 17.9514 75.5537 18.1317 74.6428 18.1317C73.4717 18.1317 72.5391 17.8289 71.8451 17.2233C71.1511 16.6178 70.8041 15.7887 70.8041 14.7362C70.8041 13.6981 71.18 12.8979 71.9318 12.3356C72.6982 11.7733 73.9271 11.4922 75.6188 11.4922H78.0045V10.3892C78.0045 9.56737 77.7732 8.95461 77.3105 8.5509C76.8478 8.13278 76.1899 7.92372 75.3369 7.92372C74.585 7.92372 73.9705 8.07511 73.4934 8.37789C73.0162 8.66625 72.6331 9.06274 72.3439 9.56737L71.1728 8.70229C71.3173 8.41393 71.5125 8.13278 71.7583 7.85884C72.0041 7.5849 72.3078 7.347 72.6692 7.14515C73.0307 6.92888 73.4428 6.76307 73.9055 6.64773C74.3681 6.51796 74.8814 6.45308 75.4453 6.45308C76.7611 6.45308 77.8021 6.7847 78.5684 7.44792C79.3492 8.11115 79.7395 9.0339 79.7395 10.2162V16.3582H81.3011V17.8721H80.1082ZM74.9465 16.6826C75.3947 16.6826 75.7995 16.6322 76.161 16.5313C76.5369 16.4159 76.8623 16.2717 77.137 16.0987C77.4117 15.9113 77.6213 15.695 77.7659 15.4499C77.925 15.1904 78.0045 14.9164 78.0045 14.6281V12.7898H75.6188C74.5778 12.7898 73.8187 12.934 73.3416 13.2223C72.8644 13.5107 72.6259 13.9288 72.6259 14.4767V14.9309C72.6259 15.5076 72.8283 15.9473 73.2331 16.2501C73.6524 16.5385 74.2235 16.6826 74.9465 16.6826Z" fill="#2A2A33"/>
<path d="M89.0135 18.1317C87.8424 18.1317 86.8303 17.937 85.9772 17.5477C85.1386 17.144 84.4229 16.6106 83.8301 15.9473L85.0013 14.9309C85.5362 15.4932 86.1218 15.9257 86.758 16.2285C87.3942 16.5313 88.1605 16.6826 89.0569 16.6826C89.9244 16.6826 90.6329 16.5313 91.1824 16.2285C91.7462 15.9113 92.0282 15.4211 92.0282 14.7578C92.0282 14.4695 91.9703 14.2316 91.8547 14.0442C91.7535 13.8423 91.6089 13.6837 91.4209 13.5684C91.233 13.453 91.0233 13.3665 90.792 13.3088C90.5606 13.2367 90.3148 13.1791 90.0546 13.1358L88.2978 12.8763C87.9075 12.8186 87.4809 12.7393 87.0182 12.6384C86.57 12.5375 86.158 12.3789 85.782 12.1626C85.4061 11.9319 85.088 11.6291 84.8278 11.2543C84.582 10.8794 84.4591 10.3892 84.4591 9.78364C84.4591 9.22134 84.5675 8.73834 84.7844 8.33463C85.0157 7.91651 85.3338 7.57048 85.7387 7.29654C86.1435 7.00818 86.6206 6.79912 87.1701 6.66935C87.7195 6.52517 88.3195 6.45308 88.9702 6.45308C89.9823 6.45308 90.857 6.61168 91.5944 6.92888C92.3463 7.24607 92.9897 7.68582 93.5247 8.24812L92.3969 9.30784C92.2668 9.14925 92.1005 8.99065 91.8981 8.83205C91.7101 8.65904 91.4715 8.50765 91.1824 8.37789C90.9076 8.23371 90.5823 8.11836 90.2064 8.03185C89.8305 7.94535 89.3967 7.90209 88.9051 7.90209C88.0231 7.90209 87.3436 8.05348 86.8664 8.35626C86.4038 8.65904 86.1724 9.09879 86.1724 9.67551C86.1724 9.96387 86.223 10.209 86.3242 10.4108C86.4399 10.5983 86.5917 10.7496 86.7797 10.865C86.9676 10.9803 87.1773 11.074 87.4086 11.1461C87.6544 11.2038 87.9002 11.2543 88.146 11.2975L89.9028 11.5571C90.3076 11.6147 90.7341 11.694 91.1824 11.7949C91.6306 11.8959 92.0426 12.0617 92.4186 12.2924C92.7945 12.5086 93.1054 12.8042 93.3512 13.1791C93.6114 13.5539 93.7415 14.0442 93.7415 14.6497C93.7415 15.7599 93.3078 16.6178 92.4403 17.2233C91.5872 17.8289 90.445 18.1317 89.0135 18.1317Z" fill="#2A2A33"/>
<path d="M97.5068 1.86816H99.2418V8.52927H99.3286C99.4442 8.25533 99.5888 7.99581 99.7623 7.7507C99.9358 7.49118 100.145 7.2677 100.391 7.08027C100.652 6.89283 100.955 6.74144 101.302 6.6261C101.649 6.51076 102.054 6.45308 102.517 6.45308C103.688 6.45308 104.628 6.82795 105.336 7.57769C106.045 8.313 106.399 9.35831 106.399 10.7136V17.8721H104.664V11.0164C104.664 9.9927 104.44 9.23576 103.992 8.74554C103.543 8.24091 102.885 7.9886 102.018 7.9886C101.671 7.9886 101.331 8.03185 100.999 8.11836C100.666 8.20487 100.37 8.33463 100.109 8.50765C99.8491 8.68066 99.6394 8.90414 99.4804 9.17808C99.3213 9.45202 99.2418 9.76922 99.2418 10.1297V17.8721H97.5068V1.86816Z" fill="#2A2A33"/>
<path d="M119.121 17.8721C118.442 17.8721 117.957 17.6991 117.668 17.3531C117.379 17.0071 117.198 16.5745 117.126 16.0555H117.018C116.772 16.7043 116.374 17.2161 115.825 17.591C115.29 17.9514 114.567 18.1317 113.656 18.1317C112.485 18.1317 111.552 17.8289 110.858 17.2233C110.164 16.6178 109.817 15.7887 109.817 14.7362C109.817 13.6981 110.193 12.8979 110.945 12.3356C111.711 11.7733 112.94 11.4922 114.632 11.4922H117.018V10.3892C117.018 9.56737 116.786 8.95461 116.324 8.5509C115.861 8.13278 115.203 7.92372 114.35 7.92372C113.598 7.92372 112.984 8.07511 112.506 8.37789C112.029 8.66625 111.646 9.06274 111.357 9.56737L110.186 8.70229C110.33 8.41393 110.526 8.13278 110.771 7.85884C111.017 7.5849 111.321 7.347 111.682 7.14515C112.044 6.92888 112.456 6.76307 112.918 6.64773C113.381 6.51796 113.894 6.45308 114.458 6.45308C115.774 6.45308 116.815 6.7847 117.581 7.44792C118.362 8.11115 118.753 9.0339 118.753 10.2162V16.3582H120.314V17.8721H119.121ZM113.96 16.6826C114.408 16.6826 114.813 16.6322 115.174 16.5313C115.55 16.4159 115.875 16.2717 116.15 16.0987C116.425 15.9113 116.634 15.695 116.779 15.4499C116.938 15.1904 117.018 14.9164 117.018 14.6281V12.7898H114.632C113.591 12.7898 112.832 12.934 112.355 13.2223C111.877 13.5107 111.639 13.9288 111.639 14.4767V14.9309C111.639 15.5076 111.841 15.9473 112.246 16.2501C112.665 16.5385 113.237 16.6826 113.96 16.6826Z" fill="#2A2A33"/>
<path d="M123.06 16.4015H126.335V8.18324H123.06V6.71261H128.07V8.85321C128.07 8.85321 129.378 6.71261 131.952 6.71261H133.514V8.44277C130.48 7.87219 130.04 8.65862 128.913 10.2162C128.206 11.1932 128.07 12.2475 128.07 13.1847V16.4015H132.408V17.8721H123.06V16.4015Z" fill="#2A2A33"/>
<path d="M136.672 1.86816H138.407V11.968H138.493L140.445 10.1297L144.176 6.71261H146.301L141.66 11.0813L146.843 17.8721H144.696L140.337 12.0761L138.407 13.8279V17.8721H136.672V1.86816Z" fill="#2A2A33"/>
<path d="M154.035 18.1317C152.864 18.1317 151.852 17.937 150.999 17.5477C150.16 17.144 149.445 16.6106 148.852 15.9473L150.023 14.9309C150.558 15.4932 151.144 15.9257 151.78 16.2285C152.416 16.5313 153.182 16.6826 154.079 16.6826C154.946 16.6826 155.655 16.5313 156.204 16.2285C156.768 15.9113 157.05 15.4211 157.05 14.7578C157.05 14.4695 156.992 14.2316 156.876 14.0442C156.775 13.8423 156.631 13.6837 156.443 13.5684C156.255 13.453 156.045 13.3665 155.814 13.3088C155.582 13.2367 155.337 13.1791 155.076 13.1358L153.32 12.8763C152.929 12.8186 152.503 12.7393 152.04 12.6384C151.592 12.5375 151.18 12.3789 150.804 12.1626C150.428 11.9319 150.11 11.6291 149.849 11.2543C149.604 10.8794 149.481 10.3892 149.481 9.78364C149.481 9.22134 149.589 8.73834 149.806 8.33463C150.037 7.91651 150.356 7.57048 150.76 7.29654C151.165 7.00818 151.642 6.79912 152.192 6.66935C152.741 6.52517 153.341 6.45308 153.992 6.45308C155.004 6.45308 155.879 6.61168 156.616 6.92888C157.368 7.24607 158.011 7.68582 158.546 8.24812L157.419 9.30784C157.288 9.14925 157.122 8.99065 156.92 8.83205C156.732 8.65904 156.493 8.50765 156.204 8.37789C155.929 8.23371 155.604 8.11836 155.228 8.03185C154.852 7.94535 154.418 7.90209 153.927 7.90209C153.045 7.90209 152.365 8.05348 151.888 8.35626C151.425 8.65904 151.194 9.09879 151.194 9.67551C151.194 9.96387 151.245 10.209 151.346 10.4108C151.462 10.5983 151.613 10.7496 151.801 10.865C151.989 10.9803 152.199 11.074 152.43 11.1461C152.676 11.2038 152.922 11.2543 153.168 11.2975L154.924 11.5571C155.329 11.6147 155.756 11.694 156.204 11.7949C156.652 11.8959 157.064 12.0617 157.44 12.2924C157.816 12.5086 158.127 12.8042 158.373 13.1791C158.633 13.5539 158.763 14.0442 158.763 14.6497C158.763 15.7599 158.33 16.6178 157.462 17.2233C156.609 17.8289 155.467 18.1317 154.035 18.1317Z" fill="#2A2A33"/>
</g>
<defs>
<clipPath id="clip0_6434_3655">
<rect width="158.571" height="20" fill="white"/>
</clipPath>
</defs>
</svg>
