<svg width="180" height="37" viewBox="0 0 180 37" fill="none" xmlns="http://www.w3.org/2000/svg">
<path d="M0.6 36.8188L14.52 0.898826H17.4L3.48 36.8188H0.6ZM32.5044 36.8188L18.5844 0.898826H21.4644L35.3844 36.8188H32.5044ZM36.5688 36.8188L50.4888 0.898826H53.3688L39.4488 36.8188H36.5688ZM68.4731 36.8188L54.5531 0.898826H57.4331L71.3531 36.8188H68.4731ZM72.5375 36.8188L86.4575 0.898826H89.3375L75.4175 36.8188H72.5375ZM104.442 36.8188L90.5219 0.898826L93.4019 0.898826L107.322 36.8188H104.442ZM108.506 36.8188L122.426 0.898826L125.306 0.898826L111.386 36.8188H108.506ZM140.411 36.8188L126.491 0.898826H129.371L143.291 36.8188H140.411ZM144.475 36.8188L158.395 0.898826H161.275L147.355 36.8188H144.475ZM176.379 36.8188L162.459 0.898826H165.339L179.259 36.8188H176.379Z" fill="#C97B00"/>
</svg>
