<svg width="46" height="46" viewBox="0 0 46 46" fill="none" xmlns="http://www.w3.org/2000/svg">
<path d="M46 23C46 10.2977 35.7022 0 23 0C10.2977 0 0 10.2977 0 23C0 35.7022 10.2977 46 23 46C35.7022 46 46 35.7022 46 23ZM2.0909 23C2.0909 11.4519 11.4519 2.0909 23 2.0909C34.5481 2.0909 43.9091 11.4519 43.9091 23C43.9091 34.5481 34.5481 43.9091 23 43.9091C11.4519 43.9091 2.0909 34.5481 2.0909 23Z" fill="#2A2A33"/>
<g clip-path="url(#clip0_6434_3638)">
<path d="M28.3655 35.0741C28.1734 35.0741 27.9825 35.0173 27.8187 34.9062L21.6321 30.7097L18.314 33.0973C18.0538 33.2844 17.7183 33.3316 17.4162 33.2235C17.1144 33.1152 16.8852 32.8652 16.8034 32.5553L15.1373 26.2413L9.18418 23.965C8.8094 23.8216 8.56086 23.4631 8.55813 23.0618C8.5554 22.6606 8.79902 22.2987 9.17197 22.1502L31.8078 13.1433C31.9106 13.0996 32.0192 13.0744 32.1288 13.0677C32.1681 13.0654 32.2074 13.0654 32.2465 13.0676C32.4735 13.0811 32.6965 13.1735 32.8705 13.3442C32.8885 13.3618 32.9057 13.3799 32.9219 13.3987C33.066 13.5634 33.1452 13.7641 33.1602 13.9686C33.1638 14.0201 33.1636 14.0721 33.159 14.1242C33.1559 14.1614 33.1506 14.1984 33.143 14.2351L29.3222 34.2825C29.2608 34.6046 29.0416 34.8741 28.7388 34.9997C28.6186 35.0496 28.4918 35.0741 28.3655 35.0741ZM22.1753 28.7244L27.6861 32.4624L30.6591 16.8633L19.9215 27.1956L22.1494 28.7069C22.1583 28.7125 22.1669 28.7185 22.1753 28.7244ZM17.5878 27.8932L18.3257 30.6891L19.9154 29.5452L17.8338 28.1331C17.737 28.0676 17.6542 27.9861 17.5878 27.8932ZM12.2118 23.037L16.2995 24.5999C16.5923 24.7118 16.8134 24.958 16.8933 25.2611L17.4117 27.2258C17.4355 26.9991 17.5382 26.7859 17.7051 26.6253L27.9365 16.7802L12.2118 23.037Z" fill="#2A2A33"/>
</g>
<defs>
<clipPath id="clip0_6434_3638">
<rect width="24.6047" height="24.6047" fill="white" transform="translate(8.55811 11.7676)"/>
</clipPath>
</defs>
</svg>
